<?xml version="1.0" encoding="UTF-8"?><svg xmlns="http://www.w3.org/2000/svg" xmlns:xlink="http://www.w3.org/1999/xlink" height="289.3" preserveAspectRatio="xMidYMid meet" version="1.0" viewBox="0.0 0.0 471.1 289.3" width="471.1" zoomAndPan="magnify"><g id="change1_1"><path d="M451.38,37.94c0,8.02,8.49,14.53,18.95,14.53h0.76v20.57h-0.76c-5.23,0-9.96,1.63-13.41,4.26 c-3.43,2.64-5.55,6.27-5.55,10.28c0,8.02,8.49,14.53,18.95,14.53h0.76v20.57h-0.76c-5.23,0-9.96,1.63-13.41,4.26 c-3.43,2.64-5.55,6.27-5.55,10.28c0,8.02,8.49,14.53,18.95,14.53h0.76v20.57h-0.76c-5.23,0-9.96,1.63-13.41,4.26 c-3.43,2.64-5.55,6.27-5.55,10.28c0,8.02,8.49,14.53,18.95,14.53h0.76v20.57h-0.76c-5.23,0-9.96,1.63-13.41,4.26 c-3.43,2.64-5.55,6.27-5.55,10.28c0,8.02,8.49,14.53,18.95,14.53h0.76v38.29h-17.38c-0.04-5.15-1.66-9.8-4.25-13.19 c-2.64-3.43-6.27-5.55-10.28-5.55c-7.96,0-14.43,8.37-14.52,18.74h-20.59c-0.04-5.15-1.66-9.8-4.25-13.19 c-2.64-3.43-6.27-5.55-10.28-5.55c-7.96,0-14.43,8.37-14.52,18.74h-20.59c-0.04-5.15-1.66-9.8-4.25-13.19 c-2.64-3.43-6.27-5.55-10.28-5.55c-7.96,0-14.43,8.37-14.52,18.74h-20.59c-0.04-5.15-1.66-9.8-4.25-13.19 c-2.64-3.43-6.27-5.55-10.28-5.55c-7.96,0-14.43,8.37-14.52,18.74h-20.59c-0.04-5.15-1.66-9.8-4.25-13.19 c-2.64-3.43-6.27-5.55-10.28-5.55c-7.96,0-14.43,8.37-14.52,18.74h-20.59c-0.04-5.15-1.66-9.8-4.25-13.19 c-2.64-3.43-6.27-5.55-10.28-5.55c-7.96,0-14.43,8.37-14.52,18.74H155.9c-0.04-5.15-1.66-9.8-4.25-13.19 c-2.64-3.43-6.27-5.55-10.28-5.55c-7.96,0-14.43,8.37-14.52,18.74h-20.59c-0.04-5.15-1.66-9.8-4.25-13.19 c-2.64-3.43-6.27-5.55-10.28-5.55c-7.96,0-14.43,8.37-14.52,18.74H56.63c-0.04-5.15-1.66-9.8-4.25-13.19 c-2.64-3.43-6.27-5.55-10.28-5.55c-7.96,0-14.43,8.37-14.52,18.74H0v-38.29h0.76c10.47,0,18.95-6.51,18.95-14.53 c0-4.02-2.12-7.64-5.55-10.28c-3.44-2.63-8.17-4.26-13.41-4.26H0v-20.57h0.76c10.47,0,18.95-6.51,18.95-14.53 c0-4.02-2.12-7.64-5.55-10.28c-3.44-2.63-8.17-4.26-13.41-4.26H0v-20.57h0.76c10.47,0,18.95-6.51,18.95-14.53 c0-4.02-2.12-7.64-5.55-10.28c-3.44-2.63-8.17-4.26-13.41-4.26H0v-20.57h0.76c10.47,0,18.95-6.51,18.95-14.53 c0-4.02-2.12-7.64-5.55-10.28C10.73,74.67,6,73.04,0.76,73.04H0V52.47h0.76c10.47,0,18.95-6.51,18.95-14.53 c0-4.02-2.12-7.64-5.55-10.28C10.73,25.03,6,23.4,0.76,23.4H0V0h17.38c0.04,5.15,1.66,9.8,4.25,13.19 c2.64,3.43,6.27,5.55,10.28,5.55c7.96,0,14.43-8.37,14.52-18.74h20.59c0.04,5.15,1.66,9.8,4.25,13.19 c2.64,3.43,6.27,5.55,10.28,5.55c7.96,0,14.43-8.37,14.52-18.74h20.59c0.04,5.15,1.66,9.8,4.25,13.19 c2.64,3.43,6.27,5.55,10.28,5.55c7.96,0,14.43-8.37,14.52-18.74h20.59c0.04,5.15,1.66,9.8,4.25,13.19 c2.64,3.43,6.27,5.55,10.28,5.55c7.96,0,14.43-8.37,14.52-18.74h20.59c0.04,5.15,1.66,9.8,4.25,13.19 c2.64,3.43,6.27,5.55,10.28,5.55c7.96,0,14.43-8.37,14.52-18.74h20.59c0.04,5.15,1.66,9.8,4.25,13.19 c2.64,3.43,6.27,5.55,10.28,5.55c7.96,0,14.43-8.37,14.52-18.74h20.59c0.04,5.15,1.66,9.8,4.25,13.19 c2.64,3.43,6.27,5.55,10.28,5.55c7.96,0,14.43-8.37,14.52-18.74h20.59c0.04,5.15,1.66,9.8,4.25,13.19 c2.64,3.43,6.27,5.55,10.28,5.55c7.96,0,14.43-8.37,14.52-18.74h20.59c0.04,5.15,1.66,9.8,4.25,13.19 c2.64,3.43,6.27,5.55,10.28,5.55c7.96,0,14.43-8.37,14.52-18.74h27.58v23.4h-0.76c-5.23,0-9.96,1.63-13.41,4.26 C453.5,30.3,451.38,33.93,451.38,37.94z" fill="#FFE299"/></g><g id="change2_1"><path d="M440.25,40.78v207.74c0,6.98-5.67,12.65-12.65,12.65H43.51c-6.98,0-12.65-5.67-12.65-12.65V40.78 c0-6.98,5.67-12.65,12.65-12.65H427.6C434.58,28.13,440.25,33.8,440.25,40.78z" fill="#75BBDB"/></g><g id="change1_2"><path d="M220.17,130.02c0,17.62-14.28,31.91-31.91,31.91c-15.96,0-29.19-11.73-31.54-27.04 c-4.34,1.67-9.05,2.59-13.97,2.59c-21.35,0-38.69-17.16-38.98-38.44c-5.57,1.83-11.51,2.83-17.68,2.83 c-26.93,0-49.46-18.78-55.23-43.95V40.78c0-6.98,5.67-12.65,12.65-12.65h96.62c1.7,5.39,2.62,11.13,2.62,17.08 c0,4.95-0.64,9.75-1.84,14.33c0.61-0.03,1.22-0.05,1.84-0.05c21.53,0,38.99,17.46,38.99,39c0,0.1-0.01,0.19-0.01,0.29 c2.11-0.44,4.3-0.67,6.53-0.67C205.89,98.11,220.17,112.39,220.17,130.02z" fill="#FFE299"/></g><g id="change3_1"><path d="M440.25,190.18v58.34c0,6.98-5.67,12.65-12.65,12.65H43.51c-6.98,0-12.65-5.67-12.65-12.65V52.57 c23.32,0.79,46.54,11.54,66.69,24.28c26.15,16.53,50.52,36.99,79.96,46.48c32.95,10.63,68.74,6.38,102.97,11.62 c40.96,6.27,78.6,25.93,113.94,47.57C402.78,187.63,421.76,188.61,440.25,190.18z" fill="#04987C"/></g><g id="change4_1"><path d="M92.36,217.02h77.11v44.15H92.36V217.02z M157.18,184h-52.53v24.51h52.53V184z M150.27,151.62h-38.71v24.51 h38.71V151.62z M145.7,135.43h-29.56v14.94h29.56V135.43z M143,122.81h-24.16v10.34H143V122.81z M140.09,111.19h-18.34v10.34h18.34 V111.19z M138.21,103.15h-14.47v6.77h14.47V103.15z M136.99,95.11h-12.15v6.77h12.15V95.11z M135.9,87.06h-9.84v6.77h9.84V87.06z M134.89,79.02h-1.09v-5.09h-5.63v5.09h-1.22v6.77h7.94V79.02z M267.48,217.02v44.15h-20.23v-18.6h-29.96v18.6h-7v-18.6v-5.79 v-19.77H267.48z M247.25,220.09h-29.96v16.7h29.96V220.09z M132.17,66.44c0-0.66-0.53-1.2-1.19-1.2c-0.66,0-1.19,0.54-1.19,1.2v1.25 h2.38V66.44z" fill="#F6864B"/></g><g id="change1_3"><path d="M136.46,234.32v14.85c1.99,0.73,3.79,1.85,5.33,3.25h24.04c1.09-1,2.31-1.86,3.64-2.52v13.59H92.36V249.9 c1.33,0.67,2.56,1.52,3.64,2.52h24.04c1.59-1.45,3.46-2.59,5.53-3.32v-14.78c0-2.82-2.29-5.11-5.11-5.11h-28.1v-12.19h33.21h10.89 h33.01v12.19h-27.9C138.75,229.21,136.46,231.5,136.46,234.32z" fill="#FFE299"/></g><g id="change4_2"><path d="M426.26,208.08c0.28,0.97,0.44,2,0.44,3.06c0,0.52-0.05,1.02-0.12,1.52c4.51,1.33,7.81,5.49,7.81,10.43 c0,6.01-4.87,10.88-10.88,10.88c-0.97,0-1.91-0.14-2.8-0.38c2.64,9.01,4.51,18.24,5.56,27.58h-19.01h-16.6H329.5 c1.46-11.35,6.23-22.46,13.93-30.76c-3.55-2.28-6.58-5.27-8.73-9c-3.87,8.13-11.91,14.25-20.85,15.38 c-8.93,1.12-18.44-3-23.37-10.54c-4.94-7.53-4.8-18.17,0.66-25.33c4.24-5.56,10.91-8.63,16.1-13.3 c12.66-11.41,15.07-30.73,26.51-43.35c8.19-9.02,20.47-13.73,32.64-14.21c12.18-0.47,24.26,2.99,35.24,8.27 c8.57,4.13,16.82,9.44,26.22,10.93c4.04,0.64,8.25,0.57,12.4,0.64v56.35C436.02,207.73,431.33,208.45,426.26,208.08z" fill="#F6864B"/></g><g id="change5_1"><path d="M88.21,175.33c1.9-1.72,4.36-3.72,7.49-5.83c7.92-5.34,15.21-5.26,18.59-3.72c0.98,0.45,2.09,0.51,3.1,0.12 c2.29-0.88,6.98-2.16,14.64-2.02c7.66-0.14,12.35,1.14,14.64,2.02c1.01,0.39,2.12,0.33,3.1-0.12c3.38-1.54,10.67-1.62,18.59,3.72 c3.04,2.05,5.46,4,7.34,5.7c2.52,2.27,1.26,6.44-2.1,6.91l-16.16,2.26c-0.18,0.03-0.37,0.04-0.55,0.04h-51.95 c-0.2,0-0.41-0.02-0.61-0.05l-14.04-2.17C87.01,181.68,85.75,177.57,88.21,175.33z M101.18,156.11c0,0,10.34,1.59,10.49,1.59h38.61 c0.13,0,10.56-1.65,10.56-1.65c2.4-0.34,3.3-3.32,1.5-4.95c-1.34-1.21-3.07-2.61-5.25-4.08c-5.67-3.82-10.89-3.77-13.31-2.66 c-0.7,0.32-1.5,0.36-2.22,0.09c-1.64-0.63-5-1.54-10.49-1.44c-5.48-0.1-8.84,0.82-10.49,1.44c-0.72,0.28-1.52,0.23-2.22-0.09 c-2.42-1.11-7.64-1.16-13.31,2.66c-2.24,1.51-4.01,2.94-5.36,4.18C97.91,152.81,98.82,155.75,101.18,156.11z M107.01,139.11 c0,0,9.1,1.27,9.22,1.27h29.46c0.11,0,9.22-1.32,9.22-1.32c1.93-0.27,2.65-2.67,1.21-3.97c-1.08-0.97-2.47-2.09-4.22-3.27 c-4.55-3.07-8.75-3.03-10.69-2.14c-0.56,0.26-1.2,0.29-1.78,0.07c-1.32-0.51-4.02-1.24-8.42-1.16c-4.4-0.08-7.1,0.65-8.42,1.16 c-0.58,0.22-1.22,0.19-1.78-0.07c-1.94-0.89-6.14-0.93-10.69,2.14c-1.8,1.21-3.22,2.36-4.31,3.35 C104.39,136.45,105.12,138.81,107.01,139.11z M111.7,124.76c0,0,7.04,0.99,7.13,0.99l24.16,0.03c0.08,0,7.11-1.06,7.11-1.06 c1.55-0.22,2.13-2.14,0.97-3.18c-0.86-0.78-1.98-1.68-3.38-2.63c-3.65-2.46-7.01-2.43-8.57-1.71c-0.45,0.21-0.97,0.23-1.43,0.06 c-1.06-0.4-3.22-0.99-6.75-0.93c-3.53-0.06-5.69,0.52-6.75,0.93c-0.46,0.18-0.98,0.15-1.43-0.06c-1.56-0.71-4.92-0.75-8.57,1.71 c-1.44,0.97-2.58,1.89-3.45,2.69C109.6,122.64,110.18,124.53,111.7,124.76z M116.45,113.59c0,0,5.3,0.74,5.37,0.74l18.19,0.02 c0.06,0,5.35-0.8,5.35-0.8c1.17-0.16,1.6-1.61,0.73-2.4c-0.65-0.59-1.49-1.26-2.55-1.98c-2.75-1.85-5.28-1.83-6.45-1.29 c-0.34,0.16-0.73,0.18-1.08,0.04c-0.8-0.3-2.42-0.75-5.08-0.7c-2.66-0.05-4.29,0.4-5.08,0.7c-0.35,0.13-0.74,0.11-1.08-0.04 c-1.17-0.54-3.7-0.56-6.45,1.29c-1.09,0.73-1.94,1.43-2.6,2.02C114.87,111.99,115.31,113.41,116.45,113.59z M117.99,104.22 c0,0,5.69,0.67,5.75,0.67l14.47,0.02c0.06,0,5.74-0.72,5.74-0.72c1.05-0.15,1.44-1.44,0.65-2.15c-0.58-0.53-1.34-1.13-2.29-1.77 c-2.47-1.66-4.74-1.64-5.79-1.16c-0.31,0.14-0.65,0.16-0.97,0.04c-0.71-0.27-2.18-0.67-4.56-0.63c-2.39-0.04-3.85,0.35-4.56,0.63 c-0.31,0.12-0.66,0.1-0.97-0.04c-1.05-0.48-3.33-0.51-5.79,1.16c-0.97,0.66-1.74,1.28-2.33,1.82 C116.57,102.78,116.97,104.06,117.99,104.22z M119.8,95.99c0,0,4.9,0.57,4.95,0.57l12.24,0.02c0.05,0,5.16-0.62,5.16-0.62 c0.9-0.13,1.24-1.24,0.56-1.85c-0.5-0.45-1.15-0.98-1.97-1.53c-2.12-1.43-4.08-1.41-4.99-1c-0.26,0.12-0.56,0.14-0.83,0.03 c-0.62-0.24-1.87-0.58-3.93-0.54c-2.05-0.04-3.31,0.31-3.93,0.54c-0.27,0.1-0.57,0.09-0.83-0.03c-0.91-0.41-2.86-0.43-4.99,1 c-0.84,0.57-1.5,1.1-2.01,1.56C118.58,94.75,118.92,95.85,119.8,95.99z M122.01,88.52c0,0,3.93,0.46,3.98,0.46l9.82,0.02 c0.04,0,4.14-0.49,4.14-0.49c0.72-0.1,0.99-1,0.45-1.49c-0.4-0.36-0.92-0.78-1.58-1.23c-1.7-1.15-3.27-1.13-4-0.8 c-0.21,0.1-0.45,0.11-0.67,0.03c-0.49-0.19-1.5-0.46-3.15-0.43c-1.65-0.03-2.66,0.25-3.15,0.43c-0.22,0.08-0.46,0.07-0.67-0.03 c-0.73-0.33-2.3-0.35-4,0.8c-0.67,0.45-1.2,0.88-1.61,1.26C121.03,87.53,121.3,88.41,122.01,88.52z M123.12,81.65 c0,0,3.44,0.4,3.48,0.4l8.61,0.01c0.03,0,3.63-0.43,3.63-0.43c0.63-0.09,0.87-0.87,0.4-1.3c-0.35-0.32-0.81-0.69-1.38-1.07 c-1.49-1.01-2.87-0.99-3.51-0.7c-0.19,0.08-0.4,0.1-0.59,0.02c-0.43-0.17-1.32-0.41-2.76-0.38c-1.44-0.03-2.33,0.21-2.76,0.38 c-0.19,0.07-0.4,0.06-0.59-0.02c-0.64-0.29-2.01-0.31-3.51,0.7c-0.59,0.4-1.06,0.78-1.41,1.1C122.26,80.78,122.5,81.55,123.12,81.65 z M125.24,75.68h5.67h5.67c0.73,0,1.23-0.71,1-1.4c-0.8-2.32-2.83-6.73-6.67-6.73s-5.87,4.41-6.67,6.73 C124.01,74.97,124.52,75.68,125.24,75.68z M239.15,193.54c-0.17,0.01-0.35,0.01-0.52,0c-2.49-0.1-22.24-0.33-38.7,17.02 c-2.96-2.68-6.79-5.77-11.62-9.03c-12.54-8.46-24.08-8.3-29.38-5.83c-1.5,0.7-3.2,0.78-4.74,0.19c-3.59-1.39-11-3.43-23.16-3.21 c-12.16-0.22-19.57,1.82-23.16,3.21c-1.54,0.59-3.24,0.51-4.74-0.19c-5.3-2.47-16.84-2.63-29.38,5.83c-4.98,3.36-8.9,6.54-11.9,9.28 c-3.81,3.47-1.83,9.8,3.28,10.5l14.96,2.04v37.82h4v-37.28l8.28,1.13h36.66v36.15h4v-36.15h36.45l8.49-1.15v37.3h4v-37.84 l11.46-1.55c0.68,1.81,2.59,3.25,5.08,3.25h40.4h40.4c4.14,0,6.72-3.96,4.58-7.06C266.63,193.13,241.95,193.42,239.15,193.54z M370.68,185.37c-1.04,2.52-1.54,5.8-0.46,8.38c0.31,0.75,0.99,1.28,1.85,1.05c0.71-0.19,1.36-1.09,1.05-1.85 c-0.83-1.99-0.49-4.38,0.28-6.35c0.69-1.77,2.06-2.92,3.9-3.34c3.97-0.92,7.49,1.96,9.63,5.01c0.46,0.66,1.31,0.97,2.05,0.54 c0.66-0.38,1.01-1.39,0.54-2.05c-2.98-4.26-7.8-7.77-13.25-6.33C373.66,181.12,371.69,182.91,370.68,185.37z M351.03,212 c-1.04-1.62-3.64-0.11-2.59,1.51c1.79,2.77,5.06,4.27,8.34,3.79c2.76-0.41,4.98-2.12,6.41-4.4c6.1,3.25,14.04-0.29,15.49-7.29 c0.39-1.88-2.5-2.69-2.89-0.8c-1.2,5.75-7.69,8.14-12.39,4.68c-0.87-0.64-1.88,0.1-2.2,0.9C359.52,214.45,353.67,216.08,351.03,212z M366.44,160.97c3.23,1.85,7.2,1.93,10.54,0.3c0.71-0.34,0.95-1.41,0.54-2.05c-0.47-0.73-1.3-0.91-2.05-0.54 c-0.04,0.02-0.36,0.16-0.37,0.17c-0.16,0.06-0.33,0.12-0.49,0.18c-0.33,0.11-0.66,0.19-0.99,0.26c-0.17,0.03-0.33,0.06-0.5,0.09 c-0.05,0-0.37,0.04-0.41,0.04c-0.34,0.02-0.68,0.03-1.03,0.02c-0.2-0.01-0.39-0.02-0.59-0.04c-0.01,0-0.2-0.03-0.26-0.04 c-0.36-0.06-0.72-0.13-1.07-0.23c-0.8-0.23-1.07-0.34-1.8-0.76c-0.68-0.39-1.67-0.18-2.05,0.54 C365.53,159.63,365.72,160.55,366.44,160.97z M368.94,166.61c1.86-0.49,1.07-3.39-0.8-2.89c-5.29,1.4-11.03-0.64-14.4-4.91 c-0.5-0.64-1.6-0.53-2.12,0c-0.63,0.63-0.5,1.48,0,2.12C355.64,166.02,362.71,168.26,368.94,166.61z M362.98,208.41 c3.9-0.88,6.21-5.36,5.58-8.12s-4.29-4.3-8.19-3.42c-3.9,0.88-6.55,3.84-5.93,6.6C355.07,206.24,359.08,209.29,362.98,208.41z M345.58,168.95c4.52,2.98,10.14,3.9,15.42,2.85c1.89-0.38,1.09-3.27-0.8-2.89c-9.02,1.8-17.93-3.83-20.33-12.66 c-0.51-1.86-3.4-1.07-2.89,0.8C338.3,161.9,341.37,166.18,345.58,168.95z M394.52,219.78c-2.19,0-3.96,1.77-3.96,3.96 s1.78,3.96,3.96,3.96s3.96-1.78,3.96-3.96S396.71,219.78,394.52,219.78z M418.56,206.6c-2.19,0-3.96,1.78-3.96,3.96 s1.77,3.96,3.96,3.96s3.96-1.77,3.96-3.96S420.75,206.6,418.56,206.6z M410.17,215.46c-4.89,0-8.86,3.96-8.86,8.86 s3.96,8.86,8.86,8.86s8.86-3.96,8.86-8.86S415.06,215.46,410.17,215.46z M426.03,219.13c-2.19,0-3.96,1.77-3.96,3.96 s1.78,3.96,3.96,3.96s3.96-1.78,3.96-3.96S428.22,219.13,426.03,219.13z M405.96,210.34c0-2.19-1.78-3.96-3.96-3.96 s-3.96,1.77-3.96,3.96s1.77,3.96,3.96,3.96S405.96,212.53,405.96,210.34z M350.64,199.07c0.47,1.87,3.36,1.08,2.89-0.8 c-0.95-3.81-4.12-7.02-7.98-7.9c-2.39-0.54-4.66-0.08-6.45,1.65c-1.49,1.44-2.54,3.42-3.03,5.42c-0.57,2.32-0.48,4.82,0.37,7.06 c0.29,0.76,1.01,1.28,1.85,1.05c0.73-0.2,1.33-1.08,1.05-1.85c-0.72-1.9-0.82-3.93-0.25-5.89c0.49-1.69,1.61-3.81,3.34-4.49 c1.71-0.68,3.94,0.28,5.31,1.32C349.18,195.74,350.2,197.31,350.64,199.07z M395.23,231.89c-4.76,0.77-8.05-4.11-8.24-8.33 c-0.18-3.96,2.71-8.63,7.24-7.33c0.86,0.25,1.49-0.24,1.74-0.89c0.51-0.53,0.69-1.4,0.05-2.09c-1.45-1.58-1.74-3.95-1.37-6 c0.37-2.04,1.37-4.31,3.39-5.17c1.2-0.51,2.61-0.5,3.89-0.42c1.2,0.08,2.39,0.35,3.41,1c1.75,1.1,2.82,3.1,2.83,5.15 c0.01,0.79,0.51,1.25,1.11,1.4c0.87,0.54,2.34,0.13,2.38-1.21c0.05-1.68,0.08-3.52,1.5-4.66c1.27-1.03,2.97-1.5,4.59-1.47 c3.14,0.04,5.91,2.22,6.83,5.2c0.57,1.84,3.47,1.05,2.89-0.8c-1.34-4.34-5.38-7.47-9.97-7.4c-2.33,0.03-4.67,0.83-6.45,2.35 c-0.58,0.5-1.01,1.07-1.34,1.69c-0.33-0.52-0.72-1.01-1.15-1.46c-1.56-1.61-3.6-2.41-5.76-2.68c-6.03-11.66-2.45-26.83-12.18-36.86 c-1.35-1.39-3.47,0.73-2.12,2.12c4.37,4.5,5.89,10.83,6.87,16.84c0.98,6.06,1.61,12.23,4.11,17.86c-1.95,0.22-3.79,0.92-5.17,2.44 c-1.65,1.8-2.47,4.16-2.72,6.56c-0.19,1.83,0.08,3.7,0.83,5.36c-1.98,0.12-3.89,0.95-5.37,2.33c-2.21,2.05-3.17,5.21-3.04,8.16 c0.09,2.08,0.7,4.12,1.7,5.88c-6.29,2.58-12.96,4.19-19.75,4.62c-6.15,0.39-13.3,0.43-18.44-3.47c-1.54-1.17-3.03,1.44-1.51,2.59 c5.42,4.12,12.99,4.27,19.5,3.91c7.43-0.41,14.75-2.1,21.61-5c0.15-0.06,0.28-0.14,0.4-0.23c1.62,1.68,3.73,2.81,6.16,3.01 c-1.98,7.45-2.75,15.36-3.11,22.99c-0.09,1.93,2.91,1.93,3,0c0.38-8.04,1.22-16.38,3.53-24.13 C397.43,232.54,396.3,231.72,395.23,231.89z M331.83,205.49c-0.75-5.4-1.33-10.82-1.93-16.23c-0.21-1.9-3.21-1.92-3,0 c0.62,5.68,1.25,11.37,2.04,17.03c0.72,5.22,1.53,10.45,3.95,15.2c0.88,1.72,3.47,0.2,2.59-1.51 C333.19,215.49,332.51,210.41,331.83,205.49z" fill="#562AC4"/></g><g id="change1_4"><path d="M248.34,190.22c-0.04,0.85-0.07,1.7-0.12,2.55c-0.06,1.21-1.07,2.15-2.28,2.14l-14.2-0.09 c-1.13-0.01-2.11-0.84-2.23-1.96c-0.11-0.99-0.13-2-0.07-3c0.11-1.73,0.52-3.54,2-4.63c0.73-0.54,1.69-0.75,2.55-0.46 c1.88,0.64,2.1,2.88,2.09,4.73c-0.03-1.13,0.06-2.31,0.6-3.3c0.54-0.99,1.63-1.76,2.75-1.62c0.95,0.12,1.74,0.86,2.11,1.74 c0.24,0.58,0.31,1.21,0.28,1.85c0.26-1.3,1.02-2.5,2.13-3.23c0.46-0.31,1-0.54,1.55-0.52c0.4,0.02,0.79,0.17,1.13,0.39 C248.31,185.87,248.43,188.23,248.34,190.22z M329.98,88.69c0.08,6.45-9.92,6.43-10,0c-0.03-2.61-0.14-6.23-0.58-10.07 c-8.27,0.01-16.53-0.19-24.79-0.66c-0.53-0.03-1.09-0.05-1.65-0.09c-0.36,4.63-0.32,9.04-0.46,11.94c-0.3,6.42-10.3,6.43-10,0 c0.72-15.19,1.56-42.06,23.1-41.9C325.84,48.06,329.79,73.31,329.98,88.69z M317.32,68.6c-2-5.93-5.52-10.64-11.7-10.7 c-6.2-0.06-9.4,4.47-11.07,10.31c3.62,0.56,7.98,0.13,11.37,0.23C309.72,68.55,313.52,68.59,317.32,68.6z M376.54,83.3 c-8.53-0.02-17.05-0.04-25.58-0.06c-0.4-10.78-0.66-21.57-0.76-32.35c-0.06-6.43-10.06-6.45-10,0c0.12,12.6,0.44,25.2,0.96,37.79 c0.17,3.95,4.03,5.48,6.9,4.56c9.49,0.02,18.98,0.04,28.47,0.06C382.97,93.31,382.98,83.31,376.54,83.3z M417.4,83.25 c-2.46,0.13-4.91,0.22-7.37,0.3c-0.46-9.79-0.92-19.57-1.39-29.36c1.82-0.12,3.65-0.23,5.47-0.35c6.39-0.44,6.43-10.44,0-10 c-6.74,0.46-13.49,0.87-20.24,1.21c-6.4,0.33-6.44,10.33,0,10c1.6-0.08,3.2-0.18,4.8-0.27c0.46,9.66,0.91,19.31,1.37,28.97 c-1.6,0.01-3.21,0.02-4.81,0.01c-6.44-0.03-6.44,9.97,0,10c7.4,0.03,14.79-0.14,22.17-0.52C423.8,92.92,423.84,82.92,417.4,83.25z M274.31,81.03c-0.21,16.24-26.48,14.73-37.18,15.71c-0.07,0.01-0.14,0.01-0.21,0.01c-2.88,0.98-6.83-0.54-7-4.53 c-0.59-13.19-1.69-26.34-2.65-39.5c-0.18-2.49,1.21-4,3.01-4.56c0.21-0.1,0.43-0.19,0.66-0.26c11.14-3.54,36.93-5.33,39.58,10.7 c0.75,4.57-0.76,7.84-3.55,10.21C271.41,71.21,274.39,75.08,274.31,81.03z M237.55,56.55c0.22,2.99,0.44,5.98,0.66,8.97 c6.96-0.26,22.24-0.78,22.42-5.52c0.16-4.06-10.31-4.09-12.66-4.16C244.42,55.73,240.97,55.89,237.55,56.55z M252.51,75.74 c-4.62-0.2-9.07,0.03-13.48,1.24c0.21,3.19,0.41,6.37,0.58,9.56c3.54-0.3,7.08-0.55,10.62-0.87c3.51-0.31,10.85-0.33,13.28-3.58 C267.32,76.98,255.1,75.85,252.51,75.74z" fill="#FFE299"/></g><g id="change2_2"><path d="M184.17,205.33c0.62,0.56,0.52,1.55,0,2.12c-0.57,0.62-1.54,0.52-2.12,0c-1.31-1.17-2.56-2.09-4.14-3.03 c-1.56-0.93-3.04-1.62-4.63-2.19c-0.79-0.28-1.24-1-1.05-1.85c0.17-0.75,1.11-1.31,1.85-1.05 C177.81,200.67,181.21,202.69,184.17,205.33z M261.7,202.85c-2.36-1.83-4.95-3.25-7.78-4.22c-0.74-0.25-1.67,0.29-1.85,1.05 c-0.19,0.83,0.25,1.57,1.05,1.85c0.32,0.11,0.63,0.22,0.94,0.34c0.16,0.06,0.31,0.12,0.46,0.18c0.02,0.01,0.03,0.01,0.05,0.02 c0.06,0.02,0.11,0.05,0.17,0.07c0.59,0.26,1.17,0.54,1.74,0.85c0.57,0.31,1.12,0.63,1.67,0.98c0.28,0.18,0.56,0.37,0.83,0.56 c0.14,0.1,0.27,0.19,0.41,0.29c0.05,0.04,0.47,0.36,0.19,0.14c0.33,0.25,0.62,0.44,1.06,0.44c0.37,0,0.81-0.16,1.06-0.44 C262.19,204.44,262.36,203.36,261.7,202.85z M166.6,172.49c0.64,0.54,0.51,1.56,0,2.12c-0.58,0.63-1.52,0.51-2.12,0 c-0.28-0.24-0.57-0.48-0.86-0.71c-0.01-0.01,0,0-0.01-0.01c-0.07-0.05-0.14-0.11-0.21-0.16c-0.14-0.1-0.28-0.21-0.43-0.31 c-0.57-0.41-1.16-0.79-1.77-1.15c-0.62-0.37-1.26-0.71-1.92-1.03c-0.32-0.15-0.64-0.3-0.96-0.44c-0.01-0.01-0.02-0.01-0.03-0.01 c-0.07-0.03-0.15-0.06-0.22-0.09c-0.16-0.07-0.33-0.13-0.49-0.19c-0.79-0.3-1.24-0.99-1.05-1.85c0.17-0.74,1.11-1.33,1.85-1.05 C161.39,168.78,164.14,170.4,166.6,172.49z M158.28,170.8C158.21,170.77,158.2,170.76,158.28,170.8L158.28,170.8z M151.64,146.57 c-0.78-0.39-1.6-0.71-2.44-0.94c-0.76-0.2-1.66,0.25-1.85,1.05c-0.18,0.79,0.24,1.63,1.05,1.85c0.43,0.11,0.84,0.26,1.25,0.43 c0.79,0.35,1.55,0.79,2.24,1.32c-0.06-0.04-0.12-0.09-0.17-0.13c0.32,0.25,0.62,0.42,1.04,0.42c0.37,0,0.81-0.16,1.06-0.44 c0.26-0.29,0.46-0.66,0.44-1.06c-0.02-0.37-0.13-0.82-0.44-1.06C153.13,147.46,152.42,146.97,151.64,146.57z M146.95,131.99 c-0.87-0.78-1.9-1.36-3.04-1.65c-0.38-0.1-0.82-0.05-1.16,0.15c-0.31,0.18-0.61,0.54-0.69,0.9c-0.09,0.38-0.07,0.82,0.15,1.16 c0.21,0.33,0.51,0.59,0.9,0.69c0.21,0.06,0.42,0.13,0.62,0.21c0.34,0.16,0.67,0.35,0.98,0.58c0.04,0.03,0.08,0.06,0.12,0.1 c0.3,0.27,0.65,0.44,1.06,0.44c0.37,0,0.81-0.16,1.06-0.44c0.26-0.29,0.46-0.66,0.44-1.06 C147.37,132.67,147.24,132.25,146.95,131.99z M143.16,122.23c0.2,0.04,0.4,0.04,0.6-0.03c0.2-0.05,0.37-0.14,0.51-0.27 c0.16-0.11,0.29-0.25,0.39-0.42c0.05-0.12,0.1-0.24,0.15-0.36c0.07-0.27,0.07-0.53,0-0.8c-0.05-0.12-0.1-0.24-0.15-0.36 c-0.13-0.23-0.31-0.4-0.54-0.54c-0.42-0.22-0.85-0.43-1.27-0.65c-0.17-0.11-0.36-0.17-0.56-0.18c-0.2-0.04-0.4-0.04-0.6,0.03 c-0.2,0.05-0.37,0.14-0.51,0.27c-0.16,0.11-0.29,0.25-0.39,0.42c-0.05,0.12-0.1,0.24-0.15,0.36c-0.07,0.27-0.07,0.53,0,0.8 c0.05,0.12,0.1,0.24,0.15,0.36c0.13,0.23,0.31,0.4,0.54,0.54c0.42,0.22,0.85,0.43,1.27,0.65 C142.78,122.17,142.96,122.23,143.16,122.23z M139.27,109.31c-1.93,0-1.93,3,0,3C141.2,112.31,141.21,109.31,139.27,109.31z M138.38,99.86c-1.93,0-1.93,3,0,3C140.31,102.86,140.31,99.86,138.38,99.86z M135.57,92.46c-1.93,0-1.93,3,0,3 C137.5,95.46,137.51,92.46,135.57,92.46z M134.55,85.05c-1.93,0-1.93,3,0,3C136.48,88.05,136.48,85.05,134.55,85.05z M134.04,78.63 c-1.93,0-1.93,3,0,3C135.97,81.63,135.97,78.63,134.04,78.63z M133.38,72.17c0.08-0.1,0.16-0.2,0.23-0.3 c0.14-0.23,0.2-0.49,0.2-0.76c-0.02-0.13-0.04-0.27-0.05-0.4c-0.07-0.25-0.2-0.47-0.39-0.66c-0.04-0.04-0.09-0.09-0.13-0.13 c-0.14-0.15-0.3-0.25-0.48-0.31c-0.18-0.09-0.37-0.14-0.58-0.13c-0.21-0.01-0.4,0.04-0.58,0.13c-0.19,0.06-0.35,0.16-0.48,0.31 c-0.08,0.1-0.16,0.2-0.23,0.3c-0.14,0.23-0.2,0.49-0.2,0.76c0.02,0.13,0.04,0.27,0.05,0.4c0.07,0.25,0.2,0.47,0.39,0.66 c0.04,0.04,0.09,0.09,0.13,0.13c0.14,0.15,0.3,0.25,0.48,0.31c0.18,0.09,0.37,0.14,0.58,0.13c0.21,0.01,0.4-0.04,0.58-0.13 C133.09,72.42,133.25,72.31,133.38,72.17z" fill="#75BBDB"/></g></svg>