<?xml version="1.0" encoding="UTF-8"?><!DOCTYPE svg PUBLIC "-//W3C//DTD SVG 1.0//EN" "http://www.w3.org/TR/2001/REC-SVG-20010904/DTD/svg10.dtd" []><svg xmlns="http://www.w3.org/2000/svg" xmlns:xlink="http://www.w3.org/1999/xlink" data-name="Layer 1" height="500.2" preserveAspectRatio="xMidYMid meet" version="1.0" viewBox="-0.0 -0.0 400.7 500.2" width="400.7" zoomAndPan="magnify"><g id="change1_1"><path d="m81.949,51.895c-.164.621-.526,1.235-.5,1.922.035.646-.754,1.396-.643,2.106.145.681.546,1.31.706,1.983.081.324.022.717-.018,1.067-.035.327-.07.659.026.95.184.574.767.999.952,1.573.2.546-.538,1.476-.312,2.043.215.558.539,1.086.79,1.632.241.547,1.987.374,2.231.895.247.512-.031,1.293.232,1.813.264.509.447,1.068.725,1.575.269.503.952.753,1.297,1.212.337.456.2,1.21.546,1.669.346.446.326,1.106.614,1.592.284.481,1.214.588,1.46,1.09.243.5,1.199.598,1.445,1.098.259.516.254,1.032.609,1.602.383.607-.39,2.163.107,2.798.468.599.931,1.128,1.367,1.599.439.473,1.627-.01,2.025.329.416.355.63.727.942,1.156.325.438.854.691,1.182,1.131.329.444-.599,2.116-.21,2.496.387.376,1.647-.13,2.162.13.507.255.659.968,1.168,1.23.512.264,1.156.316,1.549.708.389.388.686.88,1.101,1.247.413.366,1.395.141,1.809.508.414.366.021,1.558.416,1.949.392.39,1.055.5,1.421.92.364.418.279,1.277.651,1.697.372.419,1.501.095,1.905.482.403.386,1.351.228,1.735.634.384.405.626.955,1.012,1.361.389.403.889.67,1.3,1.051.406.38-.169,1.878.281,2.228.449.349,1.896-.487,2.346-.152.451.337.79.839,1.223,1.202.429.363-.235,1.883.092,2.392.324.5.888.78,1.214,1.281.342.499,1.286.321,1.742.669.456.345.726.931,1.208,1.247.478.314.278,1.598.765,1.918.491.311,1.068.458,1.55.771.481.323,1.974-.794,2.429-.462.456.332.001,1.979.469,2.319.467.34,1.418-.046,1.891.27.471.324.723.989,1.212,1.283.483.302.754.941,1.239,1.244.487.304,1.616-.459,2.099-.17.486.291.671,1.11,1.216,1.303.539.202,1.094.368,1.642.54.556.168.644,1.161,1.145,1.433.503.272,1.936-1.157,2.412-.868.481.291.832.818,1.312,1.109.488.278.983.514,1.483.763.503.248.786.911,1.338,1.058.551.147.68,1.339,1.232,1.485.561.145,1.438-.546,1.945-.315.51.233,1.311-.085,1.778.222.47.309.618,1.226,1.087,1.535.475.313,1.131.231,1.637.461.509.231.643,1.243,1.12,1.536.479.3,1.2.118,1.672.416.48.302,1.306-.217,1.816,0,.515.22.77.977,1.349,1.036.579.062,1.4-.702,1.974-.66.587.045,1.225.258,1.736.465.517.209.606,1.454,1.043,1.849l1.323,1.153c.442.408.939.631,1.454.834.521.203,1.025.418,1.598.468.576.05.982.707,1.551.752.584.045,1.363-.588,1.875-.389.519.2.766,1.08,1.276,1.276.52.199,1,.484,1.51.679.416.159,1.16-.526,1.701-.708.131.337.213.642.103.814-.292.458-.86.719-1.15,1.179-.293.458-.282,1.145-.588,1.607-.308.456-1.54.219-1.852.672-.31.444-.206,1.198-.485,1.683-.274.473-.037,1.334-.331,1.814-.285.474-1.09.578-1.418,1.033-.317.444-1.158.491-1.45.975-.284.471.08,1.446-.216,1.932-.287.473-1.327.364-1.664.818-.326.439-.53.998-.837,1.476-.297.464-.76.809-1.068,1.287-.3.465.225,1.596-.11,2.053-.324.441-.538,1.032-.937,1.434-.387.388-.7.852-1.088,1.261-.38.399-.811.714-1.143,1.175-.321.439-1.945-.115-2.276.353-.319.453-.047,1.362-.373,1.824-.297.429-.048,1.605-.273,2.135.053-.038.128-.08.156-.111.404-.436.325-1.244.729-1.626.437-.411.783-.869,1.19-1.245.439-.406.757-.879,1.151-1.268.42-.421.734-.918,1.147-1.292.436-.399,1.055-.606,1.475-.978.439-.387,1.612-.084,2.01-.48.407-.403.582-1.002,1.014-1.383.427-.377,1.039-.582,1.475-.974.42-.379.663-.951,1.076-1.375.388-.398.261-1.276.658-1.721.371-.414.301-1.233.7-1.679.371-.412,1.009-.632,1.416-1.076.372-.41,1.453-.266,1.808-.757.325-.459.527-1.039.882-1.529.331-.459-.188-1.62.191-2.085.388-.465,1.297-.495,1.613-.986.335-.508,1.315-.561,1.616-1.067.151-.256.048-.683-.061-1.108.591-.233,1.51-1.314,1.936-1.151.522.199.481,1.743.961,2.001.494.266,1.542-.719,2.016-.453.492.274.85.746,1.352.939.519.194.931.648,1.401.885.495.25,1.265-.145,1.731.097.494.255.494,1.573.974,1.762.515.2.968.515,1.462.676.526.171,1.267-.26,1.762-.103.528.167.616,1.358,1.093,1.541.52.195,1.07.294,1.557.455.525.172,1.417-.628,1.909-.474.534.167.668,1.222,1.142,1.41.516.204,1.189.003,1.682.158.535.161.84.81,1.331.966.519.169,1.241-.191,1.719.003.503.204,1.361-.249,1.796.067.442.321.469,1.356.905,1.671.432.318,1.183-.028,1.684.179.479.201.715.935,1.278,1.02.529.08,1.324-.452,1.889-.35.532.096.978.511,1.496.726.467.203.849.608,1.385.77.496.15.928.476,1.456.662.49.168,1.339-.24,1.843.017.463.244.153,1.718.605,2.011.421.269,1.971-1.047,2.445-.728.446.298-.286,2.238.168,2.52.293.19,1.05-.229,1.652-.409-.02-.559.114-1.29-.164-1.55-.421-.382-.726-.859-1.107-1.243-.402-.412-.666-.969-1.053-1.35-.413-.408-.978-.607-1.398-.936-.46-.353-1.183-.269-1.613-.581-.459-.34-.606-1.141-1.048-1.451-.469-.328-.743-.942-1.191-1.243-.479-.315-1.464.311-1.942.083-.506-.239-1.233-.002-1.716-.221-.501-.228-.49-1.428-.948-1.716-.466-.29-1.143-.19-1.554-.575-.407-.377-.979-.499-1.4-.877-.412-.37-.146-2.03-.643-2.307-.468-.261-1.46.503-1.987.301-.497-.185-1.068-.244-1.601-.431-.497-.181-.98-.45-1.487-.704-.468-.235-.493-1.409-.983-1.701-.456-.272-1.355.319-1.846.035-.458-.266-.482-1.545-.997-1.78-.477-.222-1.534.88-2.09.759-.521-.113-.679-1.305-1.23-1.438-.526-.127-1.142.068-1.656-.167-.48-.224-1.342.315-1.794-.044-.427-.34-.9-.616-1.356-.96-.437-.33-.503-1.465-1.016-1.69-.476-.206-1.146-.003-1.707-.123-.519-.113-1.376.718-1.926.592-.304-.069-.545-.358-.795-.633.366-.359.842-.64,1.112-1.036.355-.524,1.253-.706,1.593-1.205.343-.549.512-1.184.805-1.711.311-.574-.55-1.65-.403-2.233.169-.608,1.395-.822,1.549-1.421.173-.636.416-1.087.653-1.615.241-.542-.135-1.326.266-1.788.402-.463,1.51-.545,1.91-1.01.401-.464-.565-1.578-.331-2.124.225-.525.927-.86,1.055-1.452.121-.562.117-1.182.253-1.773.13-.563,1.2-.78,1.432-1.343.215-.522-.23-1.328.075-1.857.285-.494.089-1.223.382-1.757.275-.501.791-.903,1.017-1.467.21-.525.826-.911,1.042-1.475.202-.529,1.236-.757,1.452-1.321.202-.531-1.019-1.632-.799-2.194.207-.527,1.081-.828,1.217-1.42.128-.558.015-1.214.158-1.801.136-.562-.344-1.375-.127-1.938.202-.513.441-1.058.734-1.538.291-.477,1.211-.669,1.502-1.149.291-.481.212-1.105.413-1.623.2-.514.384-1.016.506-1.563.121-.543.089-1.138.211-1.683.122-.545,1.729-.553,1.929-1.072.199-.516.237-1.037.531-1.519l.878-1.441c.295-.482.328-1.12.527-1.641.197-.516.645-1.006.736-1.565.09-.554-1.396-1.58-1.305-2.135.092-.558,1.41-.713,1.607-1.235.194-.515-.052-1.196.146-1.712.198-.516-.523-1.377-.324-1.895.199-.517.784-.892.978-1.414.193-.518,1.769-.488,2.023-.987l.779-1.484c.254-.498-.123-1.266.068-1.789.191-.519-.158-1.22-.086-1.783.072-.559-.127-1.197-.055-1.758.073-.565.964-.872,1.153-1.398.189-.521.786-.818,1.137-1.283.347-.46-.129-1.322.218-1.784.349-.465,1.712-.543,1.898-1.069.186-.522-.869-1.457-.802-2.023l.241-1.676c.067-.567-.453-1.362-.269-1.889.183-.522,1.137-.774,1.306-1.303.168-.527,1.399-.698,1.568-1.228.169-.529-.01-1.168.173-1.693.181-.524.189-1.076.49-1.56.298-.481-.346-1.371-.048-1.853.301-.486,1.462-.626,1.645-1.155.252-.748.233-1.589.375-2.331.15-.771-.733-1.599-.694-2.275.039-.664,1.714-1.408,1.658-2.165-.05-.729-.03-1.605-.319-2.279-.281-.657-1.191-1.127-1.497-1.663-.296-.488-1.458-.71-1.593-1.249-.134-.531,1.166-1.432,1.032-1.974-.135-.542-1.439-.79-1.578-1.334-.144-.55-.958-.912-1.113-1.46-.148-.542,1.732-1.563,1.732-2.186.004-.615-1.679-.915-1.692-1.517-.023-.612,1.261-1.613,1.036-2.205-.206-.577-.166-1.308-.45-1.88-.289-.574-1.443-.723-1.747-1.267-.324-.558-1.673-.561-1.974-1.093-.275-.529.871-2.014.438-2.541-.446-.505-.854-1.009-1.344-1.502-.495-.513-1.855-.189-2.27-.663-.425-.478-.915-.868-1.41-1.255-.493-.397-1.227-.478-1.724-.823-.499-.335-.585-1.254-1.074-1.618-.481-.375-1.118-.522-1.584-.893-.471-.36-1.224-.312-1.693-.646-.463-.341.092-2.309-.42-2.623-.502-.299-1.227-.228-1.724-.506-.502-.285-1.06-.442-1.556-.717-.491-.269-1.329.083-1.809-.184-.339-.198-.989-1.236-1.756-1.657-.795-.448-1.787-.118-2.449-.374-.673-.262-1.21-1.417-1.833-1.456-.614-.038-1.129,1.616-1.647,1.744-.521.131-.915-.798-1.429-.707-.507.092-1.126.694-1.651.6-.524-.096-.955-.737-1.486-.912-.535-.176-1.158-.026-1.721-.198-.57-.172-1.199.066-1.805-.015-.595-.077-1.093-1.622-1.796-1.65-.693-.026-1.395.492-2.099.538-.73.043-1.313,1.299-1.972,1.418-.712.112-1.379-.288-2.024-.167-.609.122-1.452-.576-2.077-.41-.612.167-1.319.125-1.906.357-.592.221-1.291.135-1.879.366-.579.241-.845,1.16-1.391,1.41-.554.246-1.251.207-1.785.485-.534.279-.816.99-1.354,1.226-.536.238-.963.687-1.485.93-.529.242-1.031.502-1.522.794-.485.292-.611,1.097-1.037,1.463-.387.327-1.671-.1-2.173.341-.518.43-1.152.734-1.704,1.176-.569.438-.316,1.756-.805,2.21-.515.451-.965.989-1.427,1.511-.456.513-1.418.719-1.826,1.332-.366.611-1.188.92-1.605,1.551-.354.624-.807,1.223-1.129,1.87-.291.659,1.005,1.866.867,2.466-.149.61-1.095,1.085-1.146,1.716-.065.628-.598,1.205-.623,1.815-.039.626,1.482,1.42,1.419,1.985-.072.572-1.409,1.018-1.434,1.588-.029.572-.75,1.092-.771,1.645-.023.558.492,1.153.439,1.689-.054.538.675,1.162.659,1.696-.015.539-.623,1.026-.642,1.562-.017.535.912,1.192.844,1.747-.067.552-1.414.959-1.489,1.547-.076.58-.008,1.19-.066,1.8-.061.615,1.146,1.306,1.13,1.912-.019.614.012,1.237.047,1.872.034.635.091,1.281.183,1.932.092.642-.391,1.428-.229,2.122.086.341-.025.733-.138,1.143-.051.149-.097.293-.134.435-.285-.013-.56-.028-.78-.115-.545-.225-1.722.553-2.189.234-.467-.318-1.118-.478-1.522-.886-.404-.407-.865-.742-1.272-1.145-.41-.407-.387-1.353-.869-1.657-.482-.305-1.201-.227-1.683-.524-.482-.294-.422-1.474-.909-1.771-.485-.299-1.425.165-1.906-.126-.486-.291-.913-.622-1.455-.814-.54-.193-.95-.65-1.49-.839-.546-.187-.992-.571-1.486-.848-.492-.28-1.073-.421-1.513-.792-.441-.37-1.214-.216-1.657-.575-.448-.365-.886-.623-1.387-.883-.503-.256-.636-1.251-1.21-1.373-.57-.124-1.467.6-2.032.488-.574-.112-1.075-.544-1.584-.784-.507-.243-.407-1.609-.845-2.01-.438-.393-1.371.026-1.805-.365-.441-.4-1.035-.367-1.549-.6-.515-.231-1.044-.254-1.612-.357-.582-.105-.496-1.966-1.149-2.079-.772-.131-1.87,1.165-2.493.963-.322-.105-.661-.146-.995-.183-.342-.002-.682.016-1.01-.034-.639-.094-1.18-1.273-1.888-1.362-.697-.019-1.387.539-2.048.542-.682-.009-1.34.357-1.982.425-.643.036-1.434-.855-2.135-.798-.691.091-1.142,1.064-1.764,1.242-.626.185-1.445-.129-2.051.15-.619.255-1.095.815-1.695,1.07-.598.26-1.344.256-1.923.584-.569.356-.716,1.305-1.182,1.736-.478.402-2.022-.468-2.55-.017-.552.431.355,2.4-.094,2.806-.432.437-2.064-.234-2.49.309-.422.532-.574,1.27-.975,1.791-.43.51-.372,1.36-.721,1.906-.337.555-1.45.71-1.713,1.356-.25.661.379,1.66.167,2.267-.248.611-.095,1.374-.275,1.996-.165.595-1.89.797-2.096,1.51-.16.719,1.725,1.771,1.599,2.382Zm6.981.669c.019-.393-.072-.794-.026-1.198.051-.398.139-.778.375-1.137.268-.354.833-.537,1.169-.832.294-.285-.959-1.402-.766-1.831.194-.419,1.839.06,2.088-.239.285-.301.572-.58.916-.838.316-.274.672-.54.924-.857.228-.324-.088-1.24.092-1.698.204-.421.669-.619.925-.995.239-.407.439-.798.801-1.076.331-.295.236-1.393.742-1.494.5-.078,1.101.114,1.578.083.493-.018,1.018.154,1.41-.022.379-.197.499-1.009.904-1.227.409-.227,1.194.755,1.552.546.371-.157.616-1.05,1.059-1.12.214-.032.426-.172.645-.285.217-.08.441-.148.661-.095.446.106.803,1.018,1.181,1.109.38.167.725.482,1.095.532.185.026.363.097.541.159.17.09.329.2.508.234.348.073.87-.309,1.266-.239.446.116.706,1.016,1.184,1.218.492.212.865.636,1.337.893.47.257,1.166.05,1.637.315.47.262.76.937,1.246,1.163.484.228,1.166.178,1.712.287.541.106.984.472,1.523.589.539.118,1.574-.931,2.059-.681.48.246,1.289.012,1.716.371.422.359.498,1.274.914,1.633.423.362.213,1.844.683,2.102.465.255,1.927-1.334,2.416-1.093.486.239.626,1.118,1.11,1.356.484.238.822.743,1.288,1.011.465.267,1.19.052,1.687.273.496.22.712.953,1.204,1.177.493.225,1.116.24,1.576.525.459.282.806.755,1.198,1.141.389.382,1.281.102,1.666.498.389.398-.235,2.191.205,2.489.439.299,1.462-.28,2.004-.115.537.161.725.951,1.257,1.119.548.173,1.621-.532,2.006-.22.4.312.084,1.468.411,1.815.326.369.513.899.827,1.275.309.378,1.33.055,1.689.437.357.36,1.245.161,1.656.493.413.322.349,1.143.746,1.484.391.353,1.247.306,1.596.72l1.035,1.227c.358.399.355,1.109.703,1.525.35.416-.052,1.442.287,1.859.34.423,1.131.51,1.368,1.021.236.51.711.854.952,1.372.242.521-.498,1.776-.15,2.216.342.435,2.01-.179,2.373.249.364.429.346,1.175.712,1.606.376.431,1.068.606,1.434,1.043.368.435-.049,1.567.422,1.944.46.376,1.159.506,1.613.875.445.373.239,1.391.655,1.827.309.316,1.144.098,1.735.116.231.316.475.626.712.916.142.17.455.199.803.198l.288.277c.419.408.007,1.805.51,2.199.477.404.945.8,1.422,1.205.407.324,1.556-.38,2.241-.494.138.534.054,1.332.45,1.524.087.042.202.045.326.035.052.359.142.67.365.787.564.32,1.324.269,1.854.621.142.091.205.191.477.386.035.036.161.109.264.169.11.06.15.11.542.242.182.056.254.089.533.144.404.064.85.074,1.285.015.217-.029.432-.074.636-.132l.3-.097c.021-.004.343-.128.654-.312.608-.344,1.292-.997,1.682-1.788.404-.76.498-1.653.476-2.1-.008-.353-.06-.726-.159-1.086-.082-.332-.278-.772-.376-.949l-.111-.215-.538-.894-.209-.37c-.121-.21-.216-.363-.336-.49-.469-.498-1.469-.217-1.891-.586-.418-.365-1.193-.247-1.629-.555-.356-.251-.74-.452-1.084-.674.015-.249-.003-.45-.107-.523-.053-.043-.137-.048-.21-.067.113-.492.588-1.186.292-1.543-.347-.414-.839-.699-1.161-1.135-.315-.439-.339-1.105-.652-1.542-.316-.434-1.822.069-2.16-.357-.332-.425-.726-.799-1.055-1.225-.334-.425.08-1.421-.25-1.84-.328-.423-.119-1.238-.434-1.663-.316-.422-1.732-.092-1.982-.572-.249-.48.67-1.696.44-2.167-.231-.471-1.686-.164-1.984-.608-.295-.442.041-1.286-.297-1.69-.34-.402-1.506-.254-1.833-.678-.328-.425-.059-1.243-.316-1.699-.257-.456-.86-.728-1.104-1.197-.245-.468-.274-1.045-.505-1.515-.231-.469-1.021-.653-1.247-1.132-.231-.481,1.099-1.702.87-2.156-.224-.46-.971-.684-1.2-1.152-.236-.464-.177-1.048-.376-1.523-.192-.473-1.657-.499-1.772-1.023-.122-.519.736-1.345.62-1.847-.109-.509-.215-1.019-.379-1.508-.081-.245-.096-.517-.125-.783.005-.203-.002-.38-.104-.542-.187-.315-1.262-.476-1.435-.902-.166-.419-.365-.89-.383-1.361-.019-.468.033-.992.184-1.476.146-.489,1.869-.765,2.034-1.221.169-.462-.919-1.134-.862-1.659.054-.516.044-1.027-.049-1.588-.094-.553.392-1.114.299-1.695-.092-.583.524-1.056.587-1.626.064-.574-.664-1.205-.631-1.764.033-.563-.302-1.138-.272-1.686.029-.551-.902-1.188-.846-1.727.052-.544.401-1.059.499-1.578.093-.535,1.991-.759,2.099-1.232.099-.492-.464-1.095-.37-1.574.081-.493.664-.843.725-1.296.048-.465-.374-1.019-.29-1.482.086-.433-.89-1.293-.714-1.759.215-.449,2.102.093,2.392-.167.351-.242.795-.387,1.124-.588.347-.151-.861-1.735-.514-2.057.326-.298.793-.394,1.129-.672.336-.292.883-.273,1.246-.526.382-.285,1.167.267,1.604-.006.467-.287.16-1.844.63-2.116.47-.269,1.829.982,2.282.731.456-.258.26-1.652.72-1.914.457-.253,1.011-.32,1.407-.663.401-.352,1.332.206,1.718-.117.388-.327.012-2.166.492-2.381.47-.205.992-.4,1.5-.484.515-.101,1.465,1.356,1.925,1.296.458-.041.428-1.941.918-2.067.466-.131,1.335,1.25,1.668,1.217.329-.034.659-.299,1.048-.288.379.004.781-.006,1.208.018.425.016.845.497,1.304.491.462-.008.96-.065,1.468-.043.51.022.994.183,1.528.283.534.1,1.15-.055,1.726.004.581.059,1.246-.395,1.847-.35.605.041,1.361-.854,1.969-.812.598.046,1.101,1.635,1.622,1.659.51.023,1.085-1.397,1.551-1.346.48.054.567,1.588.757,1.65.112.036.326-.251.58-.499.124-.122.251-.232.369-.301.151-.046.327-.018.427.072.425.375-.03,2.077.381,2.447.414.375.882.755,1.339,1.018.461.261.971.382,1.385.695.41.316.516,1.087.896,1.4.384.308,1.678-.707,2.099-.424.405.284.891.358,1.382.518.508.16.239,1.461.697,1.613.453.174.671.535.983.847.326.295,1.345-.07,1.59.342.208.419.378.856.54,1.271.174.387,1.184.271,1.463.665.252.418.033,1.116.206,1.559.19.439.041,1.039.197,1.487.169.433,1.12.538,1.331.988.191.478-.94,1.506-.616,1.903.334.39,1.187.561,1.513.99.336.424,1.033.755,1.196,1.255.151.512.003,1.124-.008,1.682-.006.547.761.972.747,1.531-.013.565-1.399,1.389-1.261,1.909l.401,1.603c.142.535,1.338.8,1.484,1.338.158.582-.325,1.023-.241,1.462.08.424-.587.934-.534,1.298.055.371.51.727.528,1.105.013.384-.696.671-.737.961-.034.273,1.628.932,1.636,1.356.022.156-.28.405-.567.615-.288.214-.576.427-.604.705-.057.565.318,1.245.142,1.768-.176.522-1.259.675-1.545,1.156-.285.481-.142,1.147-.43,1.625-.293.484-1.166.788-1.344,1.309-.178.52,1.393,1.609,1.276,2.15-.117.542-.06,1.136-.178,1.676-.12.543-.876.907-1.057,1.426-.181.521-1.598.619-1.758,1.144-.16.527.623,1.373.459,1.898-.164.527-.286,1.069-.468,1.586-.184.52-.102,1.16-.364,1.65-.262.491-1.36.633-1.624,1.119-.266.492-.527,1.006-.712,1.523-.186.521-.427,1.024-.604,1.545-.178.521.31,1.277.131,1.795-.18.521-.168,1.111-.354,1.626-.189.521.043,1.19-.138,1.71-.181.521-2.094.414-2.275.929-.182.52.53,1.362.342,1.876-.191.521.624,1.412.432,1.929-.192.517-1.126.755-1.318,1.267-.194.516-.133,1.125-.323,1.638-.192.519-.138,1.065-.192,1.632-.053.567-.895.92-.946,1.484-.053.572-.636.924-.829,1.439-.197.525-.487.995-.705,1.5-.223.516.611,1.444.392,1.949-.225.515-1.609.577-1.802,1.089-.198.525.795,1.512.544,2.004-.257.503-1.672.505-1.925.994-.259.501.65,1.478.456,1.99-.199.526-1.247.694-1.516,1.178-.275.495-.749.893-1.02,1.374-.279.495-.626.993-.819,1.505-.199.527-.219,1.18-.269,1.748-.051.579,1.498,1.594,1.457,2.162-.042.588-1.894.576-2.088,1.088-.199.528.902,1.632.534,2.078-.374.454-.858.851-1.231,1.288-.389.456-1.663.482-1.855.996-.198.528-.013,1.209-.062,1.777-.05.58-.435,1.065-.474,1.632-.04.59-.41.986-.6,1.499-.196.528,1.392,1.767,1.164,2.265-.236.513-.697.924-.927,1.42-.237.512-.548.959-.736,1.471-.194.53-.934.838-1.101,1.359-.173.537.112,1.234-.053,1.756-.169.538-1.768.537-1.949.985-.188.481.186,1.19-.053,1.647-.228.466.662,1.507.388,1.967-.28.467-.751.781-.964,1.261-.23.494-1.881.239-2.069.716-.137.328-.207.689-.295,1.042-.501.213-1.102.646-1.428.427-.45-.302-.495-1.465-.961-1.77-.458-.3-.702-1.222-1.212-1.429-.492-.202-1.324.431-1.826.217-.489-.209-.951-.502-1.451-.715-.491-.209-1.022-.337-1.526-.543-.493-.203-.725-1.099-1.236-1.281-.506-.162-1.018-.326-1.532-.491-.499-.183-1.17.067-1.668-.144-.49-.207-1.227.188-1.753.043-.517-.144-.6-1.466-1.116-1.618-.512-.151-1.469.836-1.964.618-.487-.215-.418-1.579-.874-1.87-.45-.287-1.807,1.216-2.268.926-.456-.292-.063-2.367-.541-2.598-.478-.225-1.127-.308-1.678-.389-.541-.079-1.502,1.014-2.052.93-.551-.085-.969-.512-1.456-.74-.483-.223-1.344.246-1.785-.072-.441-.31-.589-1.15-1.029-1.459-.44-.309-1.212.058-1.691-.184-.476-.241-.625-1.134-1.071-1.428-.449-.286-1.082-.251-1.516-.563-.437-.311-.219-1.779-.677-2.032s-1.206.003-1.695-.205c-.486-.206-1.391.38-1.884.17-.499-.199-1.04-.368-1.497-.638-.454-.277-.629-1.015-1.081-1.286-.452-.272-.989-.405-1.441-.677-.454-.273-.197-1.664-.64-1.934-.436-.286-.797-.605-1.181-.965-.381-.361-1.285-.025-1.669-.389-.388-.367-.192-1.562-.617-1.851-.425-.292-1.965,1.13-2.487.949-.509-.193-.532-1.202-1.035-1.389-.512-.191-1.392.106-1.812-.216-.42-.322-.88-.602-1.286-.935-.408-.339-.822-.664-1.209-1.022-.395-.353-1.05-.38-1.453-.721-.406-.35-.33-1.305-.638-1.747-.311-.449-.088-1.409-.384-1.852-.303-.45-1.417-.039-1.807-.395-.396-.361.066-1.64-.309-2.003-.383-.369-1.038-.442-1.414-.812-.381-.373-.193-1.333-.569-1.692-.384-.374-1.654.232-2.151-.018-.502-.251-.394-1.278-.888-1.522-.511-.253-1.317-.108-1.694-.485-.385-.386-.593-.92-.91-1.355-.326-.446-.439-1.07-.752-1.507-.324-.453-.648-.931-1.021-1.309-.388-.392-1.071-.476-1.391-.908-.332-.449-.607-.94-.923-1.375-.331-.456-.503-1.062-.881-1.44-.398-.398-.779-.797-1.179-1.152-.423-.378-.876-.699-1.273-1.05-.434-.378-.525-1.067-.902-1.44-.179-.176-.517-.342-.868-.493-.337-.137-.67-.246-.928-.407-.511-.318-.929-.661-1.351-.908-.412-.238-1.565.386-1.868.067-.286-.3-.511-.66-.566-.994,0-.11-.076-.503-.086-.773-.025-.297-.05-.595-.134-.863-.168-.539-.667-.842-.946-1.315-.279-.47-.646-.775-1.078-1.155-.428-.374-.997-.648-1.422-1.029-.426-.385.446-1.628.187-2.096-.256-.465-.103-1.119-.293-1.612-.195-.488-1.142-.617-1.33-1.115-.187-.493-.774-.786-1.009-1.261-.218-.472-.675-.855-.85-1.35-.185-.494.938-1.511.783-1.984-.169-.478-.005-1.088-.187-1.548-.164-.459-.603-.857-.814-1.305-.212-.445-1.102-.675-1.208-1.032-.141-.397.666-.953.58-1.301-.083-.343-1.21-.647-1.288-1.083-.049-.434.82-.823.88-1.204Zm45.133,278.814c-.153-.306-.263-.52-.174-.484.088.021.144.219.174.484Zm-.28-2.567c.066.321.101.706.046,1.055-.075.597-.334,1.031-.438.999-.139-.024-.03-.474-.089-.992-.011-.524-.214-1.111-.356-1.316-.002-.076.665.334.836.254Zm0,0c-.015-.071-.029-.143-.047-.206.038.059.088.115.115.177-.002.03-.046.019-.068.029Zm87.89-174.659c-.278-.167-.26-.726-.301-1.205.483-.043,1.031-.139,1.245.126.233.287-.027,1.069-.111,1.67-.274-.203-.544-.416-.833-.591Zm.833.591c.151.112.305.205.459.326.147.117.443.313.685.41-.373.027-.939.08-1.073-.071-.115-.129-.111-.378-.071-.665Zm-65.024,3.462c-.419.258-1.167.564-1.314.433-.165-.152.857-.834,1.029-1.085.02-.015.128.533.285.652Zm66.168-2.726c.234-.017.393-.024.319.036-.063.049-.185.017-.319-.036Zm-3.198-3.217c.262-.078.497-.115.647-.03.191.104.245.393.272.716-.337.03-.643.035-.78-.127-.102-.124-.131-.33-.14-.559Zm-62.97,5.943c.04-.025.064-.046.097-.069-.014.034-.014.089-.032.117-.024.004-.043-.032-.065-.048Zm241.056-19.914c.074-.681,1.554-1.215,1.676-1.891.119-.697-1.11-1.538-1.019-2.201.104-.689.438-1.309.462-1.981.004-.693.279-1.381.335-2.042.068-.697-.602-1.408-.565-2.064.033-.695,1.267-1.363,1.199-2.049-.06-.721.016-1.434-.076-2.112-.13-.741-.888-1.346-1.014-2.012-.149-.71.731-1.669.581-2.394-.19-.794-.607-1.616-.881-2.35-.503-.93-1.8-1.295-2.315-1.839-.271-.352-.355-.807-.449-1.242-.09-.45-.188-.912-.452-1.159-.57-.585-1.426-.749-1.975-1.176-.602-.435-.884-1.272-1.48-1.632-.623-.402-1.534-.277-2.105-.631-.601-.396-1.664-.122-2.178-.569-.545-.422-.617-1.563-1.224-1.97-.588-.427-1.512-.131-2.188-.376-.643-.239-1.158-1.013-1.949-1.079-.749-.055-1.573.584-2.334.626-.717.04-1.515-.233-2.367-.098-.767.069-1.512.093-2.208.428-.624.313-1.306.514-1.903.899-.554.358-.776,1.344-1.371,1.669-.559.304-1.716-.728-2.261-.519-.478.204-.562,2.212-1.214,2.389-.62.163-1.819-1.598-2.44-1.402-.021.006-.037.028-.057.038.05-.112.1-.223.15-.334.169-.068.339-.15.505-.244l.277-.164c.049-.028.084-.054.116-.079l-.025-.007c-.01-.058-.013-.288-.007-.423v-.009s.068-.033.068-.033l.068-.035c-.019.015.087-.043.127-.15.007-.006.039-.148-.07-.251-.112-.089-.178-.064-.16-.069h-.031s-.163-.002-.163-.002c-.078-.121-.212-.311-.212-.311l.003.007s.008.007,0,.017c-.072.098-.163.183-.249.272-.298-.018-.595-.05-.879-.118-.667-.164-1.337-.247-1.94-.44l-.02-.006c-.613-.173-1.201-.572-2.14-.632-.528.021-.774.044-1.183.034-.366.006-.751-.023-1.09.076-.694.183-1.776-.609-2.466-.313-.714.269-1.26.832-1.933,1.129-.685.27-1.457.374-2.135.71-.665.315-1.158.922-1.805,1.312-.597.384-.777,1.365-1.378,1.795-.546.422-.744,1.318-1.313,1.774-.521.431-1.304.609-1.867,1.082-.518.431-1.67.214-2.182.749-.479.489-.851,1.117-1.354,1.647-.477.492-.19,1.804-.72,2.294-.54.492-1.519.486-1.979,1.01-.477.551-1.547.536-1.99,1.059-.466.552.038,2.03-.461,2.502-.53.5-1.974-.037-2.548.363-.61.422-.277,1.932-.849,2.322-.613.418-1.623.308-2.118.782-.532.505-1.323.712-1.832,1.174-.543.496-1.517.514-2.028.976-.546.496-.946,1.124-1.433,1.609-.522.523-.062,1.895-.47,2.455-.425.598-1.72.479-2.116,1.056-.415.609-.908,1.039-1.388,1.547-.497.526-.494,1.489-1.111,1.882-.616.396-1.768.176-2.378.586-.614.408-.164,1.892-.648,2.43-.466.518-1.325.704-1.712,1.332-.371.594-.642,1.284-1.04,1.904-.381.588-1.549.572-2.023,1.151-.441.534-.337,1.539-.87,2.058-.502.482-.598,1.352-1.113,1.886-.126.131-.283.24-.43.357.203-.325.344-.622.257-.821-.278-.652-.956-1.136-1.25-1.768-.293-.637-.711-1.213-1.016-1.835-.305-.627-1.252-.925-1.557-1.538-.307-.61-.071-1.458-.238-2.142-.164-.678-.979-1.115-1.146-1.783-.168-.677.52-1.745.205-2.34-.314-.591-2.048-.284-2.505-.795-.453-.506-.048-1.61-.492-2.112-.451-.506-1.366-.763-1.664-1.348-.142-.284-.181-.656-.176-.983.03-.287.07-.563-.011-.863-.154-.556-.647-1.111-.834-1.775-.197-.682-.77-1.205-1.091-1.892-.309-.667.646-2.078.136-2.874-.479-.772-1.492-1.239-2.171-1.965-.353-.354-.992-.547-1.603-.646-.631-.067-1.177-.14-1.635-.346-.447-.233-.847-.582-1.317-.853-.454-.313-.959-.551-1.498-.623-.266-.035-.529-.144-.789-.24-.204-.097-.342-.22-.516-.344-.331-.247-.673-.49-1.023-.517-.707-.047-1.432-.323-2.167-.313-.726.005-1.473-.322-2.234-.297-.768.03-1.48.82-2.244.899-.765.074-1.608-.148-2.407.013-.801.162-1.469.835-2.266,1.023-.776.178-1.618.689-2.238.895-.686.217-1.347.472-2.003.759-.651.301-.989,1.138-1.582,1.532-.592.381-1.79-.22-2.389.193-.592.418-1.292.566-1.918.927-.63.357-.697,1.656-1.308,2.004-.615.351-1.243.685-1.848,1.059-.6.375-1.61.16-2.197.585-.585.415-1.478.32-2.111.699-.623.384-1.312.682-1.926,1.094-.635.414-.156,2.164-.707,2.65-.676.615-1.913.798-2.441,1.58-.5.753-1.356,1.299-1.72,2.056-.383.774.724,2.178.415,2.817-.318.651-1.763.763-2.017,1.398-.247.621-1.12.948-1.343,1.488-.238.566.075,1.217-.237,1.781-.302.551.058,1.507-.23,2.117-.287.606-1.12.967-1.415,1.612-.297.652.274,1.74-.039,2.385-.307.649-1.794.795-2.102,1.538-.304.73-.461,1.528-.704,2.315-.13.388.069.885.267,1.346.223.395.447.791.369,1.112l-.432,1.94-.453,1.953c-.149.652-.909,1.167-1.066,1.824-.156.655-1.148,1.101-1.333,1.759-.183.66-.188,1.362-.363,2.029-.18.662-.714,1.275-.854,1.955-.134.686.209,1.449.061,2.132-.151.686.571,1.534.44,2.217-.142.682-.292,1.362-.392,2.056-.079.697-1.229,1.276-1.291,2-.074.713-.277,1.423-.324,2.149-.056.727.784,1.5.755,2.214-.03.721-.772,1.455-.72,2.172.043.722,1.293,1.377,1.345,2.07.068.692-.571,1.438-.53,2.142.032.709,1.336,1.263,1.442,1.939l.375,2.027c.125.671-.686,1.491-.603,2.176l.231,2.044c.083.68.781,1.275.869,1.948.093.67-1.072,1.541-.96,2.218.108.678,1.153,1.214,1.196,1.892.04.678-1.467,1.549-1.426,2.237.046.687.202,1.421.333,2.091.131.67,1.694,1.057,1.804,1.721.108.666-.386,1.444-.277,2.112.108.669,1.181,1.129,1.322,1.786.143.657-.837,1.615-.543,2.237.291.62,1.815.819,2.105,1.436.292.624.722,1.305.868,1.958.146.651-.729,1.535-.573,2.18.156.646,1.362,1.048,1.518,1.694.155.647-1.556,1.711-1.413,2.355.145.646,1.174,1.094,1.295,1.741.121.647.805,1.181.921,1.834.119.651-.559,1.457-.427,2.107.133.65,1.355,1.201,1.332,1.887-.024.679-1.393,1.482-1.414,2.167-.023.691-.053,1.435.084,2.098.142.666.087,1.46.379,2.096.296.636,1.102,1.089,1.403,1.719.306.639,1.774.963,1.944,1.623.163.658-1.197,1.738-.966,2.401l.668,1.982c.233.664,2.021.825,2.221,1.475.201.654-1.221,1.775-1.175,2.517.06.733,1.41,1.202,1.485,1.917.09.726-.76,1.724-.461,2.398.292.665.579,1.368.914,1.958.337.609,1.889.586,2.228,1.172.34.592.644,1.245.948,1.848.302.604.017,1.516.306,2.123.288.609.059,1.478.347,2.081.288.605.926,1.04,1.23,1.629.304.591-.402,1.822.008,2.349.409.527,1.257.787,1.661,1.312.409.53,1.865.478,2.157,1.07.289.588.83,1.142,1.011,1.779.179.636.445,1.242.613,1.876.17.641-.319,1.488-.06,2.073.255.586.939.989,1.19,1.579.245.593-.462,1.573-.231,2.151.223.579,1.271.852,1.488,1.445.207.594.349,1.175.647,1.736.284.564.305,1.234.586,1.798.277.574.339,1.225.501,1.839.162.613.463,1.211.502,1.863.041.646.686,1.215.717,1.873.031.665.135,1.244.273,1.891.07.322-.063.693-.177,1.057-.068.131-.083.486-.08.774.006.297.044.591.14.86.394,1.122,1.542,1.5,1.884,2.336.351.873.459,2.111.721,3.059.245.884-.407,3.175-.06,4.155.343.971,1.281.714,1.616,1.39.387.68.889.727,1.489,1.07.311.187.83.207,1.062.048.281-.145.564-.291.863-.446.28-.122.606.119.946.504.173.178.352.377.538.491.2.063.403.057.591-.095.504-.406.897-1.557,1.24-2.622.188-.564.368-1.033.596-1.271.662-.718,1.219-1.745,1.824-2.52.304-.392.738-.506,1.214-.665.462-.176.965-.405,1.3-.867.653-.896.96-2.339,1.42-3.001.377-.561.484-1.326.901-1.84.422-.523,1.593-.459,2.006-.961.414-.49.149-1.483.52-1.994.368-.526,1.168-.698,1.545-1.184.388-.463.511-1.157.912-1.596.377-.436,1.141-.653,1.574-1.142.434-.491.266-1.499.684-2.009.419-.513,2.089.058,2.506-.447.419-.508-.621-2.315-.175-2.803.45-.489,2.058.083,2.492-.412.436-.497.63-1.218,1.068-1.713.439-.496.535-1.307.989-1.791.456-.486,1.53-.432,1.943-.956.414-.525.121-1.658.533-2.182.415-.528.613-1.267,1.069-1.753.444-.477,2.016.136,2.516-.324.485-.444-.479-2.358.015-2.82.482-.451,1.204-.642,1.661-1.145.444-.487,1.471-.455,1.92-.965.437-.499.691-1.172,1.138-1.682.437-.5,1.291-.644,1.745-1.153.444-.497.595-1.264,1.055-1.767.451-.492,1.655-.327,2.112-.842.449-.505.834-1.087,1.274-1.616.432-.521-.398-2.093.036-2.613.426-.517,1.315-.671,1.749-1.203.422-.53.915-1.01,1.339-1.551.41-.534.43-1.339.781-1.924.341-.578,1.168-.841,1.513-1.427.339-.582,1.019-.91,1.42-1.455.394-.538.198-1.527.631-2.04.429-.508.22-1.523.65-2.036.427-.509,1.011-.864,1.403-1.403.388-.534,2.033-.116,2.476-.611l1.331-1.473c.44-.49-.06-1.719.335-2.248.389-.527.91-.992,1.379-1.46.462-.467.723-1.109,1.191-1.571.468-.467,2.293.196,2.69-.309.392-.506-.182-1.776.09-2.395.27-.623,1.02-.874,1.286-1.464.26-.592.339-1.285.762-1.761.414-.473.964-.848,1.379-1.335.406-.485.231-1.526.667-2.012.429-.488,1.688-.16,2.152-.615.457-.455.645-1.18,1.149-1.607.499-.426,1.421-.381,1.929-.809.505-.426.297-1.643.782-2.106.481-.46.442-1.492.947-1.937.503-.444,1.145-.731,1.648-1.186.502-.453.876-1.008,1.354-1.493.475-.482,2.045.086,2.495-.45.449-.535-.255-2.08.176-2.609.429-.538,1.027-.959,1.485-1.475.449-.52,2.032.07,2.639-.355.586-.436.956-1.12,1.544-1.562.586-.47.491-1.529.919-2.103.406-.573,1.05-.972,1.42-1.571.351-.6,1.717-.58,2.07-1.193.342-.614.487-1.315.851-1.906.362-.597-.768-2.112-.407-2.682.36-.572,2.1-.317,2.458-.901.358-.584-.027-1.608.299-2.196.33-.59,1.032-.976,1.363-1.56.334-.584,1.016-.974,1.344-1.555.331-.583-.431-1.767-.115-2.348.318-.586,1.171-.882,1.386-1.515l.659-1.887c.216-.639,1.257-.797,1.575-1.366.315-.57-1.038-2.107-.689-2.663.346-.559.932-.962,1.282-1.507.341-.553.674-1.093,1.013-1.643.333-.557,1.077-.845,1.321-1.452.246-.61,1.507-.684,1.756-1.284.256-.61-.275-1.648.084-2.196.36-.548.236-1.473.671-1.971.438-.5,1.426-.578,1.864-1.073.444-.501.534-1.253.905-1.802.373-.551,1.443-.601,1.887-1.104.447-.506.465-1.351.908-1.856.45-.514.145-1.521.512-2.081.372-.568,1.218-.797,1.438-1.461.22-.665-.352-1.694-.15-2.35.21-.671.583-1.407.93-1.986.346-.586,1.647-.63,2.165-1.131.511-.501.982-1.046,1.488-1.554.515-.527.847-1.142,1.163-1.767.312-.638.613-1.275.763-1.978.138-.728.923-1.48,1.015-2.254.056-.786-.584-1.664-.397-2.348.165-.689,1.044-1.207,1.209-1.902.144-.698.365-1.367.5-2.052.147-.703-1.173-1.622-1.061-2.285.112-.682.426-1.328.505-1.998.085-.68,1.742-1.165,1.817-1.85.071-.701-1.761-1.58-1.698-2.24Zm-86.647,41.652c-.29.59-1.892.756-2.029,1.335-.141.589-.295,1.175-.457,1.762-.146.583.723,1.474.546,2.076-.175.599-.925,1.009-1.116,1.591-.215.589-1.102.932-1.308,1.51-.195.585-.013,1.318-.233,1.904-.21.592-1.096.89-1.336,1.457-.255.566,1.125,1.809.962,2.454-.164.645-1.329.9-1.491,1.503-.163.618.073,1.401-.221,1.943-.297.543-1.41.507-1.801.917-.394.4-.424,1.08-.831,1.42-.416.347-1.282.243-1.548.508-.242.247.68,1.889.339,2.201-.316.291-.454.641-.759.816-.312.164-.699-.335-.928-.392l-.039-.006c-.334-.057-.201-1.359-.249-1.387-.087-.021-.779.777-1.065.517-.281-.223-.61-.525-.87-.905-.26-.371-.775-.691-.924-1.2-.153-.518.584-1.315.519-1.793-.082-.49-.148-1.005-.239-1.473-.107-.473-.118-.961-.154-1.393-.049-.446-.759-.776-.721-1.398.012-.548-.121-1.129-.046-1.69.083-.56-.243-1.211-.124-1.793.138-.595,2.044-.684,2.204-1.205.137-.533-.569-1.382-.378-1.946.208-.556-.573-1.521-.325-2.101.248-.578,1.217-.82,1.485-1.374.255-.562.301-1.242.577-1.806.289-.568.339-1.184.511-1.822.178-.639,1.109-.962,1.296-1.596.184-.645.87-.991,1.192-1.56.333-.583.75-1.093,1.104-1.656.364-.58-.248-1.734.106-2.277.364-.561,1.789-.475,2.115-1.03.331-.571-.416-1.812-.014-2.334.406-.536,1.845-.346,2.238-.859.398-.528-.239-1.758.121-2.303.364-.561,1.478-.586,1.896-1.084.203-.245.45-.454.698-.66.329.241.694.471.806.797.169.582-.192,1.328-.12,1.894.104.579-.209,1.201-.152,1.747.017.538.964.974.992,1.537.055.557-1.376,1.241-1.2,1.812.187.565.9,1.105,1.066,1.709.127.608.688,1.258.614,1.877-.056.618-.453,1.217-.702,1.8-.226.576.249,1.374-.005,1.955Zm81.45-46.086c.069.605,1.104,1.248,1.137,1.912.027.63-.61,1.282-.695,1.932-.075.613.207,1.308.085,1.951-.116.616-1.442,1.036-1.572,1.659-.127.606-.675,1.169-.793,1.787-.11.59,1.107,1.491.865,2.094-.236.579-1.386.89-1.617,1.465-.234.568-1.141.972-1.282,1.545-.13.566.544,1.302.373,1.865-.164.56-.464.903-.64,1.386-.225.496-.443,1.112-.699,1.657-.27.543-1.226.761-1.479,1.314-.248.553-.499,1.111-.752,1.673-.277.542-.161,1.307-.474,1.85-.313.53-.083,1.39-.35,1.97-.27.572-1.658.525-1.933,1.093-.279.564.481,1.752.129,2.293-.349.533-1.738.307-2.159.793-.417.48.741,2.189.312,2.681-.43.49-2.476-.189-2.844.347-.366.532-.641,1.283-.881,1.913-.238.623.627,1.834.386,2.461-.242.629-.804,1.085-1.178,1.633-.372.543-.106,1.576-.54,2.08-.431.502-1.343.657-1.775,1.171-.433.515-.213,1.442-.573,2.003-.359.558-1.33.759-1.738,1.3-.405.54-.459,1.307-.856,1.848-.393.542-1.911.398-2.251.981-.335.58-.154,1.454-.436,2.058-.278.604.25,1.61-.024,2.211-.273.602-.461,1.281-.779,1.855-.317.573-1.104.885-1.417,1.458-.312.57-.482,1.219-.794,1.788-.313.566-1.782.486-2.096,1.042-.317.556-.653,1.044-1.043,1.553-.392.504-.056,1.501-.452,2.002-.402.503-1.662.485-1.99,1.012-.329.527,1.13,2.05.918,2.669-.213.613-1.263.821-1.481,1.415-.219.608.079,1.57-.291,2.082-.366.515-.682,1.083-1.073,1.556-.395.483-.765.976-1.181,1.439-.413.469-.481,1.207-.9,1.678-.424.479-1.431.478-1.952.844-.528.372-1.53.193-2.048.545-.537.355-.231,1.562-.671,2.015-.456.454-1.792.013-2.238.448-.462.443-.652,1.168-1.111,1.605-.468.442-1.505.29-1.962.727-.471.449-.005,1.823-.358,2.387-.357.568-1.483.532-1.832,1.099-.362.585-.318,1.479-.79,1.93-.485.46-1.112.751-1.64,1.154-.542.41-1.259.616-1.787,1.031-.548.422-1.125.858-1.587,1.35-.484.505-.641,1.287-1.147,1.741-.529.468-1.107.867-1.607,1.339-.521.482-1.237.835-1.64,1.339-.438.537-.881,1.058-1.262,1.587-.409.561-.757,1.141-1.126,1.67-.4.568-1.148.827-1.535,1.334-.41.538-.475,1.376-.802,1.975-.327.592-.729,1.139-1.052,1.734-.326.596.297,1.843-.1,2.384-.395.535-.868,1.1-1.369,1.561-.495.455-1.188.736-1.684,1.193-.499.461-.645,1.118-1.041,1.656-.392.534-.586,1.065-.836,1.708-.244.633-.341,1.354-.593,1.988-.253.64-1.83.439-2.228.964-.396.519-1.13.722-1.577,1.199-.445.471-.258,1.49-.71,1.964-.453.465-.552,1.223-.965,1.729-.418.499-.666,1.167-1.114,1.648-.444.48-1.946.015-2.394.487-.447.472-1.161.74-1.594,1.23-.43.488-.677,1.188-1.071,1.717-.388.526-.23,1.504-.626,2.035-.397.529-1.506.403-1.949.891-.44.483-.011,1.77-.428,2.286-.414.513-1.573.382-1.993.894-.419.511-.746,1.071-1.202,1.556-.453.483-.798.979-1.358,1.368-.554.385-1.386.456-1.941.843-.557.389.081,2.05-.377,2.537-.455.483-2.046-.149-2.552.294-.503.441-1.071.819-1.577,1.266-.505.447-1.071.895-1.53,1.392-.458.495-.235,1.65-.557,2.271-.316.616-.998.988-1.315,1.605-.32.622-.572,1.191-1.028,1.694-.454.5-.183,1.755-.765,2.143-.578.388-1.365.497-1.982.965-.621.447-1.326.761-1.785,1.34-.433.576-.245,1.541-.555,2.172-.32.626-1.747.605-2.052,1.24-.299.63.043,1.633-.332,2.19-.375.557-.451,1.363-.908,1.85-.056.06-.125.115-.196.158-.053.016-.101.006-.16,0-.114-.015-.243-.053-.365-.101-.246-.094-.46-.233-.529-.228-.147.024-.333-.139-.376-.081-.054.074-.162-.108-.184-.002-.011.043-.008.187-.013.368-.005.288-.041.676-.098.789-.112.208-.119-.963-.134-.948-.051.041-.003-.375-.003-.486.012-.079-.274.764-.279.6-.002-.162.326-.954.326-.954,0,0-.262.404-.39.464-.126.062-.033-.128-.165-.102-.124.072-1.426.642-1.493.325-.033-.155-.184-.179-.367-.421-.2-.323-.383-.647-.393-.99-.018-.678.606-1.442.579-2.134-.026-.694,1.195-1.654,1.029-2.344-.164-.686-2.353-.836-2.558-1.495-.202-.661.278-1.54.049-2.216-.228-.67-.205-1.432-.418-2.115-.218-.68-.977-1.13-1.27-1.77-.295-.636-.079-1.497-.391-2.132-.315-.632-.881-1.148-1.144-1.793-.263-.642-.366-1.357-.535-2.043-.17-.682-1.152-1.066-1.33-1.737-.181-.673,1.219-2.004.919-2.636-.298-.629-1.545-.754-1.996-1.293-.446-.535-.322-1.448-.772-1.977-.455-.533-1.799-.514-2.105-1.115-.305-.598.389-1.666.151-2.295-.239-.628-.309-1.322-.545-1.946-.238-.625-1.363-.835-1.663-1.425-.3-.587-1.261-.792-1.606-1.357-.347-.563-.124-1.428-.459-1.989-.339-.561-1.205-.885-1.482-1.478l-.777-1.746c-.272-.572-.071-1.344-.319-1.92-.241-.587.452-1.518.236-2.097-.196-.592-.948-1.016-1.012-1.664-.058-.643-.415-1.221-.457-1.873-.051-.657,1.094-1.591.935-2.204-.165-.602-1.951-.793-2.12-1.423-.174-.622.149-1.373-.013-1.999-.164-.624-.707-1.178-.852-1.815-.141-.64.733-1.522.505-2.141-.225-.623-.781-1.153-1.005-1.782-.225-.634.496-1.454.364-2.111-.132-.652-1.659-1.022-1.792-1.68l-.375-1.978c-.133-.657,1.02-1.592.878-2.256-.13-.663-.258-1.313-.388-1.976-.125-.662-2.167-.929-2.292-1.586-.126-.656,1.225-1.627,1.078-2.28-.147-.653-.7-1.21-.797-1.871-.097-.659.348-1.422.253-2.079-.095-.658-1.089-1.137-1.233-1.785-.145-.648-.858-1.126-1.056-1.761-.196-.634-.502-1.241-.696-1.876-.193-.637,1.177-1.643,1.043-2.286-.137-.644-.453-1.24-.546-1.89-.094-.65.176-1.361.083-2.008-.084-.645-1.675-1.033-1.794-1.681-.12-.645-.301-1.274-.411-1.918-.115-.646.701-1.445.587-2.084-.11-.642.444-1.376.349-2.013-.092-.634-1.53-1.128-1.531-1.781-.008-.653,1.374-1.393,1.368-2.029-.009-.638-1.426-1.164-1.491-1.808-.057-.639.599-1.336.507-1.954-.102-.618-1.204-1.145-1.308-1.782-.096-.637.569-1.327.553-1.951-.023-.627-.408-1.258-.362-1.877.043-.621.269-1.224.333-1.842.058-.616-.511-1.285-.445-1.918.053-.636,1.868-1.071,1.918-1.678.072-.617-.441-1.31-.352-1.94.078-.627.439-1.207.552-1.83.107-.62-1.072-1.547-.885-2.172.194-.624,1.378-.985,1.581-1.601.197-.617.392-1.241.536-1.875.145-.635.576-1.236.618-1.899.043-.661-.818-1.466-.77-2.134.046-.672.066-1.398.224-2.047.158-.65.387-1.343.674-1.965.143-.309.658-.489,1.174-.67.514-.151.997-.201,1.129-.418.251-.401-.632-1.328-.427-1.855.204-.511.36-1.034.467-1.635.114-.602.781-1.01.933-1.63.155-.631.94-.884,1.259-1.459.317-.573-.036-1.543.277-2.159.311-.6.34-1.52.617-2.15.288-.66-.332-1.695-.061-2.3.273-.604.806-1.099,1.105-1.64.305-.564,2.196-.197,2.47-.612.276-.427-.011-1.193.271-1.584.29-.366.916-.377,1.151-.65.362-.385.457-1.285.895-1.702.439-.434.142-1.798.645-2.199.518-.389,2.09.807,2.673.578.579-.243,1.255-.313,1.834-.533.585-.206.167-2.172.713-2.508.533-.336,1.23-.364,1.753-.705.528-.342,1.286-.282,1.818-.601.539-.322,1.51.206,2.058-.06.543-.271.476-1.882,1.058-2.139.587-.248,1.847,1.128,2.406.914.61-.24.532-1.627,1.067-1.792.502-.166,1.072-.087,1.573-.325.525-.226,1.286.564,1.81.384.521-.192.865-2.054,1.493-2.1.615-.038,1.288-.036,1.917.055.634.087,1.14,1.772,1.752,1.881.308.052.651-.365.996-.8.329-.429.779-.878.863-.862.16.029.265.395.257.83.006.416-.069.777-.029.837.127.056.313-.037.459.124.168.211.402.486.633.849.234.381.09,1.013.367,1.466.283.437.628.925.919,1.471.291.549.456,1.175.734,1.855.263.667.969,1.526,1.28,2.016.353.598,1.153.924,1.506,1.503.355.581,1.543.713,1.858,1.304.316.591-.747,1.923-.429,2.508.319.585,1.914.477,2.229,1.058.316.582-.69,1.857-.387,2.432.3.576,1.853.596,2.038,1.235.183.637-1.121,1.847-.959,2.465.169.629.368,1.302.632,1.872.259.568.644,1.055.832,1.644.198.6-.07,1.531.158,2.181.237.672,1.965.698,2.252,1.307.155.335.357.616.576.888-.394.225-.804.447-1.004.823-.327.623-.442,1.395-.793,2.045-.332.625-.138,1.622-.536,2.242-.373.561-.794,1.154-1.25,1.666-.45.508-1.464.599-1.904,1.126-.445.525-.556,1.261-.92,1.839-.361.574-.709,1.132-.981,1.764-.276.625-.41,1.324-.685,1.949-.276.623-1.941.486-2.271,1.056-.332.568-.509,1.171-.936,1.7l-1.28,1.612c-.429.55-.632,1.301-.969,1.92-.337.602-.918,1.188-1.149,1.866-.224.688,1.091,1.969.891,2.64-.196.679-1.602.884-1.89,1.564-.297.655-.123,1.513-.391,2.181-.259.688.415,1.693.198,2.372-.217.685-.83,1.265-1.001,1.994-.191.692-1.765,1.092-1.985,1.865-.179.769-.395,1.54-.517,2.342-.063.401.046.83.165,1.249.136.466.29.957.302,1.401.045.889.706,1.645.968,2.418.268.777.847,1.423,1.181,2.131.347.701-.045,1.749.289,2.52.345.744.264,1.606.591,2.466.335.866,1.585,1.286,2.096,2.076.492.756.671,2.565,1.836,3.208.571.295,1.26.295,1.929.13.666-.129,1.269-.337,1.83-.342l.814.015c.832-.104,1.654-.181,2.425-.472,1.058-.346,1.781-1.512,2.528-1.954.738-.45,1.932-.353,2.578-.972.588-.587,1.994-.491,2.521-1.173.504-.668.658-1.53,1.076-2.174.423-.647.649-1.345,1.117-1.925.482-.586.07-1.735.496-2.3.435-.572,1.659-.689,1.962-1.32.296-.614.386-1.355.69-1.987.3-.639-.291-1.67-.01-2.305.273-.635,2.108-.646,2.364-1.325.265-.664.68-1.428.766-2.164.084-.73-.458-1.584-.393-2.302.047-.741-.772-1.659-.593-2.337.188-.664,1.804-.974,1.973-1.684.184-.704-.852-1.671-.701-2.357.136-.703-.42-1.52-.316-2.213.095-.687,2.263-.978,2.511-1.715.266-.726-1.172-1.828-.955-2.526.213-.711,1.757-1.323,1.766-2.1-.016-.77.306-1.552.184-2.417-.089-.848-1.186-1.494-1.337-2.262-.182-.778-1.501-1.298-1.68-2.002-.16-.708,1.317-1.955,1-2.671-.31-.697-.618-1.383-.954-2.042-.346-.664-1.749-.83-2.017-1.474-.259-.659-.619-1.232-.95-1.846-.121-.213-.287-.404-.461-.591.217-.047.395-.117.485-.241.394-.539-.302-1.994.236-2.412.54-.427,1.193-.748,1.734-1.145.569-.413,1.852-.15,2.242-.667.397-.536.497-1.314.774-1.923.286-.621.867-1.055,1.136-1.665.281-.635.824-.966,1.228-1.474.418-.521-.632-2.282-.19-2.768.456-.499,1.103-.816,1.55-1.294.463-.491.97-.891,1.383-1.396.43-.521,1.308-.641,1.71-1.155.416-.529.455-1.361.858-1.878.419-.529,1.993-.044,2.413-.538.436-.51.406-1.407.874-1.866.484-.466.028-1.846.505-2.301.489-.466,1.115-.727,1.545-1.224.447-.505,2.065.041,2.467-.478.411-.529.681-1.175,1.086-1.698.414-.527.881-.973,1.319-1.465.444-.498.769-1.075,1.249-1.533.485-.458,1.133-.747,1.614-1.203.483-.457-.289-2.146.163-2.646.447-.495,1.141-.759,1.585-1.255.445-.499.601-1.27,1.05-1.769.445-.498,1.734-.175,2.182-.669.442-.481.515-1.313.936-1.837.416-.503.382-1.452.817-1.969.436-.497,1.328-.565,1.807-1.028.474-.446,1.379-.436,1.834-.911.443-.461.336-1.569.825-2.033.473-.461,1.534-.198,2.054-.591.498-.398.921-.936,1.442-1.341.495-.416,1.129-.623,1.665-.999.503-.384.566-1.637,1.179-1.977.582-.31,1.188-.752,1.854-.953.33-.072.654-.169.981-.267l.494-.145c.206-.049.422-.047.617-.011.71.145,1.123.578,1.731.694.045.008.095.018.146.027.621.104,1.056,1.836,1.856,1.878.062.003.127-.027.19-.034-.057.375-.114.715-.212.955.007-.006.014-.012.021-.017-.118.28-.232.586-.362.848.528.311,1.094.858,1.544.787.675-.107,1.345-.063,1.991-.122.696-.075,1.377.124,2.1-.044.742-.153,1.359-.575,1.963-.793.656-.238,1.062-.933,1.634-1.13.618-.213,1.371.159,1.87.053.534-.109,1.134.159,1.473.214.315.003.918-.947,1.471-.883.55.072,1.243-.313,1.83-.152.612.171.786,1.38,1.287,1.65.518.275,1.257.168,1.714.606.452.401,1.057.63,1.504,1.061.426.469-.002,2.078.448,2.448.434.337,1.585-.208,2.1.142.487.309,1.054.541,1.546.909.442.358.846.795,1.217,1.241.352.411-.119,1.49.027,1.837.095.173.376.215.612.286.256.071.547.164.613.369.079.535-.876,1.256-.79,1.76.063.5,1.587.764,1.781,1.371.163.574-.791,1.353-.631,1.936.121.583.573,1.109.594,1.747.033.585.84,1.254.696,1.901-.14.608-.21,1.235-.378,1.876-.155.615-1.188,1.15-1.221,1.785-.042.592.365,1.239.432,1.898Zm-28.607-21.179c.21-.226.404-.654.478-.972.075.423.168,1.083-.176,1.392-.156.146-.423.256-.738.276-.2.017-.425-.028-.619-.121.236-.004.45-.078.581-.162.218-.131.341-.272.475-.412Zm-1.403.283c-.099-.219-.088-.397-.048-.557.084.032.168.062.246.055.402-.035.725-.553,1.051-.984-.474-.237-.978-.564-1.346-.419l-.257.098-.865.331.261.592c.172.389.244.778.936,1.118.125.048.248.06.368.058-.144-.07-.272-.163-.347-.291Zm.274-1.155l-.259.396c.086-.169.204-.302.259-.396Zm1.605-.115s.004,0,.006,0c-.001.005-.003.01-.004.015,0-.005-.001-.01-.002-.014Zm.107-.792c.188-.006.391.08.6.203-.13.262-.277.48-.469.557-.072.029-.15.036-.232.032.037-.167.049-.31-.012-.355-.076-.063-.039.101.006.356-.191-.013-.407-.105-.629-.217.128-.169.257-.316.39-.422.098-.03.207-.077.345-.153Zm.834-.542c.044-.033.071-.057.107-.086-.016.038-.022.099-.04.131-.026.007-.044-.03-.066-.045Zm-120.602,384.102l-.053-.047-.186-.164-.041-.048c-.033-.036-.04-.053-.055-.076-.054-.087-.081-.158-.113-.234l-.161-.445c-.182-.579-.347-1.144-.735-1.398-.212-.139-.443-.249-.68-.351-.073-.205-.164-.383-.305-.484-.429-.31-1.056-.36-1.634-.473-.673-.565-1.088-1.478-1.791-2.001-.433-.324-1.043-.401-1.633-.507.023-.13.061-.244.085-.356-.02-.23-.112-.526-.239-.743-.463-.786-1.939-1.175-2.253-2.053-.314-.87.673-2.209.377-3.066-.287-.874-.584-1.8-.995-2.599-.417-.798-.68-1.791-1.207-2.527-.535-.727-1.502-1.162-2.024-1.906-.517-.748-2.116-.976-2.491-1.809-.362-.838.71-2.309.337-3.112-.39-.805-.732-1.629-1.094-2.442-.372-.806-2.198-1.058-2.516-1.913-.29-.867,1.073-2.158.993-3.055-.084-.886-1.478-1.65-1.528-2.557-.071-.914.869-1.925.649-2.767-.221-.872-.451-1.852-.724-2.753-.276-.915-1.882-1.399-2.163-2.297-.282-.903-.544-1.853-.789-2.759-.245-.908.131-1.986-.099-2.892-.232-.908.092-1.95-.139-2.849-.234-.903-.839-1.696-1.087-2.585-.252-.894.619-2.232.258-3.08-.364-.849-1.193-1.504-1.543-2.35-.359-.855-1.848-1.342-2.067-2.235-.223-.888-.697-1.825-.788-2.738-.097-.911-.28-1.814-.348-2.72-.072-.917.537-1.849.385-2.729-.154-.881-.792-1.684-.922-2.569-.133-.888.732-1.923.627-2.789-.102-.866-1.095-1.639-1.176-2.52-.071-.881-.088-1.719-.251-2.59-.14-.872.002-1.786-.135-2.658-.107-.895.006-1.808.002-2.701-.021-.891-.104-1.815.03-2.705.137-.886-.331-1.878-.147-2.77.178-.899.241-1.703.315-2.606.086-.907.993-1.737.926-2.648-.073-.906-.995-1.79-1.045-2.71-.049-.93.24-1.944.374-2.853.129-.914,1.496-1.532,1.802-2.408.309-.872-.288-2.06.021-2.932.315-.882.199-1.773.349-2.683.15-.908.089-1.735.121-2.667.031-.932,1.925-1.787,1.958-2.717.032-.944-1.381-2.001-1.218-2.92.163-.92.074-1.882.23-2.802.157-.918,1.388-1.661,1.538-2.586.149-.925-.222-1.927-.076-2.851.15-.93-.028-1.944.18-2.859.203-.919,1.32-1.648,1.518-2.574.205-.93-.441-2.005-.322-2.943.116-.944.781-1.813.886-2.765.115-.951-.1-1.939.015-2.883.108-.929.62-1.798.712-2.716.092-.921-.608-1.9-.549-2.822.058-.926,1.774-1.735,1.84-2.659.064-.928-1.818-2.02-1.721-2.942.098-.926,1.755-1.696,1.836-2.618.082-.928-.171-1.888-.089-2.813.081-.929-.303-1.898-.205-2.821.097-.929,1.02-1.812,1.052-2.748.035-.938-.863-1.91-.829-2.841.034-.938-.232-1.911-.141-2.838.092-.905,1.721-1.636,1.856-2.577.129-.912-1.782-2.121-1.652-3.055.124-.913.604-1.756.672-2.703.061-.919.9-1.798.952-2.745.051-.924-.148-1.872-.095-2.816.06-.923.654-1.833.687-2.787.039-.932-.31-1.888-.253-2.836.056-.928,1.108-1.818,1.165-2.771.039-.939-.049-1.911-.035-2.867.01-.941-1.623-1.899-1.61-2.842.011-.93.633-1.87.596-2.824.006-.943.012-1.894.019-2.852-.025-.94-.525-1.831-.626-2.776-.088-.93.302-1.949.173-2.896-.14-.938.14-1.902.072-2.859-.083-.945-.843-1.837-.935-2.787-.068-.944-.95-1.839-1.019-2.784-.068-.94.084-1.863-.032-2.809-.089-.932,1.261-2.063,1.166-3.031-.105-.954-.21-1.914-.316-2.876-.125-.961-1.364-1.733-1.606-2.663-.231-.927-.34-1.93-.486-2.888-.145-.95-.563-1.86-.712-2.815-.118-.956,1.325-2.327,1.025-3.278-.308-.939-1.796-1.472-2.266-2.336-.479-.848-.391-2.025-.928-2.86-.537-.84-1.258-1.489-1.633-2.386-.371-.889-.622-1.851-1.026-2.733-.377-.892-1.583-1.359-2.058-2.192-.467-.832.084-2.211-.367-3.08-.447-.861-1.224-1.521-1.634-2.399-.502-.958-.545-2.232-1.195-3.149-.654-.922-2.17-1.104-2.895-1.847-.741-.763-2.051-.908-2.806-1.572-.759-.668-1.428-1.46-2.257-2.06-.411-.299-.855-.547-1.294-.783-.399-.212-.8-.421-1.188-.663-.776-.48-.764-2.255-1.553-2.714-.787-.451-2.362.414-3.159-.058-.795-.467-1.517-1.122-2.292-1.634-.774-.511-.554-2.262-1.237-2.93-.672-.66-1.583-1.088-2.271-1.748-.691-.669-1.936-.632-2.742-1.137-.795-.507-1.435-1.267-2.274-1.728-.826-.466-1.103-1.968-1.969-2.421-.854-.46-1.786-.694-2.649-1.157-.858-.478-2.557.609-3.408.165-.84-.46-.972-2.333-1.88-2.764-.892-.448-2.156-.079-3.075-.442-.908-.389-1.686-1.141-2.641-1.477-.933-.362-1.764-1.062-2.749-1.35-.979-.322-2.286.615-3.256.401-.965-.248-1.856-1.041-2.899-1.092-1.027-.088-2.056-.063-3.068-.08-1.017.032-1.966-.872-2.997-.91-1.038-.013-2.076,1.882-3.034,1.903-.98-.012-1.966-.257-2.944-.199-.986.028-1.933.167-2.903.273-.968.121-1.988-.179-2.937.084-.927.303-2.24-.509-3.17-.162-.947.332-1.535,1.511-2.461,1.768-.945.238-1.747,1.124-2.682,1.318-.944.181-2.025-.248-2.972-.035-.946.24-1.745.894-2.64,1.234-.892.356-2.078-.125-2.999.182-.477.156-.776.371-1.326.697-.723.464-1.394.941-2.037,1.433-1.297.948-1.567,2.81-2.041,3.863-.535,1.13-1.4,2.017-1.486,3.124-.081,1.106.795,2.091.824,3.046.03.982-.072,2.099-.215,2.964-.138.85-1.427,1.538-1.806,2.416-.367.873-.737,1.752-1.1,2.615-.389.882-.594,1.78-.77,2.693-.179.923-.364,1.83-.377,2.771-.015.946-.656,1.893-.66,2.828-.005.96.716,1.933.554,2.846-.166.926-1.038,1.727-1.195,2.642-.159.931-.394,1.845-.542,2.761-.151.935,1.125,2.076.986,2.986-.14.934-.475,1.834-.607,2.75-.131.936-1.804,1.665-1.926,2.591-.12.95,1.674,2.105,1.568,3.017-.103.942-1.638,1.69-1.804,2.612-.163.95,1.038,2.11.883,3.02-.147.947-.517,1.794-.581,2.717-.048.95-.371,1.883-.472,2.784-.092.946.506,1.937.423,2.829-.092.941-1.347,1.76-1.355,2.66-.017.956-.145,1.894-.118,2.795.031.962.718,1.861.762,2.753.065.953-1.003,1.922-.956,2.822.039.971.203,1.926.3,2.823.091.971,1.248,1.773,1.359,2.654.13.956-.694,1.995-.592,2.893.126.973.664,1.852.843,2.736.175.952-.122,1.977.084,2.865.203.945,1.007,1.701,1.186,2.584.219.934,1.171,1.762,1.283,2.676.117.931-.617,1.942-.378,3,.181,1.052,1.206,1.713,1.609,2.628.318.587.383,1.35.623,2.018-.472-.542-.917-1.119-1.453-1.616-.701-.643-1.606-1.112-2.369-1.758-.719-.605-1.91-.676-2.693-1.301-.73-.585-1.865-.704-2.656-1.326-.733-.578-1.3-1.437-2.092-2.065-.728-.578-.963-1.89-1.8-2.457-.773-.527-1.673-.926-2.51-1.489-.778-.528-2.239-.176-3.047-.773-.813-.606-1.195-1.739-2.018-2.25-.863-.539-1.273-1.768-2.103-2.265-.876-.526-2.455.08-3.235-.471-.829-.587-.778-2.253-1.507-2.888-.774-.672-2.464-.251-3.181-.886-.767-.678-1.06-1.826-1.845-2.368-.825-.575-1.383-1.453-2.132-2.016-.804-.601-1.188-1.691-1.928-2.264-.795-.608-1.688-1.07-2.444-1.628-.81-.593-2.322-.107-3.148-.585-.873-.51-1.154-1.982-1.989-2.456-.879-.5-1.57-1.076-2.347-1.652-.801-.597-1.985-.648-2.669-1.373-.682-.728-.792-2.016-1.486-2.742-.698-.727-2.396-.299-3.221-.879-.803-.552-1.31-1.542-2.227-2.014-.865-.453-1.818-.796-2.739-1.264-.868-.453-1.263-1.764-2.16-2.321-.831-.518-2.077-.411-2.929-1.016-.811-.546-1.929-.675-2.815-1.236-.836-.522-1.527-1.294-2.492-1.765-.88-.451-1.619-1.294-2.617-1.729-.906-.427-1.564-1.631-2.602-2.046-.983-.393-2.531.725-3.547.369-.998-.268-1.841-1.314-2.986-1.448-1.06-.161-2.17-.038-3.299-.093-1.077-.111-2.241.594-3.339.52-1.022-.024-2.123-.049-3.154-.073-1.011.029-2.081-.719-3.146-.593-1.062.12-2.055.576-3.051.907-1.008.285-1.98.583-2.905,1.068-.942.44-1.778,1.054-2.635,1.599-.867.512-2.532-.34-3.444.212-.908.533-1.641,1.178-2.596,1.731-.95.559-1.905,1.196-2.844,1.948-.947.755-1.731,1.92-2.48,3.019-.748,1.069-1.699,2.39-2.02,3.866-.183,1.129,1.375,2.264,1.253,3.256-.109.972-1.505,1.772-1.73,2.756-.266.96.149,2.027.003,2.997-.127.983.723,2.074.601,3.032-.056.483-.237.955-.377,1.434-.118.479-.235.963-.247,1.454-.025.965-1.535,1.845-1.622,2.855-.089.996-.217,1.999-.178,2.996.004,1.003.696,2.026.765,3.014.091.986.652,1.897.965,2.838.273.944.82,1.808,1.094,2.739.29.931-.314,2.101-.092,3.059.225.944-.03,1.865.033,2.863.065.988,1.042,1.921,1.117,2.9.126.968-.793,2.218-.493,3.167.298.943,1.822,1.421,2.234,2.301.418.874.881,1.733,1.335,2.587.469.859,1.536,1.51,1.884,2.403.322.896.005,2.066.407,2.941.409.86-.189,2.214.228,3.091.401.882,1.168,1.56,1.618,2.408.44.852,1.01,1.578,1.34,2.489.33.908,1.613,1.457,1.99,2.326.365.888-.115,2.164.368,3.004.485.826,1.134,1.557,1.633,2.371.498.815,1.822,1.129,2.317,1.938.493.806-.422,2.515.092,3.331.535.792,1.065,1.809,1.741,2.509.669.693,1.784.953,2.449,1.64.675.692,2.07.769,2.619,1.539.547.759-.101,2.392.452,3.164.545.779,2.093.804,2.657,1.557.569.753,1.693,1.08,2.262,1.829.563.751-.62,2.624-.167,3.476.447.844,2.411.889,2.855,1.728.45.855-.232,2.447.351,3.168.581.721.95,1.671,1.57,2.369.617.695,1.944.762,2.562,1.458.619.697,2.149.657,2.735,1.383.583.724-.145,2.614.521,3.282l1.976,2.011c.673.667,2.19.53,2.788,1.255.599.72,1.261,1.355,1.914,2.032.649.677,1.573,1.092,2.236,1.759.666.666.814,1.851,1.448,2.556.627.705,1.446,1.254,2.048,1.98.609.722,1.609,1.109,2.222,1.825.606.717-.188,2.733.48,3.425.668.684,1.624,1.085,2.315,1.747.683.67,1.458,1.245,2.141,1.914.697.661,1.891.79,2.585,1.444.687.66.972,1.698,1.587,2.463.612.755,1.749,1.095,2.39,1.82.635.742.622,2.173,1.38,2.799.779.604,2.441-.233,3.3.221.841.462,1.269,1.826,2.154,2.254.89.429,2.068.418,2.828.929.766.523,1.222,1.5,1.947,2.083.724.579,1.656.907,2.379,1.491.725.587,1.659.825,2.425,1.353.764.529.694,2.283,1.467,2.801.771.517,1.834.601,2.607,1.12.773.519,2.218.062,2.983.593.764.53,1.222,1.53,1.969,2.089.746.558.971,1.816,1.718,2.375.749.558,1.38,1.316,2.149,1.846.769.529,1.32,1.343,2.085,1.884.763.542,1.956.475,2.719,1.016.76.543,1.343,1.36,2.119,1.886.776.525,1.821.64,2.566,1.21.748.565,1.641.941,2.39,1.506.751.565,1.501,1.114,2.29,1.627.785.514,1.856.468,2.689.907.827.44,1.122,1.916,1.961,2.348.842.433,1.489,1.089,2.284,1.598.799.501,2.179.089,2.963.606.786.515,1.546,1.069,2.343,1.572.792.507,1.205,1.628,2.013,2.118.802.493,1.235,1.453,2.011,2.003.773.548,1.489,1.182,2.264,1.731.786.545,2.502-.365,3.323.101.822.462,1.266,1.629,2.132,2.025.859.402,1.522,1.227,2.383,1.629.853.41,2.447-.609,3.296-.175.851.43,1.149,2.031,2.043,2.405.883.383,1.496,1.407,2.387,1.79.896.362,1.975.214,2.852.601.878.397,2.056.021,2.949.347.894.322,1.591,1.216,2.493,1.513.903.304,2.13-.288,3.009.049.88.33,1.302,1.863,2.186,2.207.882.348,1.812.538,2.693.873.883.334,2.191-.518,3.072-.21l2.649.892,2.647.898c.883.298,1.561,1.189,2.438,1.495.878.305,1.441,1.419,2.298,1.758.857.34,1.79.501,2.641.845.853.344,1.598,1.04,2.461,1.352.859.315,1.869.18,2.717.525.849.341,2.026-.117,2.867.243.836.366,1.661.727,2.497,1.093.842.349,1.273,1.673,2.106,2.017.826.358,1.586.858,2.408,1.218.825.352,1.979-.021,2.795.364.815.384,1.325,1.429,2.132,1.817.809.381,2.154-.349,2.972.051.815.405,1.306,1.439,2.102,1.864.793.429,2.146-.221,2.966.186.82.403,1.653.786,2.464,1.213.814.428,1.184,1.684,1.961,2.165l2.32,1.471c.767.502,1.879.479,2.648.982.771.505.833,2.091,1.604,2.584.772.493,2.084.236,2.81.812.725.577.48,2.37,1.198,2.951.723.582,1.574,1.138,2.343,1.651.767.516,2.361-.171,3.113.371.752.541,1.148,1.585,1.899,2.128.752.544,2.058.283,2.83.804.774.522.955,2.043,1.818,2.439.634.292,1.571-.065,2.361-.112.208.68.388,1.378.852,1.755.807.653,1.582,1.261,2.378,1.865.428.324,1.174.192,1.901.079.033.026.054.069.089.092.395.252.935.276,1.474.3l.379.007h.014c.069.094.137.193.221.318l.07.075.093.07c-.096-.048.272.163.574.254l.23.066.116.026c.061.01,0,.007.269.042.259-.026.52.181,1.715-.298.58-.226,1.538-1.118,1.72-2.222.191-1.073-.126-1.728-.293-2.077-.392-.689-.586-.775-.718-.919Zm-22.818-15.441c-.783-.514-1.595-.97-2.391-1.469-.794-.5-1.082-1.804-1.885-2.302-.803-.495-1.26-1.545-2.062-2.049-.806-.501-2.365.134-3.131-.417-.763-.553-.747-2.233-1.535-2.776-.791-.545-2.343.135-3.175-.323-.828-.462-1.301-1.574-2.173-1.972-.876-.393-2.158.135-3.022-.252-.867-.389-1.484-1.425-2.338-1.861-.848-.439-1.896-.498-2.751-.919-.855-.422-1.616-1.048-2.485-1.438-.867-.401-1.977-.217-2.845-.595-.87-.36-1.093-2.332-1.986-2.683-.889-.358-1.984-.135-2.871-.469-.888-.331-1.677-.918-2.562-1.243-.886-.33-2.297.566-3.154.184-.857-.378-1.302-1.699-2.164-2.079-.864-.384-1.73-.737-2.614-1.051-.883-.312-1.713-.904-2.628-1.103-.912-.2-2.028.496-2.937.297-.916-.2-1.901-.38-2.78-.686-.877-.305-1.808-.697-2.636-1.13-.826-.431-.918-2.271-1.727-2.707-.815-.44-2.197.287-3.055-.035-.858-.32-1.698-.56-2.613-.731-.907-.172-1.688-.929-2.589-1.108-.914-.178-1.492-1.031-2.328-1.378-.831-.35-1.989.041-2.822-.313-.836-.344-1.815-.35-2.656-.696-.829-.358-2.068.147-2.896-.241-.832-.378-1.534-1.069-2.326-1.508-.8-.449-.684-2.443-1.468-2.917-.786-.463-1.937-.327-2.741-.763-.808-.429-1.407-1.312-2.226-1.719-.818-.408-1.893-.315-2.714-.725-.815-.422-2.231.207-3.028-.259-.797-.471-.513-2.505-1.217-3.113-.704-.6-1.302-1.333-2.002-1.931-.708-.597-2.594.431-3.379-.059-.782-.487-1.37-1.24-2.166-1.699-.795-.467-1.356-1.327-2.148-1.794-.793-.471-1.08-1.734-1.847-2.24-.77-.502-2.362.237-3.13-.277-.769-.511-.542-2.493-1.301-3.01-.76-.518-2.262.056-3.031-.454-.767-.514-1.411-1.206-2.243-1.621-.83-.416-1.189-1.76-2.015-2.18-.836-.422-2.524.638-3.293.114-.766-.52-1.574-1.113-2.281-1.719-.706-.605-.382-2.422-1.085-3.025-.709-.609-2.575.31-3.34-.217-.765-.528-.644-2.311-1.391-2.862-.749-.552-1.645-.902-2.392-1.453-.748-.552-1.525-1.075-2.29-1.602-.767-.528-1.318-1.44-2.119-1.917l-2.444-1.366c-.806-.476-1.501-1.043-2.274-1.567-.773-.525-1.712-.842-2.507-1.329-.812-.492-1.843-.533-2.588-1.01-.747-.486-2.08-.177-2.796-.738-.726-.556-.488-2.347-1.195-2.881-.7-.545-2.299.006-3.008-.566-.713-.566-.427-2.291-1.091-2.881-.666-.595-2.353-.223-2.927-.948-.581-.712.076-2.438-.485-3.131-.566-.713-1.19-1.493-1.833-2.122-.644-.623-1.355-1.145-1.939-1.833-.582-.695-.754-1.721-1.316-2.428-.569-.7-2.374-.351-2.994-1.019-.613-.679-1.303-1.141-2.041-1.709-.738-.561-.605-2.21-1.325-2.781-.731-.583-1.139-1.261-1.73-1.967-.592-.699-1.953-.758-2.461-1.53l-1.453-2.365c-.505-.781-1.802-.914-2.389-1.631-.586-.718-.744-1.813-1.286-2.566-.543-.753-.795-1.716-1.336-2.466-.544-.756-1.782-.94-2.366-1.661-.586-.724-.111-2.441-.833-3.057-.715-.612-1.827-.788-2.521-1.387-.711-.61-1.732-.969-2.308-1.689-.572-.724-.93-1.662-1.353-2.493-.429-.82-1.562-1.269-1.989-2.088-.43-.833.34-2.348-.195-3.081l-1.596-2.222c-.536-.732-1.958-.829-2.496-1.566-.516-.749-.556-1.827-1.063-2.571-.513-.753-.421-1.923-.947-2.655-.526-.737-1.352-1.261-1.859-2.009-.504-.754-.404-1.874-.884-2.63-.494-.751-2.397-.543-2.963-1.266-.562-.722-.268-2.093-.825-2.804-.577-.718-1.499-1.195-1.907-2.006-.421-.806.069-1.978-.24-2.823-.297-.85-1.098-1.519-1.34-2.387-.268-.872.004-2.021-.367-2.825-.363-.804-2.418-.817-2.83-1.624-.388-.812-.943-1.543-1.333-2.356-.393-.821-.192-1.934-.52-2.765-.293-.854.679-2.143.389-2.965-.288-.829-1.528-1.353-1.823-2.198-.309-.841-.524-1.7-.752-2.556-.21-.863-.714-1.701-.844-2.583-.162-.883.721-1.874.659-2.739-.055-.88-.128-1.783-.269-2.64-.171-.863-.198-1.737-.249-2.598-.07-.857-.846-1.662-.92-2.532-.081-.871-.369-1.738-.316-2.608.019-.877-.409-1.756-.4-2.64.035-.891,1.797-1.671,1.936-2.494.095-.839-.756-1.782-.654-2.644.115-.856-.884-1.9-.72-2.773.2-.865,1.175-1.556,1.366-2.392.194-.846.124-1.759.313-2.608.034-.173.066-.342.099-.508.018-.133.019-.272.048-.413.027-.286.082-.589.174-.907.213-.66,1.229-.863,1.604-1.458.405-.633,1.244-.803,1.847-1.269.625-.483,1.345-.835,2.053-1.239.712-.406.956-1.818,1.743-2.158.805-.362,2.074.387,2.813.132.745-.305,1.107-1.832,1.946-1.986.417-.092.898.124,1.354.347.465.261.905.526,1.29.48.767-.13,1.442-1.381,2.268-1.478.839-.116,1.657.86,2.421.893.804.127,1.553.449,2.312.62.782.205,1.603.42,2.361.618.793.145,1.718.162,2.549.252.834.048,1.969-1.436,2.855-1.314.927.12,1.254,2.17,2.038,2.464.805.361,2.321-.536,3.054.025.734.579,1.394,1.22,2.084,1.815.727.612.864,2.005,1.644,2.441.807.439,1.82.524,2.667.84.873.31,1.607.971,2.453,1.288.885.322,1.476.947,2.243,1.413.785.485,2.627-.614,3.378-.092.765.55,1.378,1.286,2.114,1.825.758.558,1.421,1.154,2.178,1.664.785.524,1.224,1.527,1.993,2.024.794.508,1.838.608,2.611,1.105.794.51.731,2.29,1.491,2.805.786.532,1.89.548,2.624,1.113.758.579,2.301.109,3.04.671.758.576,1.312,1.308,2.096,1.813.795.518.769,2.373,1.591,2.84.829.479,1.753.785,2.577,1.241.843.468,1.565.967,2.356,1.449.796.481,1.631.839,2.39,1.368.764.531,1.388,1.257,2.141,1.793.756.536,2.488-.392,3.274.111.779.497,1.38,1.271,2.159,1.775.78.502,1.783.666,2.571,1.176.778.508.921,1.992,1.707,2.504.766.508,1.811.578,2.621,1.056.792.469,1.917.41,2.726.896.795.475,1.266,1.524,2.046,2.056.761.517,1.167,1.594,1.97,2.089.783.48,2.013.276,2.813.785.782.494,1.045,1.777,1.813,2.333.743.536,1.613.943,2.398,1.472.762.511,1.425,1.195,2.207,1.728.76.519,2.153.183,2.919.752.734.553,1.64,1.016,2.348,1.654.7.593,1.411,1.195,2.133,1.806.4.532.775,1.098,1.232,1.633.354.439.968.722,1.495,1.088.24.646.428,1.397.829,1.757-.088.676-.308,1.425-.057,1.902.316.727,2.531.73,2.833,1.676.346.879-1.373,2.318-1.154,3.099.106.51.961.969,1.533,1.513.363-.654.952-1.298.88-1.984-.159-.974-.167-1.933-.408-2.837-.146-.758-.278-1.484-.447-2.195.335.159.752.297,1.176.487.512.238,1.035.581,1.308,1.001-.038-.135-.081-.253-.126-.331-.543-1.035-1.704-1.367-2.361-2.003-.132-.126-.277-.223-.414-.338-.34-.711-.747-1.388-1.085-2.019-.436-.893-1.348-1.447-1.779-2.232-.479-.819-.453-1.917-.907-2.666-.487-.808-.638-1.759-1.075-2.497-.468-.793-1.812-1.017-2.29-1.742-.489-.755-1.412-1.215-1.842-1.965-.488-.775.139-2.033-.183-2.781-.247-.779-.996-1.426-1.037-2.266-.089-.775-.416-1.662-.462-2.555-.04-.884,1.396-1.961,1.256-2.831-.104-.827-1.385-1.524-1.554-2.42-.174-.831-.502-1.667-.647-2.57-.153-.843-.182-1.741-.254-2.658-.052-.854.94-1.75.942-2.655.013-.844-.96-1.732-.932-2.655.014-.86,1.144-1.755,1.145-2.663-.009-.841-1.43-1.698-1.548-2.619-.094-.864.939-1.854.865-2.765-.072-.871-.479-1.69-.429-2.617.039-.865-.744-1.873-.542-2.787.167-.864.337-1.75.513-2.66.197-.864,1.271-1.598,1.347-2.505.08-.843-.29-1.767-.313-2.7-.011-.86-1.016-1.767-1.014-2.699.015-.884.718-1.808.831-2.73.116-.867-.126-1.838.044-2.746.169-.867,1.51-1.528,1.684-2.424.176-.867.766-1.706.91-2.61.144-.866-1.028-2.032-.763-2.917.26-.854,1.437-1.451,1.699-2.325.263-.861,1.179-1.657,1.345-2.557.165-.871-.559-1.922-.38-2.817.206-.868.414-1.748.624-2.636.183-.877.275-1.783.456-2.68.179-.879,1.09-1.643,1.247-2.543.135-.889.271-1.786.408-2.69.162-.914-.147-1.799.052-2.811.205-1.048-.308-2.07-.242-2.974.066-.901,1.386-1.64,1.472-2.371.082-.719-1.01-1.694-.768-2.318.11-.302.524-.433.913-.451.397-.034.695.124.771.101.063-.016-.133-.285-.26-.648-.157-.388-.215-.827-.131-1.083.037-.092.165-.186.3-.228.851-.265,2.356,1.34,3.155,1.043.795-.316,1.674-.846,2.437-1.281.742-.442.943-1.951,1.73-2.378.788-.418,1.732-.458,2.574-.706.838-.206,1.546-1.236,2.428-1.344.874-.114,1.818.362,2.68.293.859-.094,1.588-.898,2.457-1.018.863-.146,1.822.508,2.673.47.849-.026,1.699-.406,2.556-.403.862.052,1.69,1.387,2.498,1.414.813.019,1.668-.562,2.497-.538.821-.012,1.696-.867,2.546-.808.849.025,1.736.068,2.572.203.836.179,1.537.92,2.353,1.106.815.22,1.671.325,2.488.562.819.269,1.166,1.82,1.94,2.092.782.304,1.473.667,2.215,1.06.735.408,1.899.105,2.641.536.745.456,1.004,1.84,1.758,2.22.754.396,2.359-1.024,3.214-.735.85.288,1.344,1.512,2.178,1.812.847.314,2.002.134,2.766.601.765.471,1.561.924,2.307,1.417.749.511,1.495,1.019,2.238,1.525.749.509,1.713.682,2.465,1.179.761.504,1.143,1.689,1.824,2.302.683.617.892,1.784,1.574,2.399.694.629,2.094.27,2.861.769.774.509.896,2.06,1.68,2.563.857.547,1.643.574,2.29,1.041.641.462.735,1.574,1.275,2.044.552.478,1.963-.004,2.627.451.671.46.64,1.669,1.19,2.136.581.503,1.487.65,1.877,1.374.404.791.589,1.663.91,2.465.33.825.393,1.737.705,2.53.337.815.644,1.672.941,2.471.335.815,1.056,1.448,1.312,2.268.238.854.471,1.691.699,2.51.252.852.189,1.804.46,2.599.272.846.533,1.681.818,2.471.288.845.696,1.622.895,2.439.247.871.035,1.811.23,2.614.21.85.876,1.64,1.184,2.484.333.826.438,1.726.704,2.581.248.856,1.621,1.475,1.782,2.375.142.888.325,1.867.28,2.79-.023.909-.311,1.819-.334,2.725-.023.91.348,1.715.456,2.62.125.892.314,1.626.561,2.522.239.881.655,1.734.894,2.63.234.906-1.039,2.071-1.008,2.98.021.905-.412,1.771-.452,2.679-.04.9.765,1.844.727,2.756-.026.905.367,1.82.348,2.738-.013.91.213,1.851.165,2.768-.048.914-1.494,1.741-1.541,2.648-.073.909-.479,1.832-.519,2.744-.041.907.187,1.883.209,2.8.025.909.752,1.821.742,2.743-.002.92-.968,1.769-1.031,2.686-.063.909,1.061,1.909,1.039,2.832-.021.918-1.052,1.801-1.087,2.722-.039.918.025,1.809-.056,2.729-.084.916-.06,1.752-.296,2.661-.231.899-.871,1.705-1.102,2.607-.231.904,1.259,2.13,1.166,3.055-.089.917-1.768,1.618-1.931,2.534l-.576,2.725c-.162.915-.371,1.885-.47,2.812-.099.927.743,1.986.829,2.935.085.936-.273,1.918-.189,2.857.083.946.19,1.777.096,2.714-.093.931.834,2.073.563,2.987-.268.902-.86,1.724-1.128,2.628-.274.885-.73,1.694-.826,2.595-.087.891.528,1.802.522,2.721-.009.914-1.311,1.793-1.344,2.706-.026.917.689,1.884.55,2.795-.147.904.077,1.94-.175,2.831-.246.884-1.3,1.554-1.557,2.439-.26.891-.659,1.775-.824,2.693-.161.909-.513,1.81-.63,2.733-.117.922.239,1.906.121,2.83-.118.92-.968,1.722-1.13,2.644-.162.919-.546,1.759-.739,2.685-.193.922.106,1.944-.082,2.869-.184.927-.817,1.808-.963,2.747-.15.935.056,2.042.056,3.003-.003.953-.259,1.921-.232,2.888.026.972,1.299,1.925,1.207,2.873-.09.948.382,2.072.168,3.005-.205.928-1.018,1.742-1.21,2.69-.199.948-1.641,1.81-1.667,2.801-.024.986,2.004,1.965,2.045,2.922.033.959-.661,1.952-.628,2.925.048.972-.152,1.982-.112,2.969.049.986.703,1.872.846,2.836.141.961-.228,2.02-.052,2.983.172.964.66,1.863.798,2.821.135.957.129,1.942.183,2.914.05.971.985,1.861,1.063,2.815.074.962-1.531,2.181-1.314,3.128.212.945,1.46,1.604,1.856,2.485.385.877.138,2.046.542,2.912.402.878,1.778,1.378,2.027,2.284.246.902-.588,2.06-.407,2.98.178.917.181,1.877.359,2.789.179.916,1.325,1.627,1.573,2.519.247.89,1.228,1.524,1.525,2.4.295.874-.001,1.951.287,2.824.286.872,1.16,1.617,1.386,2.509.22.891.438,1.774.659,2.667.252.926.035,1.988.319,2.915.264.925-.377,2.134-.079,3.067.28.937,1.155,1.684,1.333,2.646.205.946.683,1.846.91,2.785.223.949-.71,2.305-.327,3.215.368.912,2.301,1.12,2.694,1.99.399.87.366,1.948.784,2.815.123.246.277.477.441.703-.724.035-1.528.186-2.01-.131Zm-101.051-161.756c.294.474.576.97.908,1.417.297.394.547.836.818,1.274-.305-.392-.605-.779-.95-1.114-.395-.385-.573-.997-.776-1.577Zm123.162,177.168h0s0,0,0,0v-.002s0,.002,0,.002Zm120.453-383.534c-.113.008-.219.072-.322.156-.078.024-.168.06-.201.039-.189-.146.893-1.154,1.12-1.433.017-.016.097.588.26.7-.24.182-.547.383-.834.542-.007,0-.016-.003-.023-.003Zm-233.55,225.58c-.125-.174-.147-.313-.14-.439.086.055.17.113.269.14.21-.241.018-.857.254-1.199.25-.455,1.112-.781,1.739-1.239-.108.588-.231,1.169-.406,1.768-.073.247-.245.475-.49.681-.12.101-.27.203-.446.289-.156.079-.524.217-.78,0Zm-.789-1.526c.008-.277.123-.548.273-.818.25.237.451.49.504.773.045.209.009.432-.045.674-.006.144-.074.287-.082.458-.397-.253-.649-.742-.649-1.087Zm2.912-1.212c.061-.331.122-.66.172-1.007.056-.316.075-.923.026-1.354.233.467.567,1.154.461,1.535-.083.334-.343.596-.659.826Z" fill="#f6bf9c"/></g></svg>