<?xml version="1.0" encoding="UTF-8"?><!DOCTYPE svg PUBLIC "-//W3C//DTD SVG 1.0//EN" "http://www.w3.org/TR/2001/REC-SVG-20010904/DTD/svg10.dtd" []><svg xmlns="http://www.w3.org/2000/svg" xmlns:xlink="http://www.w3.org/1999/xlink" height="500.9" preserveAspectRatio="xMidYMid meet" version="1.0" viewBox="-0.4 -0.6 398.4 500.9" width="398.4" zoomAndPan="magnify"><g id="change1_1"><path d="M220.16,214.09c0.74,5.48,1,10.97-1.13,16.31c-0.59,1.47-1.04,3.03-0.68,4.8c0.31,1.52,0.04,3.17-1.07,4.53 c-0.37,0.45-0.63,1.13-0.63,1.7c-0.01,3.58-2.13,6.35-3.6,9.33c-1.1,2.23-1.32,4.71-2.45,6.9c-0.17,0.32-0.13,0.8-0.37,1.03 c-2.49,2.4-1.95,6.48-4.81,8.68c-0.27,0.21-0.29,0.78-0.37,1.2c-0.15,0.81-0.34,1.73-1,2.13c-1.89,1.13-2.66,2.9-3.36,4.84 c-0.37,1.04-0.93,2-2.08,2.65c-1.2,0.67-1.28,2.32-2.06,3.48c-2.3,3.4-5.25,6.25-7.54,9.68c-2.57,3.85-4.83,7.97-7.81,11.5 c-5.66,6.71-9.53,14.51-13.69,22.07c-4.31,7.81-8.58,15.71-11.76,24.13c-1.47,3.89-3.14,7.75-4.57,11.65 c-1.02,2.79-1.79,5.73-2.74,8.57c-0.58,1.71-1.24,3.43-2.26,5c-0.88,1.36-0.86,3.11-1.49,4.65c-0.68,1.64-1.21,3.33-2.15,4.87 c-1.03,1.69-0.73,3.87-1.93,5.54c-2.28,3.15-2.23,7.1-3.54,10.6c-1.72,4.59-3.08,9.32-4.42,14.05c-1.32,4.68-2.41,9.42-3.61,14.13 c-1.5,5.9-2.94,11.81-4.4,17.71c-1.22,4.94-2.77,9.83-3.54,14.89c-0.51,3.32-0.99,6.74-2.21,9.83c-1.33,3.4-2.3,6.89-4.36,10.14 c-3.14,4.95-7.12,8.56-12.08,11.22c-4.34,2.33-8.32,5.47-13.31,6.48c-2.67,0.54-5.22,1.42-8.03,1.57 c-7.05,0.38-13.93-0.85-20.87-1.54c-7.75-0.77-15.02-3.28-22.21-5.93c-3.98-1.46-8.11-2.99-11.48-5.66c-2.27-1.8-4.53-3.67-6.77-5.5 c-3.84-3.14-6.95-6.92-10.1-10.61c-2.92-3.41-5.1-7.47-6.06-12.03c-0.38-1.78-1.1-3.49-1.66-5.23c-1.14-3.6-1.14-7.37-1.6-11.06 c-0.8-6.42-0.18-12.81,1-19.12c0.65-3.48,1.92-6.81,3.74-9.89c-0.25-1.25,0.54-2.23,0.86-3.34c1.54-5.33,3.86-10.35,6.11-15.4 c2.65-5.95,4.91-12.06,7.5-18.02c3.08-7.1,5.44-14.47,8.35-21.62c1.04-2.56,1.9-5.21,3.06-7.73c-0.27-0.21-0.43-0.52-0.31-0.81 c1.58-4.02,1.61-8.43,3.17-12.43c0.55-1.42,0.84-2.79,0.94-4.26c-1.98-3.76-2.3-7.85-2.38-11.98c-0.02-0.92-0.17-1.83-0.21-2.75 c-0.19-4.75,0.16-9.49,0.71-14.18c0.71-5.94,1.36-11.96,4.52-17.29c0.09-0.16,0.24-0.32,0.25-0.49c0.29-3.41,2.12-6.09,4.05-8.73 c0.37-2.7,0.22-5.41,0.91-8.16c0.55-2.17,0.4-4.72,0.51-7.09c0.17-3.52,0.76-6.98,1.25-10.44c0.62-4.37,1.26-8.75,2.49-13.04 c0.65-2.27,0.68-4.74,1.25-7.08c1.27-5.25,2.99-10.33,5.11-15.31c1.22-2.86,1.64-6.04,3.03-8.87c1.7-3.47,3.23-7.03,5.12-10.39 c2.04-3.64,4-7.48,6.78-10.51c2.1-2.28,4-4.79,6.35-6.91c1.95-1.76,3.4-4.11,5.43-5.88c3.18-2.79,6.19-5.79,9.65-8.27 c0.73-0.52,1.2-1.44,2.24-1.5c3.44-1.74,6.34-4.41,10-5.75c2.93-2.31,6.43-3.5,9.86-4.72c3.32-1.18,6.76-2.04,10.15-3.03 c1.93-1.14,4.04-1.54,6.24-1.55v0c1.43-1.26,3.21-1.68,5.02-1.97c1.02-0.16,2.04-0.18,3.05-0.53c3.55-1.23,7.27-1.49,10.99-1.69 c2.31,0.49,4.64-0.74,6.95,0.07c0.25-0.05,0.49-0.1,0.74-0.14c0.5-0.74,1.02-0.7,1.56-0.04c0.99,0.03,1.99,0.05,2.98,0.08 c0.6-0.38,0.94-0.18,1.06,0.48c5.78,0.99,11.6,1.81,17.04,4.16c1.73,0.19,2.99,1.38,4.45,2.13c1.87,0.4,3.68,0.88,4.56,2.87 c0.11,0.26,0.4,0.59,0.64,0.62c2.23,0.26,3.16,2.55,5.1,3.2c0.9,0.3,1,1.18,1.5,1.76c0.97,1.12,1.85,2.32,2.77,3.48 c1.84,0.64,3.39,1.6,3.98,3.62c0,0,0,0,0,0c2.64,2.27,3.96,5.46,5.71,8.32c1.2,1.96,2.64,3.87,3.14,6.21 c1.21,1.43,2.1,3.03,2.48,4.88c0.1,0.48,0.27,0.91,0.56,1.35c2.91,4.49,4.06,9.62,5.25,14.72c0.28,1.22-0.21,2.46-0.1,3.76 C217.86,206.99,219.66,210.4,220.16,214.09z M395.95,288.18c0.08-1.04,0.25-2.06,0.26-3.12c0.03-3.2-1.06-6.24-1.17-9.45 c-0.14-3.94-1.51-7.76-2.28-11.64c-1.32-6.62-2.83-13.22-4.49-19.78c-1.38-5.47-2.97-10.89-4.45-16.33 c-1.35-4.96-2.83-9.89-4.11-14.88c0.36-1.44-0.26-2.61-1.01-3.74c-0.18-0.59-0.37-1.19-0.55-1.78c0.04-0.5,0.06-0.99-0.55-1.19 c-0.02-0.36-0.04-0.72-0.07-1.09c0,0,0,0,0,0c0.48-0.63,0.24-1.28,0.05-1.93c-0.81-2.7-1.01-5.51-1.57-8.26 c-1.09-5.32-1.9-10.69-3.2-15.96c-0.07-2.02,1.09-3.78,1.2-5.76c0.31-5.46,1.35-10.87,1.33-16.36c-0.01-4.04,0.99-8,0.66-12.09 c-0.57-6.89-1.57-13.66-3.85-20.22c-1.51-4.35-3.36-8.54-5.18-12.76c-2.09-4.85-5.44-8.93-8.04-13.46c-0.21-0.9-0.44-1.79-0.63-2.69 c-1.41-6.59-2.41-13.28-4.33-19.77c-0.97-3.28-1.12-6.77-2.19-10.04c-2.36-7.21-5.25-14.21-8.24-21.18 c-1.97-4.6-4.65-8.7-8.02-12.36c-0.06-0.35-0.01-0.77-0.19-1.05c-2.16-3.25-4.84-6.08-7.51-8.89c-0.74-0.78-1.75-1.64-2.97-1.92 c-0.24-0.84-1-1.03-1.67-1.3c-1-0.4-2-1.03-2.37-1.94c-0.56-1.36-1.7-1.93-2.77-2.56c-1.66-0.97-3.7-1.3-4.8-3.15 c-0.19-0.31-0.72-0.44-1.13-0.58c-3.1-1.07-6.06-2.61-8.87-4.15c-4.11-2.26-8.49-3.24-12.89-4.4c0.1,0.3,0.19,0.6,0.28,0.9 c-0.09-0.3-0.18-0.6-0.28-0.9c-1.19-0.61-2.62-0.11-3.76-0.67c-1.98-0.97-4.01-0.99-6.1-0.74c-1.53-0.16-3.06-0.27-4.58-0.49 c-1.55-0.23-2.96,0.44-4.47,0.51c-2.36,0.1-4.59-0.36-6.9-0.84c-3.59-0.75-6.76,1.38-10.01,2.58c-1.22,0.45-2.68,0.36-3.66,1.42 c-2.09,0-4.1,0.29-5.85,1.58c-1.36-0.24-1.87,1.25-3.03,1.47c-2.95,0.55-5.27,2.45-7.8,3.86c-0.87,0.48-1.95,0.59-2.69,1.43 c-1.19,1.36-2.68,2.39-4.31,3.17c-1.03,0.5-1.86,1.15-2.33,2.21c0,0,0,0,0,0c-1.71,1.41-2.64,3.52-4.48,4.85 c-1.36,0.98-1.63,2.83-2.78,4.03c-2.12,1.93-2.83,4.76-4.34,7.09c-3.24,4.97-5.71,10.43-7.8,16.02c0,0,0,0,0,0 c-0.93,1.34-1.31,2.87-1.54,4.46c-0.02,0.11-0.05,0.22-0.06,0.34c0,0,0.01,0.17,0.01,0.17c-1.18,1.17-1.05,2.8-1.47,4.23 c0.01,0,0.01,0,0.02,0c-0.01,0-0.01,0-0.02,0c-0.23,0.77-0.55,1.52-0.68,2.3c-0.84,4.89-2.04,9.72-2.34,14.71 c-0.27,4.54-0.87,9.07-0.67,13.63c0.15,3.39,0.72,6.74,0.92,10.1c0.29,4.99,1.49,9.79,2.92,14.43c1.6,5.2,3.26,10.41,5.53,15.45 c4.32,9.55,8.49,19.16,13.25,28.51c2.13,4.18,5.06,7.96,6.29,12.6c0.68,2.66,1.23,5.35,2.25,7.9c1.32,3.29,2,6.8,3.78,9.94 c1.92,3.38,3.51,6.95,5.75,10.15c0.34,1.7,0.93,3.32,1.42,4.97c1.92,6.43,4.56,12.6,6.31,19.1c1.33,4.95,3.12,9.84,4.75,14.74 c2.09,6.31,4.37,12.6,5.61,19.15c0.56,2.98,1.85,5.76,2.14,8.78c0.6,6.22,1.26,12.44,1.68,18.69c0.36,5.44,1.2,10.87,1.72,16.3 c0.68,7.12,1.8,14.17,3.52,21.06c1.55,6.23,3.67,12.38,6.76,18.09c1.17,2.15,2.68,4.11,3.91,6.22c2.96,5.09,6.87,9.21,11.98,12.19 c1.02,0.59,2.17,0.77,3.18,1.43c5.04,3.29,10.63,5.37,16.49,6.45c4.99,0.92,9.98,1.92,15.18,1.74c3.42-0.12,6.87-0.1,10.3-0.23 c3.79-0.14,7.55-0.9,11.31-1.54c4.61-0.78,9.15-1.83,13.51-3.34c6.14-2.12,12.05-4.91,17.21-8.98c2.01-1.58,4.13-3.12,5.53-5.34 c1.86-2.94,4.09-5.57,5.88-8.63c3.79-6.48,6.35-13.25,7.48-20.59c0.68-4.43,0.85-8.94,1.64-13.34 C397.94,299.75,396.82,293.99,395.95,288.18z" fill="#84502F"/></g><g id="change2_1"><path d="M256.36,210.06c-0.52,1.42-1.53,2.39-3.04,2.14c-1.61-0.26-3.47-0.34-4.26-2.29 c-0.46-1.13-1.31-1.91-2.4-2.43c-0.62-0.3-1.09-0.72-1.52-1.28c-1.63-2.1-3.7-3.87-4.78-6.38c-0.19-0.44-0.46-0.88-0.98-1.04 c-2.24-3.2-3.83-6.77-5.75-10.15c-1.78-3.14-2.47-6.65-3.78-9.94c-1.02-2.55-1.58-5.25-2.25-7.9c0.38-4.34-1.33-8.48-1.09-12.84 c0.16-2.89-0.25-5.83-0.08-8.74c0.19-3.18,0.57-6.36,0.87-9.54c0.68-1.05,0.17-2.22,0.34-3.32c0.91-3.57,1.91-7.12,2.71-10.71 c0.68-3.05,1.87-5.97,2.2-9.09c0.79-0.61,0.84-1.59,1.15-2.42c0.54-1.43,0.76-2.99,1.66-4.26c1.12-1.59,1.78-3.31,2.04-5.24 c0.12-0.9,0.36-1.82,0.75-2.64c1.21-2.54,1.74-5.31,2.78-7.9c2.47-4.18,3.97-8.81,5.96-13.21c1.82-1.97,2.32-4.65,3.64-6.91 c2.21-3.79,4.15-7.75,5.98-11.73c0.86-1.88,2.42-3.41,2.73-5.54c2.36-2.79,4.19-5.93,5.97-9.1c1.33-1.52,2.34-3.23,4.36-4.23 c2.02-1,3.73-2.51,6.22-2.19c2.61,0.34,5.28,0.22,7.76,1.44c3.17,1.56,6.31,3.22,9.71,4.25l-0.02-0.01 c0.02,0.24,0.17,0.33,0.39,0.35c0.86,0.55,1.64,1.19,2.61,1.6c2.63,1.13,5.19,2.41,7.78,3.63c-3.26,3.19-3.86,7.33-4.11,11.6 c-0.79-0.1-1.5-0.6-2.34-0.47c-3.14-2.8-6.52-5.23-10.51-6.69c-0.28-0.1-0.52-0.31-0.76-0.49c-3.05-2.23-6.83-2.88-10.1-4.64 c-0.64-0.34-1.35,0.06-1.81,0.59c-1.89,2.2-4.01,4.23-5.11,7.01c-2.58,3.63-4.51,7.63-6.49,11.6c-1.48,1.44-1.69,3.51-2.59,5.23 c-2.38,4.55-4.13,9.37-6.3,14.01c-0.65,1.38-1.43,2.73-1.52,4.31c-0.75,0.22-0.71,0.94-0.9,1.49c-0.52,1.43-0.97,2.9-1.51,4.33 c-1.17,3.13-2.37,6.24-3.56,9.36c-0.99,0.5-1.15,1.54-1.14,2.38c0.01,2.72-1.21,5.11-1.94,7.61c-1.4,4.84-3.82,9.39-3.87,14.59 c-0.74,2.58-1.34,5.16-1.58,7.87c-0.59,6.47-1.37,12.92-0.88,19.43c-0.03,2.21-0.09,4.4,0.25,6.62c1.32,8.73,4.21,16.91,8.19,24.74 c0.25,0.49,0.5,1,0.85,1.42c2.02,2.47,3.79,5.12,5.44,7.85c0.75,1.24,1.52,2.39,2.98,2.87C255.3,206.68,256.47,208.15,256.36,210.06 z M372.8,179.03c-0.07-2.02,1.09-3.78,1.2-5.76c0.31-5.46,1.35-10.87,1.33-16.36c-0.01-4.04,0.99-8,0.66-12.09 c-0.57-6.89-1.57-13.66-3.85-20.22c-1.51-4.35-3.36-8.54-5.18-12.76c-2.09-4.85-5.44-8.93-8.04-13.46 c-1.41-1.01-2.59-2.27-3.77-3.54c-1.54-0.47-1.71-2.02-2.28-3.16c-0.81-1.6-1.97-2.85-3.35-3.81c-1.51-1.04-2.89-2.22-4.35-3.31 c-0.65,1.05-0.5,2.37-1.23,3.41c-1.79,2.53-3.93,2.75-7.25,2.11c-0.24-0.05-0.46-0.2-0.69-0.24c-0.75-0.11-1.68-1-2.15-0.4 c-0.62,0.8-0.08,1.87,0.48,2.72c0.13,0.2,0.29,0.39,0.44,0.58c0.63,0.48,1.26,0.95,1.89,1.43c1.4,1.08,3,2.13,3.66,3.73 c0.92,2.23,2.31,3.81,4.42,4.82c0.62,0.29,0.96,0.72,1.2,1.3c1.66,1.14,1.83,3.21,2.94,4.72c1.53,2.1,3.26,4.05,4.61,6.3 c1.55,2.59,3.03,5.2,4.39,7.91c1.8,3.6,3.03,7.38,4.36,11.14c1.7,4.81,2.48,9.86,3.55,14.83c0.47,2.18,1.39,4.23,1.35,6.59 c-0.08,4.99,0.16,9.98,0.3,14.97c0.03,0.95-0.21,1.83-0.4,2.73c0.19,1.3,0.07,2.53-0.4,3.79c-0.82,2.17,0.36,4.15,2.62,4.66 C371.01,181.62,371.84,180.24,372.8,179.03z M39.86,314.07c0.35-4.14,1.24-8.18,1.83-12.27c0.56-3.86,2.08-7.45,2.7-11.27 c0.39-2.4,1.21-4.51,3.02-6.3c1.32-1.3,1.21-3.43,2.03-5.07c0.22-0.43,0.18-1.02,0.7-1.25c1.88-0.82,3.03-2.54,3.59-4.2 c1.04-3.1,3.95-4.82,5.1-7.81c0.36-0.93,1.73-1.47,2.64-2.18c3.09-3.74,6.17-7.48,9.26-11.22c3.67-5.06,6.24-10.81,10.39-16.02 c-1.99,0.12-3.07,1.32-4.58,1.44c-2.22,0.18-4.22-0.35-6.2-1.2c-1.87,2-4.26,3.44-5.94,5.65c-3.62,4.75-7.72,9.1-11.58,13.66 c-1.02,1.21-1.48,2.78-2.61,3.93c-0.31,0.31-0.56,0.65-1.02,0.73c-1.35,2.94-3.27,5.54-5.05,8.2c-1.15,1.73-1.05,3.9-2.41,5.46 c-1.93,2.64-3.76,5.32-4.05,8.73c-0.01,0.17-0.16,0.33-0.25,0.49c-3.15,5.33-3.81,11.34-4.52,17.29c-0.56,4.69-0.91,9.44-0.71,14.18 c0.04,0.92,0.19,1.83,0.21,2.75c0.09,4.14,0.41,8.22,2.38,11.98c0.83,0.39,1.65,0.77,2.48,1.16c2.88-0.24,3.29-0.87,2.15-3.53 c-0.29-0.68-0.22-1.3-0.11-1.96C38.96,321.61,39.54,317.85,39.86,314.07z M153.92,246.28c0.11,1.51,1.38,2.85,0.61,4.46 c1.37,6.09,1.98,12.28,2.59,18.47c1.06,2.02,0.7,4.25,0.69,6.36c-0.02,3.27,1.39,6.33,1.02,9.65c-0.4,3.64-0.04,7.35-0.7,10.96 c-0.33,1.83,0.58,3.68-0.32,5.44c0.85,5.39-1.26,10.23-2.68,15.23c-1.78,6.32-5.47,11.68-8.22,17.51c-1.01,2.14-1.28,4.68-2.99,6.45 c-1.65,1.7-1.99,3.53-1.34,5.71c0.3,1.01,1.16,1.56,1.65,2.41c3.92,0.7,5.57-0.06,7.51-3.36c0.71-1.22,1.37-2.51,2.31-3.53 c2.8-3.04,3.96-6.93,5.83-10.46c1.15-2.18,1.63-4.56,2.78-6.71c1.53-2.85,3.21-5.68,4.28-8.71c1.67-4.73,3.39-9.48,4.15-14.48 c0.56-3.06,0.98-6.14,0.51-9.25c-0.19-1.28,0.82-2.32,0.62-3.58c-0.39-0.15-0.91-0.18-0.92-0.75c-0.05-3.81-0.13-7.62,0.06-11.44 c0.08-1.53-0.67-3.13-0.5-4.77c-0.33-0.41-0.41-0.89-0.38-1.39c0.1-1.83-0.33-3.7-0.13-5.43c0.17-1.5-0.7-2.59-0.64-4.03 c0.08-1.94-0.51-4.01-0.55-5.94c-0.03-1.56-0.97-2.75-0.89-4.37c0.08-1.67-0.43-3.6-0.99-5.27c-0.35-1.05-0.86-1.93-0.51-3.05 c-0.4-0.48-1.06-0.7-0.94-1.62c0.25-1.93-0.52-3.77-0.94-5.62c-0.41-1.79-1.15-3.5-1.3-5.35c-1.15-1.54-1.26-3.46-1.68-5.21 c-0.39-1.59-0.84-3.2-1.35-4.72c-0.5-1.51-0.67-3.11-1.22-4.63c-0.34-0.93-1.53-2-0.75-3.29c-0.65-0.36-1.05-0.75-1.2-1.64 c-0.38-2.3-0.49-4.63-1.52-6.87c-0.49-1.07-1.43-2.47-0.84-3.95c-0.54-0.48-0.77-1.03-0.76-1.78c0.05-2.72-1.32-4.99-2.94-6.9 c-1.87-2.18-4.73-2.22-8.43-0.27c-3.12,1.65-6.45,2.91-9.69,4.35c-3.2,2-6.99,2.62-10.29,4.38c-1.05,0.61-2.09,1.25-3.16,1.84 c-2.69,1.48-5.48,2.8-7.94,4.66c-0.76,0.57-1.29,1.35-2.23,1.81c-2.57,1.25-5.03,2.73-7.52,4.13c-0.66,0.37-1.05,1.29-2.03,0.96 c0,0,0.01-0.04,0.01-0.04c-0.11,0.17-0.21,0.33-0.32,0.5c-2.29,2.59-5.99,3.24-8.19,5.96c-0.03,0.31-0.14,0.62-0.09,0.92 c0.16,0.94-0.51,2.35,0.4,2.74c1.04,0.44,1.88-0.83,2.4-1.65c0.96-1.51,2.58-2.05,3.87-3.07c3.16-2.5,6.2-5.17,9.85-7 c1.43-0.71,2.55-0.51,3.97,0.18c2,0.97,3.36,2.37,4.29,4.3c0.65-0.65,1.29-1.5,2.2-1.55c2.6-0.16,3.63-2.71,5.8-3.61 c1.4-0.58,2.57-1.79,4.18-2.06c0.51-1.41,2.07-1.14,3.01-1.87c3.47-2.69,7.75-3.77,11.58-5.74c1.16-0.6,1.88-0.15,1.94,1.18 c0.24,5.19,2.68,10,2.65,15.24c1.16,4.91,2.33,9.83,3.49,14.74C152.07,236.64,153.56,241.36,153.92,246.28z M325.65,67.2 c-0.92-0.86-1.89-1.61-3.09-2.05c0.43,1.54,1.52,2.75,2.17,4.18c0.43,0.94,1,1.18,1.7,0.18c0.31-0.44,0.79-0.76,0.86-1.35 C326.54,68.21,326.12,67.64,325.65,67.2z" fill="#45ACC9"/></g><g id="change3_1"><path d="M321.61,108.44c-0.5-0.1-0.97,0.11-1.45,0.16c-2.25,0.24-4.12-1.29-4.26-3.62 c-0.19-3.13,0.06-6.25,0.92-9.29c0.47-1.65-0.13-3.28,0-4.94c0.05-0.64-0.71-0.84-1.43-0.66c-1.01,0.25-2.03,0.43-3.07,0.56 c-3.01,0.39-4.93-1.17-6.46-3.41c-0.96-1.41-1.73-2.95-2.59-4.43c-0.5-1.58-1.01-3.17-1.51-4.75c-0.24-1.67-0.01-3.44-1.13-4.9 l0.02,0.03c-0.42-3.05-0.82-6.1-0.76-9.18c0.25-4.26,0.85-8.4,4.11-11.6c0.13-0.01,0.25-0.03,0.38-0.04 c5.13-1.85,8.57,0.81,11.58,4.43c2.27,2.73,4.41,5.56,6.61,8.34c0.43,1.54,1.52,2.75,2.17,4.18c0.43,0.94,1,1.18,1.7,0.18 c0.31-0.44,0.79-0.76,0.86-1.35c2.42-2.98,4.44-6.23,6.5-9.46c1.37,0.15,2.42-0.77,3.66-1.09c1.87-0.49,3.62-0.6,5.15,0.87 c0.2,0.19,0.57,0.19,0.86,0.28c0.38,2.19,1.75,4.06,2.01,6.28c-0.38,0.29-0.26,0.54,0.06,0.77c0.02,0.07,0.02,0.15-0.01,0.22 c-0.23,1.67,0.48,3.26,0.38,4.93c-0.26,4.54,0.35,9.12-0.76,13.61c-0.65,1.05-0.5,2.37-1.23,3.41c-1.79,2.53-3.93,2.75-7.25,2.11 c-0.24-0.05-0.46-0.2-0.69-0.24c-0.75-0.11-1.68-1-2.15-0.4c-0.62,0.8-0.08,1.87,0.48,2.72c0.13,0.2,0.29,0.39,0.44,0.58 c-0.46,0.55-0.29,1.11-0.11,1.73c1.06,3.71,1.77,7.51,2.31,11.32c0.24,1.68,0.28,3.47-1.58,4.55c-2.62,1.52-5.01-0.25-5.64-2.28 c-1.15-3.7-2.88-7.23-3.51-11.1c-0.07-0.43-0.08-0.93-0.59-1.03c-0.53-0.11-0.79,0.36-0.91,0.75c-0.9,2.84-3.01,5.37-2.19,8.64 C322.82,106.54,321.82,107.37,321.61,108.44z M90.01,214.87c-1.54-3.69-3.16-7.31-6.99-9.27c-4.18-1.59-7.96-0.55-10.21,3.3 c-1.64,2.8-3.12,5.77-3.58,9.09c-0.12,0.92,0.4,1.72,0.12,2.71c-0.54,1.93-0.92,3.92-1.11,5.91c-0.24,2.48-0.53,4.98,0.69,7.39 c0.46,0.91,1.57,1.49,1.41,2.71c1.98,0.85,3.98,1.38,6.2,1.2c1.51-0.12,2.59-1.32,4.58-1.44c-4.15,5.21-6.72,10.96-10.39,16.02 c-0.34,1.51,0.3,2.85,0.71,4.22c2.04,0.54,3.73,0.49,5.01-1.69c1.97-3.35,4.07-6.65,7.34-8.97c0.71-0.51,1.1-1.28,1.41-2.11 c0.61-1.6,1.7-2.89,2.87-4.44c0.16,1.14,0.28,1.95,0.39,2.76c0.31,0.56,0.33,1.17,0.42,1.78c0.5,3.22,1.03,6.43,1.61,9.63 c0.18,0.98,0.58,1.87,1.83,2.01c1.22,0.13,2.17-0.32,2.49-1.42c0.4-1.38,1.15-2.65,1.11-4.19c-0.08-2.84-0.01-5.68,0.03-8.52 c0.01-0.57-0.29-1.23,0.5-1.86c1.44,2.46,3.51,4.2,5.99,5.48c0.07,0.04,0.06,0.23,0.08,0.35c2.23,0.29,3.88-0.91,5.46-2.2 c2.16-1.76,3.39-4.26,5.07-6.41c2.09-2.69,3.31-5.66,3.73-8.97c0.53-4.17-0.16-8.31-0.58-12.45c-0.93-1.93-2.29-3.33-4.29-4.3 c-1.42-0.69-2.54-0.9-3.97-0.18c-3.65,1.82-6.69,4.5-9.85,7c-1.29,1.02-2.91,1.56-3.87,3.07c-0.52,0.82-1.36,2.08-2.4,1.65 c-0.91-0.38-0.24-1.79-0.4-2.74c-0.05-0.29,0.05-0.61,0.09-0.92C90.23,217.96,90.42,216.31,90.01,214.87z" fill="#CE94AE"/></g><g id="change4_1"><path d="M377.53,205.18c0.02,0.36,0.05,0.72,0.07,1.09c-0.23,0.59-0.12,1.02,0.55,1.19 c0.18,0.59,0.37,1.19,0.55,1.78c0.08,1.32-0.02,2.68,1.01,3.74c1.28,4.99,2.76,9.92,4.11,14.88c1.48,5.44,3.07,10.85,4.45,16.33 c1.65,6.56,3.17,13.16,4.49,19.78c0.77,3.88,2.14,7.71,2.28,11.64c0.11,3.22,1.2,6.25,1.17,9.45c-0.01,1.06-0.18,2.08-0.26,3.12 c-0.15,0.26-0.33,0.51-0.44,0.78c-0.62,1.47,0.17,2.91,0.1,4.37c-0.19,4.17-1.13,8.24-1.7,12.35c-0.51,3.75-1.68,7.29-2.97,10.79 c-0.9,2.42-1.83,4.89-3.84,6.7c-1.28-3.91-2.59-7.82-3.84-11.74c-0.9-2.81-1.72-5.63-2.59-8.45c-1.47-4.75-3.09-9.45-4.39-14.25 c-1-3.69-2.41-7.26-3.25-10.97c-0.82-3.6-1.95-7.13-3.05-10.61c-1.38-4.38-2.73-8.81-4.07-13.2c-2.07-6.8-3.87-13.69-5.96-20.5 c-1.25-4.09-2.86-8.05-4-12.2c-1.85-6.76-3.96-13.47-6.27-20.11c-2.16-6.23-3.8-12.65-5.63-19c-0.46-1.59-0.79-3.2-1.33-4.78 c-1.4-4.14-3.35-8.1-4.08-12.47c-0.19-1.15-0.37-2.33-0.78-3.41c-1.51-3.91-3.56-7.59-4.35-11.79c-0.4-2.15-1.36-4.28-1.59-6.37 c-0.54-4.76-2.61-9.02-3.77-13.56c-0.78-3.05-1.71-6.18-2.97-9.16c-1.64-3.9-1.5-8.38-3.59-12.18c0.21-1.06,1.21-1.9,0.91-3.11 c-0.82-3.27,1.29-5.8,2.19-8.64c0.12-0.39,0.38-0.86,0.91-0.75c0.51,0.11,0.53,0.61,0.59,1.03c0.63,3.87,2.35,7.39,3.51,11.1 c0.63,2.03,3.02,3.81,5.64,2.28c1.87-1.08,1.83-2.87,1.58-4.55c-0.55-3.81-1.25-7.61-2.31-11.32c-0.18-0.62-0.35-1.18,0.11-1.74 c0.63,0.48,1.26,0.95,1.89,1.43c1.4,1.08,3,2.13,3.66,3.73c0.92,2.23,2.31,3.81,4.42,4.82c0.62,0.29,0.96,0.72,1.2,1.3 c0.92,3.18,2.09,6.29,2.63,9.56c0.69,4.1,2.87,7.69,3.66,11.81c0.76,4,2.44,7.88,3.74,11.77c1.64,4.92,3.19,9.83,4.45,14.85 c0.22,0.89,0.36,1.83,0.73,2.65c1.53,3.34,2.02,7.01,3.32,10.41c1.02,2.66,0.98,5.65,2.56,8.14c0.2,1.3,0.07,2.53-0.4,3.79 c-0.82,2.17,0.36,4.15,2.62,4.66c0.2,1.22,0.56,2.29,1.44,3.31c0.64,0.75,1.44,1.62,1.46,2.82c0.03,2.34,0.74,4.54,1.46,6.75 c0.79,2.42,2.4,4.5,2.58,7.21C376.2,202.85,376.15,204.43,377.53,205.18z M206.21,172.27c-1.75-2.86-3.07-6.06-5.71-8.32 c-0.96,2.53-2.19,4.95-3.23,7.44c-3.75,8.98-8.19,17.65-12.02,26.59c-2.47,5.77-5.22,11.42-7.71,17.18 c-1.83,4.23-3.44,8.55-5.15,12.82c-1.33,3.31-2.61,6.64-4.06,9.9c-0.65,1.48-0.97,3.04-1.57,4.52c-0.35,1.12,0.16,1.99,0.51,3.05 c0.56,1.67,1.06,3.6,0.99,5.27c-0.07,1.63,0.86,2.81,0.89,4.37c0.04,1.93,0.63,4,0.55,5.94c-0.06,1.44,0.81,2.53,0.64,4.03 c-0.2,1.73,0.23,3.61,0.13,5.43c-0.03,0.5,0.05,0.98,0.38,1.39c3.56-7.28,6.75-14.73,10.19-22.07c2.97-6.34,5.79-12.76,8.99-18.98 c2.47-4.81,4.46-9.87,7.26-14.48c3.33-5.49,5.82-11.39,8.99-16.95c1.47-2.57,2.72-5.23,4.18-7.8c0.48-0.85,1.01-1.7,1.83-2.3 c0.08-1.86-0.57-3.54-1.19-5.26c-0.65-1.83-1.87-3.5-1.75-5.57C208.85,176.14,207.41,174.23,206.21,172.27z M293.79,16.18 c1.22,3.11,1.36,6.63,2.41,9.83c1.69,5.16,2.82,10.48,4.8,15.56c1.06,2.71,1.6,5.64,2.5,8.45c0.26,0.81,1.04,1.42,0.88,2.37 c5.13-1.85,8.57,0.81,11.58,4.43c2.27,2.73,4.41,5.56,6.61,8.34c1.19,0.44,2.17,1.19,3.09,2.05c0.47,0.44,0.89,1.01,1.65,0.95 c2.42-2.98,4.44-6.23,6.5-9.46c-0.8-4.97-2.29-9.76-3.66-14.59c-0.92-3.24-1.36-6.61-2.11-9.9c-0.54-2.38-1.42-4.67-1.8-7.11 c-0.34-2.22-0.93-4.41-1.4-6.62c-0.24-0.84-1-1.03-1.67-1.3c-1-0.4-2-1.03-2.37-1.94c-0.56-1.36-1.7-1.93-2.77-2.56 c-1.66-0.97-3.7-1.3-4.8-3.15c-0.19-0.31-0.72-0.44-1.13-0.58c-3.1-1.07-6.06-2.61-8.87-4.15c-4.11-2.26-8.49-3.24-12.89-4.4 C291.82,6.9,292.03,11.7,293.79,16.18z M253.24,35.45c-1.63-4.86-2.75-9.93-4.17-14.88c-0.74-2.6-0.99-5.36-1.9-7.84 c-0.84-2.31-1.44-4.66-2.17-6.99c-1.36-0.24-1.87,1.25-3.03,1.47c-2.95,0.55-5.27,2.45-7.8,3.86c-0.87,0.48-1.95,0.59-2.69,1.43 c-1.19,1.36-2.68,2.39-4.31,3.17c-1.03,0.5-1.86,1.15-2.33,2.21c1.48,2.68,1.52,5.8,2.71,8.59c1.37,3.2,2.11,6.61,2.83,10.01 c0.31,1.44,1.5,2.39,1.88,3.77c1.75,6.45,4.26,12.64,6.55,18.9c2.14,5.88,4.5,11.68,6.66,17.55c0.51,1.38,0.61,2.9,1.41,4.17 c1.82-1.97,2.32-4.65,3.63-6.91c2.21-3.79,4.15-7.75,5.98-11.73c0.86-1.88,2.42-3.41,2.73-5.54 C256.72,49.75,255.59,42.44,253.24,35.45z M44.14,268.87c1.78-2.66,3.7-5.26,5.05-8.2c2.31-5.34,4.81-10.61,6.86-16.05 c1.19-3.16,2.3-6.32,3.87-9.32c2.61-5.02,4.42-10.37,6.25-15.7c0.69-2.01,2.07-3.57,2.82-5.52c1.61-4.15,3.32-8.26,5.08-12.34 c2.94-6.79,5.85-13.59,8.96-20.29c2.48-5.34,4.82-10.75,7.59-15.96c0.72-1.36,1.65-2.85,1.24-4.6c-1.04,0.05-1.51,0.97-2.24,1.5 c-3.46,2.48-6.46,5.48-9.65,8.27c-2.02,1.77-3.48,4.12-5.43,5.88c-2.35,2.12-4.25,4.63-6.35,6.91c-2.78,3.03-4.74,6.87-6.78,10.51 c-1.89,3.36-3.42,6.92-5.12,10.39c-1.39,2.83-1.81,6.01-3.03,8.87c-2.12,4.98-3.83,10.06-5.11,15.31c-0.57,2.34-0.59,4.81-1.25,7.08 c-1.23,4.29-1.87,8.67-2.49,13.04c-0.49,3.46-1.09,6.92-1.25,10.44c-0.11,2.38,0.03,4.92-0.51,7.09c-0.69,2.75-0.54,5.46-0.91,8.16 C43.09,272.77,42.99,270.59,44.14,268.87z M239.43,89c-0.45-2.04-1.24-3.94-1.97-5.8c-2.73-6.93-5-14.01-7.49-21.02 c-2.21-6.25-4.12-12.6-6.48-18.81c-0.92-2.41-1.17-5.34-2.35-7.62c-1.51-2.92-1.88-6.21-3.56-9c-2.12,1.93-2.83,4.76-4.34,7.09 c-3.24,4.97-5.71,10.43-7.8,16.02c0.53-0.01,1.2-0.22,1.31,0.6c0.46,3.41,2.72,6.11,3.69,9.36c1.04,3.49,2.58,6.83,3.75,10.31 c1.06,3.15,2.53,6.19,3.79,9.29c0.89,2.2,1.43,4.52,2.44,6.69c1.68,3.62,2.2,7.69,4.45,11.11c0.93,1.42,1.07,3.19,1.78,4.76 c1.36,3.04,2.39,6.23,3.63,9.32c0.71,1.76,1.93,3.29,2.27,5.22c0.79-0.61,0.84-1.58,1.15-2.42c0.54-1.43,0.76-2.99,1.66-4.26 c1.12-1.59,1.78-3.31,2.04-5.24c0.12-0.9,0.36-1.82,0.75-2.64c1.21-2.54,1.74-5.31,2.78-7.9C239.89,92.55,239.8,90.67,239.43,89z M290.2,35.36c-1.05-2.65-1.1-5.52-2.08-8.18c-0.9-2.46-1.35-5.05-2.37-7.51c-0.87-2.1-1.04-4.49-1.44-6.77 c-0.09-0.5-0.18-0.96-0.42-1.39c-1.27-2.24-1.76-4.74-2.33-7.2c-0.27-1.16-0.68-2.23-1.09-3.32c-1.53-0.16-3.06-0.27-4.58-0.49 c-1.55-0.23-2.96,0.44-4.47,0.51c-2.36,0.1-4.59-0.36-6.9-0.84c-3.59-0.75-6.76,1.38-10.01,2.58c-1.22,0.45-2.68,0.36-3.66,1.42 c2.31,7.05,4.64,14.09,6.92,21.15c2.1,6.52,4.14,13.07,6.24,19.59c0.3,0.92,0.79,1.78,1.19,2.68c1.33-1.52,2.33-3.22,4.36-4.22 c2.02-1,3.73-2.51,6.22-2.19c2.61,0.34,5.28,0.22,7.76,1.44c3.17,1.56,6.31,3.22,9.71,4.25C291.67,43.16,291.66,39.06,290.2,35.36z M159.4,141.62c-0.99-0.03-1.99-0.05-2.98-0.08c-0.51,0.27-1.03,0.31-1.56,0.04c-0.25,0.05-0.49,0.09-0.74,0.14 c-1.47,0.93-1.52,2.64-2.05,4.01c-3.44,9.01-6.72,18.08-10.12,27.1c-2.15,5.69-4.5,11.3-6.6,17.01c-0.64,1.73-1.44,3.36-2.16,5.04 c3.24-1.43,6.57-2.7,9.69-4.35c3.7-1.96,6.57-1.92,8.43,0.27c1.62,1.9,2.99,4.18,2.94,6.9c-0.01,0.76,0.22,1.31,0.76,1.78 c1.27-1.71,1.69-3.81,2.6-5.68c3.21-6.63,5.62-13.6,8.42-20.41c2.71-6.6,5.67-13.08,8.49-19.63c1.06-2.48,2.3-4.88,2.98-7.51 c-5.44-2.35-11.26-3.17-17.04-4.16C160.03,142.1,159.6,142.12,159.4,141.62z M124.84,153.8c-1.32,4.28-3.88,8.03-5.37,12.27 c-1.31,3.73-3.26,7.24-4.8,10.9c-2.31,5.49-4.3,11.11-6.83,16.49c-1.44,3.06-2.39,6.28-3.71,9.36c-1.4,3.27-2.75,6.56-4.13,9.84 c0.99,0.33,1.38-0.59,2.03-0.96c2.49-1.4,4.95-2.89,7.52-4.13c0.95-0.46,1.47-1.24,2.23-1.81c2.47-1.86,5.25-3.18,7.94-4.66 c1.07-0.59,2.11-1.22,3.16-1.84c1.08-2.46,1.99-4.96,3.34-7.34c1.04-1.84,1.63-4.06,2.5-6.08c3.61-8.34,7.18-16.7,10.74-25.07 c2.43-5.71,4.82-11.44,7.2-17.17c0.26-0.61,0.32-1.31,0.48-1.96c-3.72,0.2-7.44,0.47-10.99,1.69c-1.01,0.35-2.03,0.36-3.05,0.53 c-1.81,0.29-3.58,0.71-5.02,1.97C127.42,148.65,125.69,151.04,124.84,153.8z M12.75,411.83c1.89-4.66,3.51-9.42,5.3-14.12 c1.85-4.87,3.5-9.82,5.41-14.63c1.21-3.03,2.37-6.18,3.4-9.22c1.73-5.12,4.02-10.01,5.75-15.13c1.49-4.41,2.19-9.24,5.11-13.14 c0.45-0.6,0.58-1.49,0.73-2.27c0.87-4.56,2.25-9.02,4.2-13.16c1.32-2.81,1.95-5.9,3.77-8.55c1.13-1.65,1.27-3.94,1.79-5.95 c0.79-3.01,2.7-5.5,3.46-8.49c0.1-0.41,0.39-0.77,0.48-1.18c1.26-5.73,4.42-10.76,6.13-16.29c1.33-4.3,3.77-8.15,4.66-12.58 c0.51-2.52,2.13-4.54,3-6.91c1.68-4.55,3.43-9.09,5.51-13.48c-0.41-1.38-1.05-2.72-0.71-4.22c-3.09,3.74-6.17,7.48-9.26,11.22 c-0.99,4.19-2.55,8.19-4.28,12.11c-0.83,1.89-1,3.97-1.94,5.84c-2.54,5.02-3.39,10.68-5.72,15.77c-1.02,2.24-1.24,4.72-2.45,6.83 c-2.82,4.95-3.49,10.75-6.38,15.69c-0.91,1.55-0.69,3.69-1.39,5.47c-0.11,0.66-0.17,1.28,0.11,1.96c1.13,2.67,0.73,3.29-2.15,3.53 c-0.5,2.8-2.43,5.03-3.15,7.74c-0.45,1.7-0.86,3.42-1.28,5.13c-0.32,1.32-0.71,2.6-1.85,3.48c-1.17,2.52-2.02,5.16-3.06,7.73 c-2.91,7.15-5.27,14.52-8.35,21.62c-2.59,5.97-4.85,12.07-7.5,18.02c-2.25,5.05-4.58,10.06-6.11,15.4 c-0.32,1.11-1.11,2.09-0.86,3.34c-0.11,0.95,0.04,2.04-0.37,2.84c-1.56,3.03-2.1,6.25-2.25,9.59c-0.15,3.28-0.51,6.56,0.3,9.8 C6.58,427.87,9.52,419.79,12.75,411.83z M176.99,163.26c-3.01,8.71-6.24,17.33-9.63,25.9c-2.71,6.84-5.13,13.79-7.68,20.69 c-0.28,0.75-0.51,1.52-1.1,2.11c-0.78,1.29,0.41,2.36,0.75,3.29c0.55,1.52,0.72,3.12,1.22,4.63c0.51,1.53,0.96,3.13,1.35,4.72 c0.43,1.75,0.53,3.67,1.68,5.21c1.66-3.5,3.36-6.98,4.97-10.5c2.84-6.21,5.81-12.38,8.41-18.69c2.94-7.13,6.78-13.82,9.91-20.85 c1.11-2.5,2.01-5.18,3.89-7.31c0.31-0.35,0.43-0.87,0.6-1.33c1.43-3.74,3.46-7.19,5.15-10.8c-0.92-1.16-1.81-2.35-2.77-3.48 c-0.5-0.58-0.59-1.45-1.5-1.76c-1.94-0.65-2.87-2.94-5.1-3.2c-0.24-0.03-0.53-0.36-0.64-0.62c-0.88-1.99-2.7-2.47-4.56-2.87 C180.31,153.35,178.7,158.32,176.99,163.26z M96.47,169.6c-1.67,4.62-3.45,9.2-5.19,13.79c-2.37,6.24-4.34,12.63-7.11,18.72 c-0.5,1.1-0.76,2.32-1.14,3.48c3.83,1.96,5.46,5.58,6.99,9.27c1.94-1.3,1.93-3.63,2.78-5.47c2.29-4.96,4.58-9.9,7.13-14.74 c1.56-2.96,2.56-6.27,4.12-9.27c2.93-5.62,5.37-11.47,8.15-17.14c3.3-6.72,5.89-13.77,9.54-20.32c0.09-0.16,0.09-0.36,0.14-0.54 c-3.39,1-6.83,1.86-10.15,3.03c-3.44,1.22-6.93,2.41-9.86,4.72C101.12,160.35,98.22,164.76,96.47,169.6z M358.29,95.68 c-1.41-6.59-2.41-13.28-4.33-19.77c-0.97-3.28-1.12-6.77-2.19-10.04c-2.36-7.21-5.25-14.21-8.24-21.18 c-1.97-4.6-4.65-8.7-8.02-12.36c1,4.15,2.62,8.14,3.57,12.28c0.93,4.08,2.74,7.87,3.44,11.99c0.14,0.85,0.78,1.38,0.96,2.15 c0.38,2.19,1.75,4.06,2.01,6.28c0.02,0.26,0.04,0.51,0.06,0.77c0.02,0.07,0.02,0.15-0.01,0.22c1.02,1.03,0.62,2.53,1.16,3.68 c1.29,2.72,2.2,5.56,2.87,8.46c1.15,4.96,4.12,9.32,4.67,14.48c0.08,0.76,0.6,1.47,0.91,2.2c1.18,1.27,2.36,2.53,3.77,3.54 C358.71,97.48,358.48,96.59,358.29,95.68z M44.76,466.46c0.6-1.48,1.33-2.91,1.92-4.39c1.67-4.24,3.17-8.53,5.32-12.59 c1.02-1.93,1.21-4.3,2.19-6.26c2.35-4.69,4.19-9.6,6.07-14.47c1.88-4.87,3.81-9.72,5.58-14.64c2.31-6.41,4.6-12.85,7.25-19.13 c2.65-6.29,4.69-12.8,7.3-19.11c2.97-7.19,5.37-14.61,8.16-21.87c2.47-6.44,4.81-12.93,7.77-19.17c2-4.22,3.38-8.69,5.16-12.99 c1.33-3.21,2.4-6.54,3.86-9.68c2.55-5.49,4.41-11.27,6.98-16.74c2.56-5.45,4.8-11.03,7.51-16.41c2.31-4.6,4.05-9.48,6.16-14.19 c1.61-3.57,3.65-6.97,5.06-10.61c2.19-5.67,4.51-11.27,7.18-16.73c2.59-5.29,4.49-10.91,7.56-15.98c0.82-1.35,1.23-2.95,1.82-4.43 c0.03-5.24-2.41-10.05-2.65-15.24c-0.06-1.33-0.78-1.77-1.94-1.18c-3.83,1.98-8.11,3.05-11.58,5.74c-0.95,0.74-2.51,0.46-3.01,1.87 c-0.77,3.58-2.5,6.79-3.88,10.15c-1.42,3.45-2.55,7.03-3.72,10.58c-0.73,2.22-1.72,4.32-2.46,6.54c-1.35,4.08-3.05,8.04-4.5,12.09 c-2.75,7.67-5.68,15.28-8.61,22.88c-1.94,5.04-3.15,10.39-5.27,15.34c-2.2,5.14-3.26,10.67-5.88,15.66 c-1.48,2.82-2.09,6.04-3.02,9.07c-0.96,3.14-2.83,5.82-3.7,8.99c-1.51,5.46-3.78,10.69-5.27,16.17c-0.79,2.91-2.62,5.39-3.59,8.23 c-1.29,3.77-2.34,7.63-3.87,11.3c-2.29,5.49-4.07,11.17-6.38,16.65c-2.04,4.85-4.1,9.7-5.9,14.63c-1.73,4.73-3.75,9.3-5.75,13.9 c-3.12,7.19-6.15,14.43-9.23,21.64c-2.62,6.13-5.08,12.34-7.92,18.37c-2.54,5.4-4.45,11.04-6.65,16.56 c-2.04,5.12-3.71,10.4-5.97,15.45c2.6,2.35,6,3.19,9.07,4.62c1.28,0.6,2.09,2.25,3.85,1.82C41.4,474.78,43.06,470.61,44.76,466.46z M63.15,476.85c0.17-0.25,0.36-0.55,0.37-0.84c0.09-2.82,1.47-5.19,2.73-7.57c0.89-1.68,0.94-3.54,1.59-5.25 c1.25-3.32,2.38-6.7,3.86-9.93c1.76-3.85,2.6-8.01,4.66-11.8c1.23-2.26,1.61-5.16,2.97-7.46c1.87-3.16,2.61-6.72,4.05-10.01 c3.37-7.67,5.68-15.77,9.39-23.3c2.46-5,3.81-10.49,6.92-15.19c0.28-0.43,0.29-1.05,0.36-1.59c0.34-2.79,1.99-5.13,2.72-7.75 c1.3-4.64,3.72-8.8,5.37-13.29c1.81-4.93,3.78-9.88,6.27-14.55c1.29-2.42,1.37-5.21,2.54-7.69c2.53-5.31,4.78-10.75,6.84-16.26 c1.44-3.83,3.42-7.48,4.84-11.29c2.05-5.51,4.39-10.91,6.46-16.42c1.03-2.74,2.31-5.44,3.38-8.16c1.49-3.83,3.28-7.53,4.79-11.35 c1.89-4.8,4.27-9.41,6.01-14.26c1.5-4.17,3.85-7.94,5.26-12.12c0.78-1.61-0.49-2.95-0.61-4.46c-0.36-4.92-1.86-9.64-2.85-14.45 c-2.56,5.39-4.36,11.09-6.67,16.58c-1.43,3.39-3.34,6.56-4.7,9.97c-2.13,5.36-4.05,10.8-6.5,16.02c-1.12,2.39-2.17,4.8-3.3,7.18 c-0.99,2.06-1.8,4.21-2.52,6.33c-1.58,4.6-3.76,8.93-5.69,13.35c-1.85,4.23-3.69,8.51-5.66,12.7c-1.69,3.59-3.28,7.37-4.51,11.22 c-0.28,0.88-0.49,1.81-0.94,2.59c-3.64,6.34-5.58,13.38-8.46,20.03c-1.1,2.54-2.42,5-3.41,7.58c-1.74,4.53-3.79,8.94-5.62,13.43 c-1.28,3.14-2.84,6.23-4.08,9.4c-1.8,4.58-3.79,9.08-5.63,13.65c-1.32,3.3-2.85,6.51-4.24,9.78c-2.31,5.43-4.53,10.89-6.89,16.3 c-1.57,3.61-2.85,7.37-4.65,10.84c-2.12,4.1-3.8,8.39-5.69,12.58c-1.47,3.25-2.79,6.54-4.54,9.68c-1.08,1.93-1.68,4.19-2.47,6.31 c-1.24,3.32-3.1,6.31-4.44,9.56c-1.76,4.25-3.68,8.44-5.51,12.66c-0.23,0.52-0.45,1.01-0.95,1.33c0.62,0.62,1.4,0.71,2.21,0.68 c1.01-0.05,2.04,0.07,2.8,0.67c1.82,1.45,4.1,1.64,6.18,2.06c1.52,0.31,3.12,0.86,4.76,0.7C60.62,482.13,61.41,479.31,63.15,476.85z M102.46,245.18c-2.48-1.28-4.55-3.02-5.99-5.48c-0.79,0.63-0.49,1.29-0.5,1.86c-0.04,2.84-0.11,5.68-0.03,8.52 c0.05,1.54-0.71,2.81-1.11,4.19c-0.32,1.1-1.26,1.55-2.49,1.42c-1.26-0.14-1.65-1.02-1.83-2.01c-0.58-3.2-1.11-6.41-1.61-9.63 c-0.1-0.61-0.11-1.23-0.42-1.78c-1.17,2.03-2.16,4.13-2.55,6.49c-0.28,1.71-1.03,3.28-1.78,4.82c-2.32,4.77-3.43,10-5.62,14.82 c-0.88,1.95-1.74,3.94-2.3,5.99c-1.48,5.4-4.27,10.31-5.67,15.75c-0.49,1.89-1.58,3.68-2.34,5.54c-1.27,3.14-2.13,6.4-3.29,9.57 c-1.48,4.06-3.92,7.77-4.41,12.2c-0.16,1.45-1.09,2.78-1.78,3.98c-1.54,2.66-1.79,5.7-3.08,8.36c-1.07,2.2-1.07,4.65-1.99,6.89 c-1.55,3.75-2.81,7.63-4.94,11.12c-0.25,0.42-0.55,0.9-0.56,1.36c-0.09,3.24-1.81,5.97-2.67,8.95c-1.6,5.56-4.36,10.65-5.87,16.26 c-0.82,3.06-1.61,6.47-3.79,9.12c-0.25,0.31-0.35,0.78-0.41,1.2c-0.32,2.49-1.52,4.63-2.55,6.85c-1.05,2.27-2.07,4.53-2.75,6.99 c-0.75,2.71-2.05,5.27-3.13,7.9c-1.77,4.3-3.51,8.62-5.34,12.9c-1.54,3.6-2.24,7.53-4.37,10.91c-0.77,1.22-0.9,2.81-1.23,4.16 c-0.86,3.5-2.34,6.77-3.78,9.95c-1.57,3.46-1.65,7.53-4.31,10.51c1.94,4.37,5.31,7.67,8.46,11.11c0.19,0.21,0.53,0.3,0.8,0.44 c0.29-0.94,0.57-1.88,0.88-2.81c1.56-4.65,4.02-8.94,5.56-13.6c0.83-2.49,1.51-5.11,2.79-7.37c2.68-4.71,3.66-10.04,5.43-15.03 c2.08-5.85,4.5-11.6,6.34-17.55c1.12-3.62,2.77-7.07,4.2-10.59c1.88-4.63,3.31-9.45,4.88-14.2c0.53-1.6,1.81-2.79,2.25-4.44 c1.14-4.22,3.05-8.16,4.57-12.24c1.94-5.18,4.18-10.25,6.24-15.38c0.59-1.48,0.7-3.23,1.56-4.5c1.9-2.8,2.49-6.09,3.88-9.07 c0.95-2.04,1.18-4.4,2-6.48c1.59-4.01,3.37-7.97,4.96-11.97c1.52-3.84,3.42-7.56,4.37-11.68c0.79-3.43,2.63-6.57,4.03-9.82 c1.88-4.35,3.05-9,5.06-13.35c1.3-2.82,1.94-5.91,3.26-8.76c0.83-1.8,2.39-3.29,2.75-5.12c0.44-2.19,1.32-4.09,2.07-6.12 c1.5-4.1,3.01-8.19,4.91-12.12c0.88-1.82,1.6-3.67,2.02-5.66c0.22-1.05,0.45-2.19,1.32-3C102.51,245.41,102.53,245.22,102.46,245.18 z M153.39,279.1c-1.4,3.86-2.66,7.77-4.05,11.63c-1.58,4.38-3.26,8.72-4.89,13.08c-0.81,2.17-1.56,4.36-2.38,6.52 c-1.03,2.75-2.64,5.31-3.08,8.22c-0.39,2.54-1.59,4.73-2.39,7.08c-1.1,3.23-2.82,6.25-3.83,9.5c-1.54,4.94-3.09,9.83-5.58,14.4 c-2.19,3.99-2.88,8.54-4.55,12.76c-1.44,3.65-3.24,7.16-4.15,11.08c-0.83,3.59-2.49,7.05-4.14,10.38c-1.61,3.26-2.82,6.65-4.1,10.03 c-0.63,1.65-1.48,3.26-1.95,4.91c-1.36,4.73-3.3,9.22-5.15,13.74c-2.78,6.81-5.93,13.48-8.92,20.21c-0.57,1.3-1.33,2.69-1.51,3.94 c-0.53,3.68-2.81,6.61-3.8,10.07c-0.73,2.56-2.17,4.88-3.26,7.32c-1.49,3.33-2.98,6.67-4.31,10.07c-0.87,2.24-2.41,4.13-3.25,6.35 c-2.06,5.46-4.78,10.61-7.09,15.95c4.79,0.31,9.46-0.58,14.12-1.47c-0.01-1.4,0.42-2.73,1.08-3.89c1.43-2.53,2.21-5.32,3.34-7.97 c1.46-3.41,2.48-6.99,3.97-10.41c1.68-3.84,3.05-7.82,4.5-11.75c1.81-4.92,4.14-9.66,5.77-14.59c1.57-4.76,3.25-9.51,4.87-14.24 c2.2-6.4,4.68-12.73,7.55-18.9c2.14-4.59,3.85-9.4,5.39-14.26c0.86-2.73,2.2-5.31,3.3-7.97c1.59-3.84,3.16-7.68,4.74-11.52 c0.46-1.13,0.94-2.25,1.39-3.39c1.82-4.59,3.33-9.34,5.54-13.74c2.7-5.4,4.42-11.18,7.01-16.62c1.44-3.03,3.29-6.07,4.11-9.14 c1.15-4.35,4-7.84,4.94-12.24c0.65-3.01,2.38-5.78,3.61-8.67c0.55-1.3,1.04-2.63,1.55-3.94c0.89-1.76-0.01-3.61,0.32-5.44 c0.66-3.61,0.3-7.32,0.7-10.96c0.37-3.32-1.04-6.38-1.02-9.65c0.01-2.11,0.38-4.34-0.69-6.36 C155.11,272.22,154.59,275.79,153.39,279.1z M172.01,301.23c2.03-2.49,3.46-5.39,5.34-7.96c2.36-3.23,4.73-6.46,6.92-9.8 c3.62-5.5,6.95-11.19,10.39-16.81c0.26-0.42,0.42-0.87,0.91-1.13c1.62-0.85,2.37-2.41,3.18-3.93c0.82-1.53,1.45-3.25,2.57-4.52 c1.6-1.79,2.83-3.76,3.81-5.89c1.08-2.34,1.76-4.91,3.12-7.06c1.9-3.01,2.96-6.35,4.07-9.6c1.33-3.89,1.96-8.04,2.28-12.19 c0.16-2.13,1.34-4.06,1.18-6.3c-0.18-2.46-0.04-4.94-0.08-7.41c-0.04-2.81-0.93-5.54-0.49-8.42c0.18-1.16-0.01-2.76-1.35-3.64 c-1.74,1.93-2.26,4.49-3.41,6.72c-1.83,3.56-3.57,7.16-5.44,10.7c-1.74,3.31-3.07,6.84-4.84,10.13c-2.88,5.36-5.2,10.98-7.83,16.46 c-3.21,6.7-6.64,13.33-8.91,20.46c-0.86,2.71-2.67,5.05-3.47,7.72c-0.91,3.01-2.4,5.74-3.38,8.71c-1.27,3.85-2.9,7.58-4.38,11.36 c0.2,1.26-0.81,2.3-0.62,3.59c0.47,3.11,0.05,6.19-0.51,9.25C171.68,302.12,171.76,301.54,172.01,301.23z M112.86,455.32 c0.9-2.3,1.12-4.88,1.77-7.31c0.58-2.18,1.26-4.37,1.29-6.67c-1.06,0.48-0.77,1.58-1.07,2.39c-0.57,1.55-0.9,3.22-1.61,4.7 c-1.63,3.4-2.62,7.02-3.95,10.52c-0.91,2.41-1.95,4.79-2.59,7.28c-0.52,2.05-1.67,3.87-1.92,5.99 C109.44,467.53,110.59,461.13,112.86,455.32z M116.56,438.78c-0.6,0.57-0.7,1.26-0.48,2.02 C116.42,440.17,116.59,439.5,116.56,438.78z M300.63,73.17c0,0,0.02,0.03,0.02,0.03c-0.17-0.17-0.43-0.3-0.5-0.5 c-1.02-3-2.46-5.89-2.6-9.14c-3.14-2.8-6.52-5.23-10.51-6.69c-0.28-0.1-0.52-0.31-0.76-0.49c-3.05-2.23-6.83-2.88-10.1-4.64 c-0.64-0.34-1.35,0.06-1.81,0.59c-1.89,2.2-4.01,4.23-5.11,7.01c2.33,6.65,4.79,13.26,6.93,19.97c0.98,3.08,2.09,6.12,3.1,9.19 c1.07,3.25,2.68,6.35,3.48,9.65c1.08,4.45,3.55,8.33,4.66,12.75c0.72,2.87,1.87,5.65,2.96,8.42c1.32,3.37,2.58,6.74,3.29,10.3 c0.12,0.59,0.28,1.27,0.66,1.71c2.82,3.33,3.32,7.62,4.81,11.49c0.9,2.34,1.35,4.87,2.36,7.15c1.63,3.66,2.52,7.58,3.73,11.32 c1.88,5.82,5.34,10.96,6.59,17.05c0.59,2.88,1.7,5.8,3.39,8.45c1.05,1.65,1.19,3.92,1.61,5.94c0.36,1.75,1.1,3.34,2.03,4.81 c0.57,0.9,1.02,1.74,1.18,2.83c0.3,2.07,1.13,4.01,2.18,5.81c1.08,1.86,0.85,4.06,1.79,5.97c0.34,0.69,0.61,1.44,0.99,2.15 c1.71,3.18,2.26,6.76,3.51,10.1c0.64,1.69,0.93,3.48,2,5.07c0.95,1.42,1.1,3.34,1.52,5.01c0.49,1.97,1.35,3.63,2.41,5.24 c0.57,0.87,0.51,1.9,0.9,2.75c1.69,3.67,2.14,7.81,4.32,11.28c0.26,0.41,0.49,0.89,0.55,1.36c0.45,3.9,2.98,7.11,3.71,10.85 c0.56,2.86,1.93,5.36,2.92,8c1.29,3.44,1.8,7.17,3.33,10.39c2.13,4.45,3.23,9.23,5.2,13.73c1.3,2.96,2.01,6.33,2.96,9.5 c0.68,2.25,1.1,4.73,2.49,6.77c0.16,0.24,0.24,0.55,0.3,0.85c0.86,4.39,2.21,8.62,3.86,12.78c0.49,1.24,0.75,2.59,1.02,3.91 c0.8,3.89,2.95,7.37,3.38,11.37c2.51-1.83,4.9-3.85,7.19-5.9c2.74-2.46,5.31-5.2,7.25-8.41c-1.61-2.95-2.13-6.27-3.17-9.41 c-2.43-7.27-4.63-14.62-6.97-21.93c-0.45-1.41-0.43-2.9-0.97-4.3c-1.16-2.97-2.41-5.93-3.23-9c-1.15-4.35-2.75-8.54-4.18-12.78 c-1.21-3.59-2.51-7.19-3.58-10.79c-1.46-4.89-3.35-9.62-4.76-14.52c-0.86-3-2.06-5.91-3.09-8.86c-1.53-4.39-2.29-8.98-4.32-13.25 c-2.74-5.75-3.99-12.11-6.77-17.89c-0.89-1.85-1.19-3.96-1.77-5.92c-1.37-4.65-3.45-9.02-5.05-13.56c-1.26-3.57-2.38-7.2-3.82-10.71 c-1.27-3.11-1.58-6.56-3.31-9.51c-0.5-0.84-1.02-1.72-1.28-2.65c-1.14-4.17-1.61-8.49-3.69-12.44c-0.6-1.14-1.51-2.52-1.55-3.79 c-0.08-2.8-2.31-4.67-2.76-7.33c-0.15-0.9-0.18-1.98-0.59-2.96c-1.36-3.27-2.28-6.72-3.29-10.1c-1.04-3.48-1.68-7.03-3.1-10.45 c-1.21-2.92-1.55-6.2-2.3-9.32c-0.26-1.08-0.4-2.23-1.09-3.12c-1.77-2.27-1.89-5.12-2.66-7.72c-0.79-2.66-1.24-5.42-2.14-8.07 c-0.63-1.84-1.44-3.69-1.11-5.74c-0.5-1.58-1.01-3.17-1.51-4.75C300.07,76.73,300.99,74.8,300.63,73.17z M260.17,76.16 c-2.38,4.55-4.13,9.37-6.3,14.01c-0.65,1.38-1.43,2.73-1.53,4.31c2.04,5.04,3.39,10.32,5.58,15.32c1.27,2.9,1.83,6.1,2.72,9.17 c0.17,0.59,0.36,1.18,0.62,1.74c3.34,7.13,5.44,14.7,7.88,22.15c1.68,5.14,3.58,10.22,4.99,15.43c1.5,5.55,3.26,11.04,4.92,16.53 c1.21,4.02,2.74,8.01,3.84,12.08c1.69,6.22,3.98,12.25,5.85,18.41c1.61,5.29,3.77,10.42,5.17,15.75c1.71,6.5,4.46,12.62,6.39,19.04 c1.21,4.05,3.03,7.9,4.35,11.94c1.81,5.56,3.94,11.02,6.04,16.48c3.5,9.12,7.28,18.13,10.56,27.32c2.05,5.73,4.63,11.23,6.73,16.93 c2.17,5.88,4.93,11.55,7.48,17.28c3.12,7.03,6.3,14.03,9.45,21.05c1.6,0.38,3.19,0.02,4.62-0.53c2.22-0.85,4.78-0.2,6.8-1.73 c-1.94-3.44-3.08-7.23-4.59-10.85c-0.68-1.64-1.91-3.02-2.19-4.83c-0.45-2.9-1.94-5.49-3.11-8.04c-1.95-4.24-3.29-8.71-5.19-12.95 c-0.65-1.44-1.31-2.91-1.86-4.39c-1.17-3.19-1.99-6.52-3.28-9.65c-1.76-4.26-2.52-8.86-4.66-12.98c-2.1-4.05-2.72-8.63-4.48-12.81 c-1.19-2.82-1.52-6.07-3.01-8.69c-2.07-3.64-2.3-7.84-4.3-11.49c-2.21-4.03-2.34-8.84-4.01-13.14c-0.45-1.16-1.38-2.1-1.51-3.33 c-0.36-3.34-1.69-6.46-3.13-9.31c-2.11-4.19-2.02-8.97-4.4-13.04c-1.43-2.43-1.02-5.69-2.86-8.09c-0.16-0.21-0.07-0.61-0.16-0.9 c-0.77-2.65-0.58-5.64-2.13-7.97c-1.31-1.97-1.92-4.1-2.56-6.28c-0.22-0.77-0.01-1.55-0.34-2.35c-1.23-3-2.29-6.07-3.48-9.09 c-1.46-3.69-1.45-7.73-3.08-11.44c-1.31-2.97-1.71-6.3-3.02-9.41c-2.38-5.65-3.99-11.63-5.94-17.47c-0.41-1.23-0.82-2.48-0.69-3.78 c0.15-1.47-0.04-2.98-0.78-4.09c-2.18-3.29-2.69-7.14-3.85-10.73c-1.77-5.48-3.45-11-4.82-16.62c-0.76-3.12-2.02-6.22-2.83-9.34 c-0.78-3.01-2.24-5.87-2.4-9.04c-0.02-0.3-0.13-0.6-0.27-0.87c-2.41-4.7-2.81-10.03-4.64-14.92 C261.28,72.37,261.07,74.44,260.17,76.16z M242.27,141.9c0.71,2.79,2.17,5.4,3.35,8.06c0.51,1.16,1.12,2.2,0.98,3.6 c-0.09,0.83,0.36,1.86,0.88,2.58c1.35,1.86,1.76,4.09,2.7,6.1c1.5,3.22,2.66,6.58,4,9.84c1.79,4.38,4.18,8.59,4.92,13.39 c0.16,1.03,0.92,1.98,1.48,2.92c1.59,2.67,2.45,5.68,3.28,8.57c0.71,2.45,1.66,4.77,2.7,7.02c1.42,3.04,2.23,6.28,3.48,9.37 c0.51,1.26,2.16,2.35,1.28,4.37c-0.38,0.88,1.04,2.39,1.72,3.43c1.03,1.56,0.21,3.86,2.19,4.88c-0.47,1.49,0.64,2.75,1.14,3.8 c0.88,1.88,1.46,3.86,2.3,5.74c0.91,2.02,1.66,4.09,2.18,6.3c0.55,2.33,1.3,4.7,2.49,6.93c1.12,2.11,2.24,4.3,2.64,6.85 c0.39,2.48,2.25,4.58,2.88,7.11c0.54,2.17,1.46,4.28,1.68,6.48c0.17,1.66,1.5,2.5,1.87,4.04c0.68,2.84,1.43,5.73,2.73,8.4 c0.64,1.3,1.15,2.66,1.77,3.97c0.82,1.74,0.87,3.66,1.37,5.46c0.33,1.19,0.86,2.57,1.49,3.5c0.77,1.14,1.1,2.54,1.26,3.5 c0.27,1.69,1.58,3.09,1.22,4.98c-0.16,0.82,0.58,1.77,0.88,2.67c1.61,4.76,3.34,9.48,5.09,14.2c0.82,2.22,2.13,4.33,2.6,6.61 c0.76,3.68,2.7,6.88,3.78,10.44c0.77,2.54,1.8,5.17,3.08,7.64c1.05,2.02,2.52,4.04,2.55,6.52c2.07,0.55,4.13,1.21,6.33,0.9 c1.65-0.23,3.29-0.07,4.9,0.24c1.17,0.22,2.38,0.38,3.47,0c1.65-0.58,3.37-0.62,5.04-0.95c-1.2-2.77-2.19-5.66-3.65-8.29 c-2.84-5.13-4.82-10.65-7.17-15.99c-1.73-3.93-3.61-7.81-5.35-11.73c-2.38-5.39-4.33-10.98-7.1-16.21 c-1.52-2.88-2.53-6.03-3.98-8.96c-2.62-5.28-4.54-10.85-7.07-16.18c-2.3-4.83-3.89-9.98-6.07-14.87 c-3.08-6.92-5.18-14.22-8.45-21.06c-0.82-1.71-1.44-3.53-1.97-5.36c-1.17-4.03-3.32-7.67-4.6-11.63c-1.69-5.22-3.72-10.3-5.42-15.52 c-2.17-6.65-4.29-13.32-6.7-19.89c-2.03-5.52-3.68-11.18-5.54-16.77c-0.7-2.09-1.53-4.13-2.3-6.2c-3.17-8.53-6.04-17.17-9.1-25.74 c-1.68-4.71-3.23-9.49-4.5-14.37c-0.81-3.12-2.4-6.03-3.56-9.06c-0.48-1.25-0.71-2.6-1.06-3.9c-0.99,0.5-1.15,1.54-1.15,2.38 c0.01,2.72-1.21,5.11-1.94,7.61c-1.4,4.84-3.82,9.39-3.87,14.59C240.72,136.66,241.58,139.21,242.27,141.9z M272.13,268.85 c0.39,2.54,1.01,5.04,1.47,7.56c0.61,3.31,0.89,6.72,1.83,9.93c0.82,2.77,1.04,5.63,1.74,8.42c1.15,4.56,1.56,9.3,2.73,13.9 c1.33,5.25,2.8,10.45,4.94,15.43c0.82,1.92,1.51,3.96,2.68,5.65c3.38,4.89,6.54,10.02,11.56,13.48c1.89,1.3,3.7,2.85,6.06,3.35 c0.11-1.07-0.14-2.04-0.6-3.03c-0.77-1.68-1.22-3.52-2.13-5.1c-0.91-1.59-0.84-3.46-1.7-4.97c-1.85-3.25-2.85-6.83-4.06-10.3 c-1.06-3.02-2.48-5.89-3.36-9.01c-0.91-3.24-2.72-6.22-4.08-9.33c-1.06-2.42-2.24-4.82-3.01-7.33c-0.72-2.33-1.77-4.5-2.73-6.7 c-1.05-2.41-2.02-4.85-2.57-7.4c-0.45-2.09-1.64-3.8-2.61-5.57c-0.76-1.38-0.48-2.8-1.08-4.16c-1.7-3.86-4.16-7.37-5.18-11.55 c-0.4-1.63-0.57-3.52-2.25-4.58C270.01,261.41,271.54,265.03,272.13,268.85z M305.76,346.96c-0.03-0.26-0.17-0.37-0.43-0.35 C305.48,346.73,305.62,346.85,305.76,346.96z M201.98,73.04c0.16,4.88,0.83,9.75,2.08,14.56c1.37,5.3,2.75,10.57,4.71,15.68 c0.84,2.18,1.87,4.29,2.84,6.43c2.25,5,3.92,10.26,6.87,14.93c0.72,1.15,1.27,2.38,1.86,3.61c1.93,4.03,3.61,8.23,6.95,11.41 c0.68-1.05,0.17-2.22,0.34-3.33c-0.75-1.72-1.95-3.29-2.22-5.16c-0.43-3.06-1.88-5.79-2.63-8.74c-0.52-2.04-1.98-3.75-2.19-5.81 c-0.36-3.63-2.19-6.8-2.96-10.31c-0.45-2.04-1.73-4.09-2.2-6.17c-0.68-2.96-1.37-5.85-2.86-8.51c-0.14-0.25-0.12-0.59-0.21-0.88 c-0.53-1.87-0.84-3.84-1.66-5.57c-1.02-2.15-1.71-4.4-2.26-6.64c-1.49-6.01-3.97-11.71-5.51-17.69 C201.34,64.81,201.85,69,201.98,73.04z M293.61,47.18c-0.13-0.12-0.26-0.23-0.39-0.35C293.24,47.08,293.39,47.17,293.61,47.18z M100.03,212.62c-0.11,0.17-0.21,0.33-0.32,0.5C99.81,212.96,99.92,212.79,100.03,212.62z" fill="#E0A84F"/></g><g id="change5_1"><path d="M202.93,60.85c0.05-0.58,0.1-1.17,0.15-1.75c0.64-1.36,0.92-2.77,0.76-4.27c0,0-0.01-0.17-0.01-0.17 c0.04-0.03,0.12-0.06,0.12-0.09c0-0.08-0.04-0.16-0.06-0.24c0.23-1.59,0.61-3.12,1.54-4.46c0.53-0.01,1.2-0.22,1.31,0.6 c0.46,3.41,2.72,6.11,3.69,9.36c1.04,3.49,2.58,6.83,3.75,10.31c1.06,3.15,2.53,6.19,3.79,9.29c0.89,2.2,1.43,4.52,2.44,6.69 c1.68,3.62,2.2,7.69,4.45,11.11c0.93,1.42,1.07,3.19,1.78,4.76c1.36,3.04,2.39,6.23,3.63,9.32c0.71,1.76,1.93,3.29,2.27,5.22 c-0.33,3.13-1.52,6.05-2.2,9.1c-0.8,3.59-1.8,7.14-2.71,10.71c-0.75-1.72-1.95-3.29-2.22-5.16c-0.43-3.06-1.88-5.79-2.63-8.74 c-0.52-2.04-1.98-3.75-2.19-5.81c-0.36-3.63-2.19-6.8-2.96-10.31c-0.45-2.04-1.73-4.09-2.2-6.17c-0.68-2.96-1.37-5.85-2.86-8.51 c-0.14-0.25-0.12-0.59-0.21-0.88c-0.53-1.87-0.84-3.84-1.66-5.57c-1.02-2.15-1.71-4.4-2.26-6.64 C206.95,72.53,204.47,66.84,202.93,60.85z M91.86,160.89c0.41,1.75-0.51,3.24-1.24,4.6c-2.77,5.21-5.11,10.62-7.59,15.96 c-3.11,6.7-6.03,13.5-8.96,20.29c-1.77,4.08-3.48,8.19-5.08,12.34c-0.75,1.95-2.13,3.51-2.82,5.52c-1.83,5.33-3.64,10.68-6.25,15.7 c-1.56,3-2.68,6.16-3.87,9.32c-2.05,5.44-4.55,10.71-6.86,16.05c0.46-0.08,0.71-0.42,1.02-0.73c1.13-1.14,1.58-2.72,2.61-3.93 c3.86-4.55,7.96-8.9,11.58-13.66c1.68-2.21,4.08-3.65,5.95-5.65c0.15-1.22-0.95-1.8-1.41-2.71c-1.22-2.4-0.93-4.91-0.69-7.39 c0.2-1.99,0.57-3.99,1.11-5.91c0.28-0.99-0.25-1.8-0.12-2.71c0.45-3.33,1.94-6.29,3.58-9.09c2.25-3.85,6.03-4.9,10.21-3.3 c0.37-1.16,0.63-2.38,1.14-3.48c2.78-6.09,4.75-12.48,7.11-18.72c1.74-4.59,3.52-9.17,5.19-13.79c1.75-4.84,4.65-9.25,5.39-14.46 C98.2,156.49,95.3,159.16,91.86,160.89z M246.88,80.85c-0.81-1.28-0.9-2.79-1.41-4.17c-2.16-5.87-4.52-11.68-6.66-17.55 c-2.28-6.26-4.8-12.45-6.55-18.9c-0.37-1.37-1.57-2.33-1.88-3.77c-0.73-3.4-1.47-6.81-2.83-10.01c-1.19-2.78-1.23-5.91-2.71-8.59 c-1.71,1.41-2.64,3.52-4.48,4.85c-1.36,0.98-1.63,2.83-2.78,4.03c1.68,2.79,2.05,6.08,3.56,9c1.18,2.28,1.43,5.21,2.35,7.62 c2.36,6.21,4.27,12.56,6.48,18.81c2.48,7.01,4.76,14.09,7.49,21.02c0.73,1.86,1.52,3.76,1.97,5.8c0.37,1.67,0.46,3.55,1.5,5.07 C243.4,89.88,244.9,85.26,246.88,80.85z M164.88,235.16c0.42,1.85,1.18,3.68,0.94,5.62c-0.12,0.92,0.54,1.13,0.94,1.62 c0.59-1.48,0.91-3.04,1.57-4.52c1.44-3.26,2.72-6.59,4.06-9.9c1.72-4.27,3.33-8.59,5.15-12.82c2.49-5.76,5.24-11.41,7.71-17.18 c3.83-8.94,8.28-17.61,12.02-26.59c1.04-2.49,2.27-4.91,3.23-7.44c-0.59-2.02-2.14-2.98-3.98-3.62c-1.69,3.61-3.73,7.06-5.15,10.8 c-0.17,0.46-0.3,0.98-0.6,1.33c-1.88,2.13-2.78,4.8-3.89,7.31c-3.13,7.03-6.97,13.72-9.91,20.85c-2.6,6.31-5.56,12.48-8.41,18.69 c-1.61,3.52-3.31,7-4.97,10.51C163.73,231.66,164.47,233.37,164.88,235.16z M91.52,219.08c2.19-2.72,5.9-3.36,8.19-5.96 c0.11-0.17,0.21-0.33,0.32-0.5c0,0-0.01,0.04-0.01,0.04c1.37-3.28,2.73-6.57,4.13-9.84c1.32-3.09,2.27-6.3,3.71-9.36 c2.53-5.38,4.52-11.01,6.83-16.49c1.54-3.66,3.48-7.17,4.8-10.9c1.49-4.24,4.06-7.98,5.37-12.27c0.85-2.76,2.58-5.15,3.27-7.97 c-2.21,0.01-4.32,0.41-6.24,1.55c-0.04,0.18-0.05,0.38-0.14,0.54c-3.65,6.55-6.24,13.6-9.54,20.32c-2.78,5.67-5.22,11.52-8.15,17.14 c-1.56,3-2.56,6.31-4.12,9.27c-2.56,4.84-4.84,9.78-7.13,14.74c-0.85,1.84-0.84,4.18-2.78,5.47 C90.42,216.31,90.23,217.96,91.52,219.08z M293.22,46.84c0.13,0.12,0.26,0.23,0.39,0.35c0.86,0.55,1.64,1.19,2.61,1.6 c2.63,1.13,5.19,2.41,7.78,3.63c0.13-0.01,0.25-0.03,0.38-0.04c0.15-0.94-0.62-1.56-0.88-2.37c-0.9-2.8-1.44-5.74-2.5-8.45 c-1.99-5.08-3.11-10.4-4.8-15.56c-1.05-3.2-1.19-6.72-2.41-9.83c-1.76-4.48-1.97-9.28-3.46-13.79c-1.19-0.61-2.62-0.11-3.76-0.67 c-1.98-0.97-4.01-0.99-6.1-0.74c0.4,1.09,0.82,2.17,1.09,3.32c0.57,2.46,1.07,4.96,2.33,7.2c0.24,0.43,0.34,0.89,0.42,1.39 c0.4,2.28,0.57,4.67,1.44,6.77c1.02,2.46,1.47,5.05,2.37,7.51c0.97,2.66,1.02,5.53,2.08,8.18c1.47,3.7,1.48,7.8,3.04,11.49 L293.22,46.84z M177.5,146.26c-0.68,2.63-1.91,5.03-2.98,7.51c-2.81,6.55-5.77,13.03-8.49,19.63c-2.8,6.8-5.21,13.77-8.42,20.41 c-0.91,1.88-1.33,3.97-2.6,5.68c-0.59,1.48,0.35,2.88,0.84,3.95c1.03,2.24,1.13,4.57,1.52,6.87c0.15,0.89,0.55,1.28,1.2,1.64 c0.59-0.58,0.82-1.36,1.1-2.11c2.55-6.9,4.97-13.85,7.68-20.69c3.39-8.57,6.63-17.2,9.63-25.9c1.7-4.93,3.32-9.9,4.95-14.86 C180.49,147.64,179.23,146.45,177.5,146.26z M133.2,194.89c0.72-1.68,1.52-3.31,2.15-5.04c2.1-5.71,4.45-11.32,6.6-17.01 c3.4-9.02,6.68-18.1,10.12-27.1c0.53-1.38,0.58-3.09,2.05-4.01c-2.31-0.82-4.64,0.41-6.95-0.07c-0.16,0.66-0.22,1.35-0.48,1.96 c-2.38,5.73-4.77,11.46-7.2,17.17c-3.56,8.37-7.13,16.73-10.74,25.07c-0.88,2.02-1.46,4.24-2.5,6.08c-1.35,2.38-2.26,4.88-3.34,7.34 C126.21,197.5,130,196.88,133.2,194.89z M245,5.73c0.73,2.32,1.33,4.68,2.17,6.99c0.91,2.49,1.15,5.24,1.9,7.84 c1.42,4.95,2.54,10.02,4.17,14.88c2.35,6.99,3.48,14.3,5.99,21.22c2.36-2.79,4.19-5.93,5.97-9.1c-0.4-0.89-0.89-1.75-1.19-2.68 c-2.1-6.52-4.13-13.07-6.24-19.59c-2.28-7.06-4.61-14.1-6.92-21.15C248.75,4.15,246.74,4.44,245,5.73z M335.31,31.29 c-2.16-3.25-4.84-6.08-7.51-8.89c-0.74-0.78-1.75-1.64-2.97-1.92c0.48,2.2,1.06,4.39,1.4,6.62c0.38,2.44,1.25,4.73,1.8,7.11 c0.75,3.29,1.19,6.66,2.11,9.9c1.37,4.83,2.86,9.62,3.66,14.6c1.37,0.15,2.42-0.77,3.66-1.09c1.87-0.49,3.62-0.6,5.15,0.87 c0.2,0.19,0.57,0.19,0.86,0.28c-0.18-0.77-0.82-1.3-0.96-2.15c-0.7-4.11-2.5-7.91-3.44-11.99c-0.95-4.14-2.57-8.13-3.57-12.28 C335.45,31.98,335.49,31.56,335.31,31.29z M370.64,184.98c0.64,0.75,1.44,1.62,1.46,2.82c0.03,2.34,0.74,4.54,1.46,6.75 c0.79,2.42,2.4,4.5,2.58,7.21c0.07,1.08,0.02,2.67,1.39,3.42c0.48-0.63,0.24-1.28,0.05-1.93c-0.81-2.7-1.01-5.51-1.57-8.26 c-1.09-5.32-1.9-10.69-3.2-15.96c-0.96,1.2-1.79,2.59-3.6,2.65C369.4,182.9,369.77,183.97,370.64,184.98z M33.86,334.01 c-1.56,4-1.59,8.41-3.17,12.43c-0.11,0.29,0.04,0.6,0.31,0.81c1.14-0.88,1.53-2.16,1.85-3.48c0.41-1.71,0.83-3.42,1.28-5.13 c0.72-2.71,2.64-4.94,3.15-7.74c-0.83-0.39-1.65-0.77-2.48-1.16C34.7,331.22,34.41,332.6,33.86,334.01z M378.7,209.24 c0.08,1.32-0.02,2.68,1.01,3.74C380.07,211.55,379.45,210.38,378.7,209.24z M154.86,141.58c0.53,0.27,1.04,0.23,1.56-0.04 C155.88,140.88,155.36,140.84,154.86,141.58z M159.4,141.62c0.2,0.49,0.63,0.48,1.06,0.48C160.33,141.44,160,141.24,159.4,141.62z M377.59,206.27c-0.23,0.59-0.12,1.02,0.55,1.19C378.18,206.96,378.21,206.47,377.59,206.27z M383.26,311.44 c-0.9-2.81-1.72-5.63-2.59-8.45c-1.47-4.75-3.09-9.45-4.39-14.25c-1-3.69-2.41-7.26-3.25-10.97c-0.82-3.6-1.95-7.13-3.05-10.61 c-1.38-4.38-2.73-8.81-4.07-13.2c-2.07-6.8-3.87-13.69-5.96-20.5c-1.25-4.09-2.86-8.05-4-12.2c-1.85-6.76-3.96-13.47-6.27-20.11 c-2.16-6.23-3.8-12.65-5.63-19c-0.46-1.59-0.79-3.2-1.33-4.78c-1.4-4.14-3.35-8.1-4.08-12.47c-0.19-1.15-0.37-2.33-0.78-3.41 c-1.51-3.91-3.56-7.59-4.35-11.79c-0.4-2.15-1.36-4.28-1.59-6.37c-0.54-4.76-2.61-9.02-3.77-13.56c-0.78-3.05-1.71-6.18-2.97-9.16 c-1.64-3.9-1.5-8.38-3.59-12.18c-0.5-0.1-0.97,0.11-1.45,0.16c-2.25,0.24-4.12-1.29-4.26-3.62c-0.19-3.13,0.06-6.25,0.92-9.29 c0.47-1.65-0.13-3.28,0-4.94c0.05-0.64-0.71-0.84-1.43-0.66c-1.01,0.25-2.03,0.43-3.07,0.56c-3.01,0.39-4.93-1.17-6.46-3.41 c-0.96-1.41-1.73-2.95-2.59-4.43c-0.33,2.05,0.48,3.89,1.11,5.74c0.9,2.65,1.34,5.41,2.14,8.07c0.77,2.6,0.89,5.44,2.66,7.72 c0.7,0.89,0.83,2.05,1.09,3.12c0.75,3.12,1.1,6.39,2.3,9.32c1.41,3.42,2.06,6.98,3.1,10.45c1.01,3.38,1.93,6.83,3.29,10.1 c0.41,0.98,0.44,2.05,0.59,2.96c0.44,2.66,2.68,4.52,2.76,7.33c0.04,1.27,0.95,2.64,1.55,3.79c2.07,3.95,2.55,8.27,3.69,12.44 c0.25,0.93,0.78,1.8,1.28,2.65c1.73,2.95,2.04,6.4,3.31,9.51c1.44,3.51,2.56,7.14,3.82,10.71c1.61,4.55,3.68,8.91,5.05,13.56 c0.58,1.96,0.88,4.07,1.77,5.92c2.78,5.77,4.03,12.13,6.77,17.89c2.03,4.27,2.79,8.87,4.32,13.25c1.03,2.95,2.22,5.86,3.09,8.86 c1.41,4.9,3.3,9.63,4.76,14.52c1.08,3.6,2.37,7.2,3.58,10.79c1.43,4.24,3.03,8.43,4.18,12.78c0.81,3.07,2.07,6.03,3.23,9 c0.55,1.4,0.52,2.89,0.97,4.3c2.33,7.31,4.54,14.66,6.97,21.93c1.05,3.14,1.56,6.46,3.17,9.41c1.1-1.91,2.19-3.83,3.29-5.74 C385.81,319.27,384.51,315.36,383.26,311.44z M348.53,113.59c0.69,4.1,2.87,7.69,3.66,11.81c0.76,4,2.44,7.88,3.74,11.77 c1.64,4.92,3.19,9.83,4.45,14.85c0.22,0.89,0.36,1.83,0.73,2.65c1.53,3.34,2.02,7.01,3.32,10.41c1.02,2.66,0.98,5.65,2.56,8.14 c0.19-0.9,0.43-1.79,0.4-2.73c-0.14-4.99-0.38-9.98-0.3-14.97c0.04-2.36-0.88-4.4-1.35-6.59c-1.06-4.97-1.84-10.02-3.55-14.83 c-1.33-3.76-2.56-7.55-4.36-11.14c-1.36-2.71-2.83-5.32-4.39-7.91c-1.35-2.25-3.07-4.2-4.61-6.3c-1.11-1.51-1.28-3.59-2.94-4.72 C346.81,107.21,347.99,110.32,348.53,113.59z M124.22,210.35c-2.17,0.9-3.2,3.45-5.8,3.61c-0.91,0.05-1.56,0.9-2.2,1.55 c0.42,4.14,1.11,8.28,0.58,12.45c-0.42,3.31-1.63,6.28-3.73,8.97c-1.67,2.15-2.9,4.65-5.07,6.41c-1.58,1.29-3.23,2.49-5.46,2.2 c-0.87,0.81-1.1,1.95-1.32,3c-0.42,1.99-1.14,3.84-2.02,5.66c-1.9,3.93-3.41,8.02-4.91,12.12c-0.75,2.03-1.63,3.93-2.07,6.12 c-0.36,1.83-1.92,3.32-2.75,5.12c-1.32,2.86-1.96,5.94-3.26,8.76c-2,4.34-3.18,9-5.06,13.35c-1.4,3.25-3.25,6.39-4.03,9.82 c-0.94,4.12-2.85,7.84-4.37,11.68c-1.58,4-3.37,7.96-4.96,11.97c-0.82,2.08-1.05,4.44-2,6.48c-1.38,2.98-1.98,6.27-3.88,9.07 c-0.86,1.27-0.97,3.02-1.56,4.5c-2.06,5.14-4.3,10.2-6.24,15.38c-1.52,4.08-3.43,8.02-4.57,12.24c-0.45,1.64-1.72,2.83-2.25,4.44 c-1.57,4.75-3,9.57-4.88,14.2c-1.43,3.52-3.08,6.98-4.2,10.59c-1.84,5.95-4.26,11.7-6.34,17.55c-1.78,4.99-2.75,10.32-5.43,15.03 c-1.28,2.26-1.96,4.87-2.79,7.37c-1.55,4.66-4,8.95-5.56,13.6c-0.31,0.93-0.59,1.88-0.88,2.81c0.02,0.55,0.42,0.76,0.78,1.11 c1.78,1.71,3.99,2.81,5.96,4.23c0.9,0.65,1.76,1.04,2.86,0.77c2.26-5.05,3.93-10.33,5.97-15.45c2.2-5.52,4.1-11.16,6.65-16.56 c2.84-6.03,5.3-12.24,7.92-18.37c3.08-7.21,6.1-14.45,9.23-21.64c2-4.6,4.02-9.18,5.75-13.9c1.81-4.92,3.86-9.78,5.9-14.63 c2.31-5.48,4.09-11.16,6.38-16.65c1.53-3.67,2.58-7.53,3.87-11.3c0.97-2.84,2.8-5.32,3.59-8.23c1.5-5.48,3.76-10.71,5.27-16.17 c0.88-3.17,2.74-5.85,3.7-8.99c0.93-3.04,1.54-6.26,3.02-9.07c2.62-4.99,3.68-10.52,5.88-15.66c2.12-4.96,3.33-10.3,5.27-15.34 c2.93-7.61,5.86-15.21,8.61-22.88c1.45-4.05,3.15-8.01,4.5-12.09c0.74-2.22,1.73-4.33,2.46-6.54c1.17-3.55,2.3-7.13,3.72-10.58 c1.38-3.36,3.11-6.57,3.89-10.15C126.79,208.55,125.62,209.76,124.22,210.35z M71.01,486.34c2.31-5.34,5.03-10.5,7.09-15.95 c0.84-2.22,2.38-4.11,3.25-6.35c1.33-3.4,2.82-6.74,4.31-10.07c1.09-2.43,2.52-4.76,3.26-7.32c0.99-3.46,3.27-6.38,3.8-10.07 c0.18-1.25,0.94-2.65,1.51-3.94c2.98-6.73,6.13-13.4,8.92-20.21c1.85-4.52,3.79-9.02,5.15-13.74c0.47-1.65,1.32-3.25,1.95-4.91 c1.28-3.37,2.49-6.77,4.1-10.03c1.65-3.34,3.3-6.79,4.14-10.38c0.91-3.92,2.71-7.43,4.15-11.08c1.66-4.21,2.36-8.77,4.55-12.76 c2.5-4.56,4.05-9.46,5.58-14.4c1.01-3.25,2.74-6.27,3.83-9.5c0.8-2.35,2-4.54,2.39-7.08c0.44-2.91,2.05-5.48,3.08-8.22 c0.81-2.17,1.57-4.35,2.38-6.52c1.62-4.36,3.3-8.71,4.89-13.08c1.4-3.86,2.65-7.77,4.05-11.63c1.2-3.31,1.73-6.88,3.73-9.89 c-0.61-6.19-1.22-12.38-2.59-18.47c-1.42,4.18-3.77,7.95-5.26,12.12c-1.74,4.85-4.12,9.47-6.01,14.26 c-1.51,3.82-3.29,7.52-4.79,11.35c-1.06,2.72-2.35,5.43-3.38,8.16c-2.07,5.5-4.4,10.91-6.46,16.42c-1.42,3.82-3.4,7.46-4.84,11.29 c-2.07,5.52-4.32,10.95-6.84,16.26c-1.18,2.48-1.26,5.27-2.54,7.69c-2.49,4.68-4.46,9.63-6.27,14.55c-1.65,4.5-4.07,8.65-5.37,13.29 c-0.73,2.62-2.37,4.96-2.72,7.75c-0.07,0.54-0.08,1.17-0.36,1.59c-3.11,4.7-4.46,10.2-6.92,15.19c-3.71,7.53-6.02,15.63-9.39,23.3 c-1.45,3.29-2.19,6.85-4.05,10.01c-1.36,2.3-1.73,5.2-2.97,7.46c-2.07,3.79-2.9,7.95-4.66,11.8c-1.48,3.22-2.61,6.6-3.86,9.93 c-0.65,1.71-0.7,3.58-1.59,5.25c-1.26,2.38-2.64,4.75-2.73,7.57c-0.01,0.28-0.2,0.59-0.37,0.84c-1.74,2.45-2.52,5.28-3.2,8.15 C63.59,485.83,67.29,486.21,71.01,486.34z M147.59,217.09c-0.6,1.48-1,3.08-1.82,4.43c-3.07,5.07-4.97,10.69-7.56,15.98 c-2.67,5.45-4.98,11.06-7.18,16.73c-1.41,3.64-3.45,7.04-5.06,10.61c-2.11,4.7-3.85,9.59-6.16,14.19 c-2.71,5.38-4.96,10.96-7.51,16.41c-2.57,5.47-4.43,11.24-6.98,16.74c-1.46,3.14-2.53,6.47-3.86,9.68 c-1.79,4.3-3.16,8.77-5.16,12.99c-2.95,6.24-5.3,12.73-7.77,19.17c-2.79,7.27-5.19,14.69-8.16,21.87 c-2.61,6.31-4.64,12.82-7.3,19.11c-2.65,6.28-4.94,12.71-7.25,19.13c-1.77,4.92-3.7,9.77-5.58,14.64 c-1.88,4.87-3.73,9.78-6.07,14.47c-0.98,1.96-1.16,4.33-2.19,6.26c-2.15,4.05-3.65,8.35-5.32,12.59c-0.58,1.49-1.31,2.91-1.92,4.39 c-1.69,4.15-3.35,8.32-5.02,12.48c1.2,1.13,3.24,0.44,4.27,1.95c0.5-0.31,0.73-0.81,0.95-1.33c1.84-4.22,3.75-8.41,5.51-12.66 c1.35-3.25,3.21-6.24,4.44-9.56c0.79-2.12,1.39-4.38,2.47-6.31c1.75-3.14,3.07-6.43,4.54-9.68c1.89-4.19,3.57-8.47,5.69-12.58 c1.79-3.47,3.07-7.23,4.65-10.84c2.36-5.4,4.58-10.87,6.89-16.3c1.39-3.27,2.92-6.48,4.24-9.78c1.83-4.57,3.83-9.06,5.63-13.65 c1.24-3.17,2.8-6.26,4.08-9.4c1.83-4.5,3.87-8.9,5.62-13.43c0.99-2.58,2.31-5.04,3.41-7.58c2.88-6.65,4.82-13.7,8.46-20.03 c0.45-0.79,0.66-1.71,0.94-2.59c1.22-3.85,2.82-7.64,4.51-11.22c1.97-4.19,3.81-8.47,5.66-12.7c1.93-4.42,4.11-8.75,5.69-13.35 c0.73-2.12,1.54-4.26,2.52-6.33c1.13-2.37,2.18-4.79,3.3-7.18c2.45-5.22,4.37-10.66,6.5-16.02c1.35-3.41,3.27-6.57,4.7-9.97 c2.32-5.49,4.11-11.19,6.67-16.58C149.91,226.92,148.75,222,147.59,217.09z M88.08,239.5c-1.18,1.56-2.26,2.85-2.87,4.44 c-0.32,0.83-0.7,1.6-1.41,2.11c-3.26,2.33-5.37,5.63-7.34,8.97c-1.28,2.17-2.97,2.23-5.01,1.69c-2.07,4.4-3.82,8.93-5.51,13.48 c-0.88,2.37-2.5,4.39-3,6.91c-0.89,4.43-3.33,8.29-4.66,12.58c-1.71,5.54-4.87,10.56-6.13,16.29c-0.09,0.41-0.38,0.77-0.48,1.18 c-0.76,2.98-2.67,5.48-3.46,8.49c-0.52,2-0.66,4.3-1.79,5.95c-1.82,2.65-2.44,5.74-3.77,8.55c-1.95,4.14-3.33,8.6-4.2,13.16 c-0.15,0.78-0.28,1.66-0.73,2.27c-2.92,3.9-3.62,8.73-5.11,13.14c-1.73,5.12-4.02,10.01-5.75,15.13c-1.03,3.04-2.2,6.19-3.4,9.22 c-1.91,4.81-3.57,9.77-5.41,14.63c-1.79,4.7-3.41,9.46-5.3,14.12c-3.23,7.96-6.16,16.05-9.96,23.77c-0.93,1.31,0.17,2.45,0.34,3.65 c0.6,4.1,1.76,8.07,3.21,11.94c0.46,1.23,0.64,2.64,1.62,3.65c2.66-2.98,2.74-7.05,4.31-10.51c1.44-3.19,2.93-6.45,3.78-9.95 c0.33-1.35,0.46-2.94,1.23-4.16c2.13-3.38,2.83-7.31,4.37-10.91c1.83-4.28,3.57-8.59,5.34-12.9c1.08-2.62,2.38-5.18,3.13-7.9 c0.67-2.45,1.7-4.72,2.75-6.99c1.03-2.22,2.23-4.36,2.55-6.85c0.05-0.41,0.16-0.89,0.41-1.2c2.19-2.65,2.97-6.06,3.79-9.12 c1.51-5.62,4.27-10.71,5.87-16.26c0.86-2.98,2.59-5.7,2.67-8.95c0.01-0.46,0.3-0.94,0.56-1.36c2.13-3.5,3.39-7.37,4.94-11.12 c0.93-2.23,0.92-4.68,1.99-6.89c1.3-2.66,1.54-5.71,3.08-8.36c0.69-1.2,1.62-2.53,1.78-3.98c0.49-4.43,2.93-8.15,4.41-12.2 c1.16-3.17,2.02-6.43,3.29-9.57c0.76-1.87,1.85-3.66,2.34-5.54c1.4-5.44,4.19-10.35,5.67-15.75c0.56-2.05,1.42-4.04,2.3-5.99 c2.19-4.82,3.31-10.04,5.62-14.82c0.75-1.54,1.5-3.11,1.78-4.82c0.38-2.36,1.37-4.45,2.55-6.49 C88.36,241.45,88.24,240.64,88.08,239.5z M97.17,479.81c2.63-2.45,5.97-4.17,7.62-7.6c0.25-2.12,1.39-3.94,1.92-5.99 c0.64-2.48,1.67-4.87,2.59-7.28c1.33-3.5,2.32-7.12,3.95-10.52c0.71-1.48,1.04-3.14,1.61-4.7c0.3-0.82,0.01-1.91,1.07-2.39 c0.05-0.18,0.11-0.36,0.16-0.53c-0.22-0.76-0.13-1.45,0.48-2.02c0.32-1.25,0.67-2.5,0.96-3.76c1.33-5.87,2.69-11.74,3.95-17.62 c1.47-6.91,3.16-13.81,5.13-20.56c2.34-8.03,4.7-16.12,8.04-23.85c1.47-3.41,2.09-7.13,3.85-10.49c2.28-4.35,3.41-9.22,5.73-13.57 c-0.49-0.84-1.35-1.4-1.65-2.41c-0.65-2.18-0.31-4.01,1.34-5.71c1.71-1.77,1.98-4.3,2.99-6.45c2.76-5.83,6.44-11.19,8.22-17.51 c1.41-5.01,3.52-9.84,2.68-15.23c-0.52,1.31-1,2.64-1.55,3.94c-1.22,2.89-2.96,5.66-3.61,8.67c-0.94,4.4-3.79,7.89-4.94,12.24 c-0.81,3.08-2.67,6.12-4.11,9.14c-2.59,5.44-4.31,11.22-7.01,16.62c-2.2,4.4-3.71,9.15-5.54,13.74c-0.45,1.13-0.93,2.26-1.39,3.39 c-1.58,3.84-3.15,7.69-4.74,11.52c-1.1,2.66-2.44,5.24-3.3,7.97c-1.54,4.86-3.26,9.67-5.39,14.26c-2.87,6.17-5.35,12.5-7.55,18.9 c-1.62,4.73-3.3,9.48-4.87,14.24c-1.62,4.93-3.96,9.67-5.77,14.59c-1.45,3.93-2.82,7.91-4.5,11.75c-1.49,3.42-2.52,7-3.97,10.41 c-1.13,2.65-1.92,5.43-3.34,7.97c-0.66,1.16-1.09,2.49-1.08,3.89C89.43,483.87,93.72,483.02,97.17,479.81z M212.29,189.32 c-0.82,0.6-1.34,1.44-1.83,2.3c-1.46,2.57-2.71,5.23-4.18,7.8c-3.17,5.55-5.66,11.45-8.99,16.95c-2.79,4.61-4.78,9.67-7.26,14.48 c-3.2,6.22-6.02,12.64-8.99,18.98c-3.44,7.34-6.63,14.79-10.19,22.06c-0.17,1.63,0.57,3.23,0.5,4.77 c-0.19,3.82-0.11,7.63-0.06,11.44c0.01,0.56,0.53,0.6,0.92,0.74c1.48-3.78,3.11-7.51,4.38-11.36c0.98-2.97,2.47-5.7,3.38-8.71 c0.81-2.67,2.61-5.01,3.47-7.72c2.27-7.12,5.7-13.75,8.91-20.46c2.62-5.48,4.95-11.1,7.83-16.46c1.77-3.29,3.1-6.82,4.84-10.13 c1.87-3.54,3.61-7.14,5.44-10.7c1.15-2.24,1.67-4.79,3.41-6.72C214.2,193.96,213.71,191.54,212.29,189.32z M262.76,70.93 c1.83,4.88,2.23,10.21,4.64,14.92c0.14,0.27,0.25,0.58,0.27,0.87c0.17,3.17,1.63,6.03,2.4,9.04c0.81,3.12,2.07,6.22,2.83,9.34 c1.36,5.62,3.05,11.14,4.82,16.62c1.16,3.59,1.67,7.45,3.85,10.73c0.73,1.11,0.93,2.62,0.78,4.09c-0.13,1.3,0.28,2.54,0.69,3.78 c1.95,5.84,3.56,11.81,5.94,17.47c1.31,3.11,1.71,6.43,3.02,9.41c1.64,3.71,1.63,7.75,3.08,11.44c1.19,3.02,2.24,6.09,3.48,9.09 c0.33,0.8,0.11,1.58,0.34,2.35c0.64,2.18,1.24,4.3,2.56,6.28c1.55,2.33,1.36,5.32,2.13,7.97c0.08,0.29,0,0.69,0.16,0.9 c1.84,2.41,1.43,5.66,2.86,8.09c2.39,4.07,2.29,8.85,4.4,13.04c1.43,2.84,2.77,5.97,3.13,9.31c0.13,1.23,1.07,2.17,1.51,3.33 c1.67,4.3,1.8,9.11,4.01,13.14c2,3.66,2.23,7.85,4.3,11.49c1.49,2.62,1.82,5.87,3.01,8.69c1.76,4.19,2.39,8.77,4.48,12.81 c2.14,4.13,2.91,8.72,4.66,12.98c1.29,3.13,2.11,6.46,3.28,9.65c0.54,1.49,1.21,2.95,1.86,4.39c1.9,4.25,3.23,8.71,5.19,12.95 c1.17,2.55,2.67,5.15,3.11,8.04c0.28,1.82,1.51,3.19,2.19,4.83c1.5,3.62,2.65,7.41,4.59,10.85c4.78-0.88,9.03-2.97,13.05-5.6 c-0.44-3.99-2.58-7.48-3.38-11.37c-0.27-1.32-0.53-2.67-1.02-3.91c-1.65-4.16-2.99-8.39-3.86-12.78c-0.06-0.29-0.13-0.61-0.3-0.85 c-1.39-2.04-1.81-4.52-2.49-6.77c-0.96-3.17-1.67-6.54-2.96-9.5c-1.97-4.49-3.08-9.28-5.2-13.73c-1.54-3.22-2.04-6.95-3.33-10.39 c-0.99-2.64-2.36-5.14-2.92-8c-0.74-3.75-3.26-6.95-3.71-10.85c-0.05-0.47-0.29-0.95-0.55-1.36c-2.18-3.48-2.64-7.61-4.32-11.28 c-0.39-0.85-0.33-1.88-0.9-2.75c-1.07-1.61-1.92-3.27-2.41-5.24c-0.42-1.67-0.57-3.59-1.52-5.01c-1.07-1.59-1.36-3.38-2-5.07 c-1.26-3.33-1.8-6.92-3.51-10.1c-0.38-0.7-0.65-1.45-0.99-2.15c-0.93-1.91-0.71-4.11-1.79-5.97c-1.05-1.8-1.88-3.73-2.18-5.81 c-0.16-1.09-0.61-1.93-1.18-2.83c-0.93-1.47-1.67-3.05-2.03-4.81c-0.41-2.02-0.55-4.29-1.61-5.94c-1.69-2.65-2.8-5.57-3.39-8.45 c-1.24-6.09-4.71-11.23-6.59-17.05c-1.21-3.75-2.11-7.67-3.73-11.32c-1.01-2.28-1.46-4.81-2.36-7.15 c-1.49-3.87-1.99-8.16-4.81-11.49c-0.37-0.44-0.54-1.11-0.66-1.71c-0.71-3.56-1.97-6.93-3.29-10.3c-1.09-2.77-2.24-5.55-2.96-8.42 c-1.11-4.42-3.58-8.3-4.66-12.75c-0.8-3.3-2.4-6.4-3.48-9.65c-1.01-3.07-2.12-6.1-3.1-9.19c-2.13-6.71-4.6-13.32-6.93-19.97 C266.66,62.96,264.73,66.96,262.76,70.93z M237.84,142.1c-0.59,6.47-1.37,12.92-0.88,19.43c3.72,6.23,6.41,12.92,9.06,19.65 c2.15,5.47,4.47,10.88,6.3,16.47c0.8,2.45,1.57,4.91,2.35,7.37c0.63,1.65,1.8,3.13,1.69,5.03c1.14,3.18,2.39,6.32,3.39,9.54 c0.97,3.16,1.78,6.37,2.5,9.6c0.97,4.37,2.81,8.48,3.72,12.86c0.31,1.51,1.01,2.93,1.19,4.44c0.45,3.78,2,7.29,2.61,11.02 c1.69,1.06,1.85,2.95,2.25,4.58c1.02,4.18,3.48,7.69,5.18,11.55c0.6,1.36,0.33,2.78,1.08,4.16c0.97,1.76,2.16,3.47,2.61,5.57 c0.55,2.55,1.52,4.99,2.57,7.4c0.96,2.21,2.01,4.37,2.73,6.7c0.78,2.52,1.95,4.91,3.01,7.33c1.37,3.11,3.17,6.09,4.08,9.33 c0.88,3.12,2.3,5.99,3.36,9.01c1.21,3.47,2.21,7.05,4.06,10.3c0.86,1.51,0.8,3.39,1.7,4.97c0.91,1.59,1.36,3.43,2.13,5.1 c0.45,0.99,0.71,1.96,0.6,3.03c0.07,0.02,0.13,0.03,0.2,0.05c0.26-0.02,0.4,0.09,0.43,0.35c1.02,0.84,2.28,1.23,3.47,1.66 c3.55,1.29,7.09,2.73,10.99,2.55c-0.03-2.48-1.5-4.5-2.55-6.52c-1.28-2.47-2.32-5.11-3.08-7.64c-1.07-3.56-3.02-6.76-3.78-10.44 c-0.47-2.28-1.77-4.39-2.6-6.61c-1.75-4.71-3.48-9.43-5.09-14.2c-0.3-0.9-1.04-1.85-0.88-2.67c0.36-1.88-0.94-3.29-1.22-4.98 c-0.16-0.96-0.49-2.36-1.26-3.5c-0.63-0.93-1.16-2.31-1.49-3.5c-0.5-1.79-0.55-3.71-1.37-5.46c-0.62-1.31-1.13-2.67-1.77-3.97 c-1.31-2.67-2.05-5.56-2.73-8.4c-0.37-1.54-1.7-2.38-1.87-4.04c-0.22-2.19-1.14-4.31-1.68-6.48c-0.63-2.53-2.49-4.63-2.88-7.11 c-0.4-2.55-1.52-4.74-2.64-6.85c-1.18-2.23-1.94-4.59-2.49-6.93c-0.52-2.21-1.27-4.28-2.18-6.3c-0.84-1.88-1.42-3.87-2.3-5.74 c-0.49-1.05-1.61-2.31-1.14-3.8c-1.98-1.02-1.16-3.32-2.19-4.88c-0.68-1.03-2.1-2.55-1.72-3.43c0.88-2.03-0.77-3.11-1.28-4.37 c-1.25-3.09-2.06-6.33-3.48-9.37c-1.05-2.24-2-4.56-2.7-7.02c-0.83-2.89-1.69-5.91-3.28-8.57c-0.56-0.94-1.32-1.89-1.48-2.92 c-0.75-4.8-3.13-9.01-4.92-13.39c-1.34-3.27-2.49-6.63-4-9.84c-0.94-2-1.35-4.23-2.7-6.1c-0.52-0.72-0.97-1.75-0.88-2.58 c0.15-1.41-0.46-2.45-0.98-3.6c-1.18-2.67-2.64-5.27-3.35-8.06c-0.69-2.69-1.55-5.24-2.85-7.67 C238.68,136.81,238.09,139.39,237.84,142.1z M344.9,351.09c-3.15-7.02-6.32-14.02-9.45-21.05c-2.55-5.74-5.32-11.4-7.48-17.28 c-2.1-5.71-4.68-11.2-6.73-16.93c-3.28-9.19-7.06-18.21-10.56-27.32c-2.1-5.46-4.22-10.92-6.04-16.48 c-1.32-4.04-3.13-7.88-4.35-11.94c-1.92-6.41-4.68-12.53-6.39-19.04c-1.4-5.33-3.56-10.46-5.17-15.75 c-1.87-6.16-4.16-12.19-5.85-18.41c-1.11-4.07-2.63-8.06-3.84-12.08c-1.66-5.49-3.41-10.98-4.92-16.53 c-1.41-5.21-3.3-10.29-4.99-15.43c-2.44-7.45-4.54-15.02-7.88-22.15c-0.26-0.55-0.45-1.15-0.62-1.74c-0.89-3.06-1.45-6.27-2.72-9.17 c-2.19-5-3.54-10.29-5.58-15.32c-0.75,0.22-0.71,0.94-0.9,1.49c-0.52,1.43-0.97,2.9-1.51,4.33c-1.17,3.13-2.37,6.24-3.56,9.36 c0.35,1.31,0.58,2.65,1.06,3.9c1.15,3.04,2.75,5.95,3.56,9.06c1.27,4.87,2.82,9.66,4.5,14.37c3.06,8.57,5.93,17.2,9.1,25.74 c0.77,2.07,1.6,4.11,2.3,6.2c1.86,5.58,3.51,11.24,5.54,16.77c2.42,6.57,4.53,13.24,6.7,19.89c1.7,5.21,3.73,10.3,5.42,15.52 c1.28,3.96,3.43,7.6,4.6,11.63c0.53,1.82,1.16,3.65,1.97,5.36c3.27,6.84,5.37,14.14,8.45,21.06c2.18,4.89,3.77,10.04,6.07,14.87 c2.53,5.32,4.45,10.9,7.07,16.18c1.45,2.93,2.46,6.08,3.98,8.96c2.77,5.23,4.71,10.82,7.1,16.21c1.74,3.92,3.62,7.8,5.35,11.73 c2.34,5.34,4.33,10.85,7.17,15.99c1.46,2.63,2.45,5.52,3.65,8.29C341.64,351.89,343.29,351.88,344.9,351.09z M299.88,64.02 c-0.79-0.1-1.5-0.6-2.34-0.47c0.15,3.25,1.58,6.14,2.6,9.14c0.07,0.2,0.33,0.34,0.5,0.5C300.23,70.15,299.82,67.1,299.88,64.02z M349.51,87.87c1.39,0.96,2.55,2.21,3.35,3.81c0.57,1.13,0.74,2.68,2.28,3.16c-0.31-0.73-0.83-1.44-0.91-2.2 c-0.55-5.15-3.52-9.51-4.67-14.48c-0.67-2.9-1.59-5.74-2.87-8.46c-0.55-1.15-0.14-2.65-1.16-3.68c-0.23,1.67,0.48,3.26,0.38,4.93 c-0.26,4.54,0.35,9.12-0.76,13.61C346.62,85.65,348.01,86.83,349.51,87.87z M40.71,319.96c2.89-4.94,3.56-10.75,6.38-15.69 c1.2-2.11,1.42-4.6,2.45-6.83c2.33-5.09,3.18-10.74,5.72-15.77c0.94-1.86,1.11-3.95,1.94-5.84c1.73-3.93,3.29-7.92,4.28-12.11 c-0.91,0.72-2.29,1.26-2.64,2.18c-1.15,2.99-4.06,4.71-5.1,7.81c-0.56,1.66-1.71,3.38-3.59,4.2c-0.52,0.23-0.49,0.82-0.7,1.25 c-0.83,1.64-0.71,3.77-2.03,5.07c-1.82,1.79-2.63,3.9-3.02,6.3c-0.62,3.82-2.14,7.42-2.7,11.27c-0.59,4.09-1.47,8.14-1.83,12.27 c-0.32,3.78-0.9,7.54-0.54,11.35C40.03,323.65,39.8,321.51,40.71,319.96z M345.48,65.04c-0.38,0.29-0.26,0.54,0.06,0.77 C345.53,65.55,345.51,65.29,345.48,65.04z M300.63,73.17c0.36,1.64-0.56,3.57,1.13,4.9C301.52,76.4,301.74,74.63,300.63,73.17z M202.37,59.06c0.24,0.01,0.48,0.02,0.71,0.04c0.64-1.36,0.92-2.77,0.76-4.27C202.66,55.99,202.79,57.62,202.37,59.06z M203.84,54.65c0.04-0.03,0.12-0.06,0.12-0.09c0-0.08-0.04-0.16-0.06-0.24C203.88,54.43,203.85,54.54,203.84,54.65z" fill="#E7D0D8"/></g></svg>